<svg width="960" height="1080" viewBox="0 0 960 1080" fill="none" xmlns="http://www.w3.org/2000/svg">
<rect x="-155.523" y="-60.48" width="216.901" height="197.155" rx="4.96552" stroke="#33AE81" stroke-width="1.08"/>
<rect x="61.375" y="-60.48" width="216.901" height="197.155" rx="4.96552" stroke="#33AE81" stroke-width="1.08"/>
<rect x="278.281" y="-60.48" width="216.901" height="197.155" rx="4.96552" fill="#2CAA7C" stroke="#33AE81" stroke-width="1.08"/>
<rect x="495.18" y="-60.48" width="216.901" height="197.155" rx="4.96552" stroke="#33AE81" stroke-width="1.08"/>
<rect x="712.078" y="-60.48" width="216.901" height="197.155" rx="4.96552" stroke="#33AE81" stroke-width="1.08"/>
<rect x="928.984" y="-60.48" width="216.901" height="197.155" rx="4.96552" stroke="#33AE81" stroke-width="1.08"/>
<rect x="-155.523" y="136.675" width="216.901" height="197.155" rx="4.96552" stroke="#33AE81" stroke-width="1.08"/>
<rect x="61.375" y="136.675" width="216.901" height="197.155" rx="4.96552" stroke="#33AE81" stroke-width="1.08"/>
<rect x="278.281" y="136.675" width="216.901" height="197.155" rx="4.96552" stroke="#33AE81" stroke-width="1.08"/>
<rect x="495.18" y="136.675" width="216.901" height="197.155" rx="4.96552" stroke="#33AE81" stroke-width="1.08"/>
<rect x="712.078" y="136.675" width="216.901" height="197.155" rx="4.96552" stroke="#33AE81" stroke-width="1.08"/>
<rect x="928.984" y="136.675" width="216.901" height="197.155" rx="4.96552" stroke="#33AE81" stroke-width="1.08"/>
<rect x="-155.523" y="333.831" width="216.901" height="197.155" rx="4.96552" fill="#2CAA7C" stroke="#2CAA7C" stroke-width="1.08"/>
<rect x="61.375" y="333.831" width="216.901" height="197.155" rx="4.96552" stroke="#33AE81" stroke-width="1.08"/>
<rect x="278.281" y="333.831" width="216.901" height="197.155" rx="4.96552" fill="#2CAA7C" stroke="#33AE81" stroke-width="1.08"/>
<rect x="495.18" y="333.831" width="216.901" height="197.155" rx="4.96552" stroke="#33AE81" stroke-width="1.08"/>
<rect x="712.078" y="333.831" width="216.901" height="197.155" rx="4.96552" fill="#2CAA7C" stroke="#2CAA7C" stroke-width="1.08"/>
<rect x="928.984" y="333.831" width="216.901" height="197.155" rx="4.96552" stroke="#33AE81" stroke-width="1.08"/>
<rect x="-155.523" y="530.986" width="216.901" height="197.155" rx="4.96552" stroke="#33AE81" stroke-width="1.08"/>
<rect x="61.375" y="530.986" width="216.901" height="197.155" rx="4.96552" stroke="#33AE81" stroke-width="1.08"/>
<rect x="278.281" y="530.986" width="216.901" height="197.155" rx="4.96552" stroke="#33AE81" stroke-width="1.08"/>
<rect x="495.18" y="530.986" width="216.901" height="197.155" rx="4.96552" stroke="#33AE81" stroke-width="1.08"/>
<rect x="712.078" y="530.986" width="216.901" height="197.155" rx="4.96552" stroke="#33AE81" stroke-width="1.08"/>
<rect x="928.984" y="530.986" width="216.901" height="197.155" rx="4.96552" stroke="#33AE81" stroke-width="1.08"/>
<rect x="-155.523" y="728.142" width="216.901" height="197.155" rx="4.96552" stroke="#33AE81" stroke-width="1.08"/>
<rect x="61.375" y="728.142" width="216.901" height="197.155" rx="4.96552" fill="#2CAA7C" stroke="#2CAA7C" stroke-width="1.08"/>
<rect x="278.281" y="728.142" width="216.901" height="197.155" rx="4.96552" stroke="#33AE81" stroke-width="1.08"/>
<rect x="495.18" y="728.142" width="216.901" height="197.155" rx="4.96552" stroke="#33AE81" stroke-width="1.08"/>
<rect x="712.078" y="728.142" width="216.901" height="197.155" rx="4.96552" fill="#2CAA7C" stroke="#33AE81" stroke-width="1.08"/>
<rect x="928.984" y="728.142" width="216.901" height="197.155" rx="4.96552" stroke="#33AE81" stroke-width="1.08"/>
<rect x="-155.523" y="925.297" width="216.901" height="197.155" rx="4.96552" stroke="#33AE81" stroke-width="1.08"/>
<rect x="61.375" y="925.297" width="216.901" height="197.155" rx="4.96552" stroke="#33AE81" stroke-width="1.08"/>
<rect x="278.281" y="925.297" width="216.901" height="197.155" rx="4.96552" stroke="#33AE81" stroke-width="1.08"/>
<rect x="495.18" y="925.297" width="216.901" height="197.155" rx="4.96552" stroke="#33AE81" stroke-width="1.08"/>
<rect x="712.078" y="925.297" width="216.901" height="197.155" rx="4.96552" stroke="#33AE81" stroke-width="1.08"/>
<rect x="928.984" y="925.297" width="216.901" height="197.155" rx="4.96552" stroke="#33AE81" stroke-width="1.08"/>
</svg>
