<svg width="32" height="32" viewBox="0 0 32 32" fill="none" xmlns="http://www.w3.org/2000/svg">
<path d="M29.3346 8.75008C29.7488 8.75008 30.0846 8.41429 30.0846 8.00008C30.0846 7.58587 29.7488 7.25008 29.3346 7.25008V8.75008ZM18.668 7.25008C18.2538 7.25008 17.918 7.58587 17.918 8.00008C17.918 8.41429 18.2538 8.75008 18.668 8.75008V7.25008ZM24.7513 2.66675C24.7513 2.25253 24.4155 1.91675 24.0013 1.91675C23.5871 1.91675 23.2513 2.25253 23.2513 2.66675H24.7513ZM23.2513 13.3334C23.2513 13.7476 23.5871 14.0834 24.0013 14.0834C24.4155 14.0834 24.7513 13.7476 24.7513 13.3334H23.2513ZM29.3346 8.00008V7.25008H24.0013V8.00008V8.75008H29.3346V8.00008ZM24.0013 8.00008V7.25008H18.668V8.00008V8.75008H24.0013V8.00008ZM24.0013 2.66675H23.2513V8.00008H24.0013H24.7513V2.66675H24.0013ZM24.0013 8.00008H23.2513V13.3334H24.0013H24.7513V8.00008H24.0013Z" fill="#363B54"/>
<path d="M15.3346 4C9.36351 4 6.37795 4 4.52296 5.85499C2.66797 7.70998 2.66797 10.6955 2.66797 16.6667C2.66797 22.6378 2.66797 25.6234 4.52296 27.4783C6.37795 29.3333 9.36351 29.3333 15.3346 29.3333C21.3058 29.3333 24.2913 29.3333 26.1463 27.4783C28.0013 25.6234 28.0013 22.6378 28.0013 16.6667V16" stroke="#363B54" stroke-width="1.5" stroke-linecap="round"/>
<path d="M2.66797 18.8473C3.49333 18.7275 4.32776 18.6682 5.16359 18.6703C8.69951 18.5956 12.1488 19.6973 14.8961 21.779C17.444 23.7096 19.2343 26.3666 20.0013 29.3334" stroke="#363B54" stroke-width="1.5" stroke-linejoin="round"/>
<path d="M28 22.5284C26.4327 21.7346 24.8117 21.3319 23.1816 21.3336C20.7127 21.3238 18.2687 22.2313 16 24.0002" stroke="#363B54" stroke-width="1.5" stroke-linejoin="round"/>
</svg>
