<svg width="88" height="88" viewBox="0 0 44 44" fill="none" xmlns="http://www.w3.org/2000/svg">
<g clip-path="url(#clip0_22399_14665)">
<path d="M30.2424 0C27.8967 0.162249 25.155 1.66374 23.5572 3.61898C22.0998 5.39272 20.9008 8.0272 21.3683 10.5874C23.9312 10.6672 26.5795 9.12995 28.114 7.14171C29.5495 5.29097 30.6357 2.67298 30.2424 0Z" fill="#444B59"/>
<path d="M39.5129 14.7621C37.2606 11.9378 34.0954 10.2988 31.1062 10.2988C27.16 10.2988 25.4907 12.1881 22.749 12.1881C19.922 12.1881 17.7743 10.3043 14.3615 10.3043C11.0093 10.3043 7.43982 12.3531 5.17658 15.8565C1.99485 20.79 2.53935 30.0657 7.69557 37.9664C9.54081 40.7934 12.0048 43.9724 15.2278 43.9999C18.096 44.0274 18.9045 42.1601 22.7902 42.1409C26.676 42.1189 27.413 44.0246 30.2757 43.9944C33.5014 43.9696 36.1002 40.4469 37.9454 37.6199C39.2681 35.5932 39.7604 34.5729 40.7861 32.285C33.3254 29.4442 32.1292 18.8348 39.5129 14.7621Z" fill="#444B59"/>
</g>
<defs>
<clipPath id="clip0_22399_14665">
<rect width="44" height="44" fill="white"/>
</clipPath>
</defs>
</svg>