<svg width="38" height="38" viewBox="0 0 38 38" fill="none" xmlns="http://www.w3.org/2000/svg">
<path d="M18.6667 3.6665C15.6669 3.6665 12.7347 4.55601 10.2405 6.22254C7.74637 7.88908 5.80242 10.2578 4.6545 13.0291C3.50657 15.8005 3.20622 18.85 3.79142 21.7921C4.37664 24.7341 5.82112 27.4365 7.94222 29.5576C10.0633 31.6788 12.7658 33.1232 15.7079 33.7084C18.6499 34.2936 21.6993 33.9933 24.4707 32.8453C27.242 31.6974 29.6108 29.7534 31.2773 27.2593C32.9439 24.7652 33.8333 21.8329 33.8333 18.8332C33.8256 14.813 32.2252 10.9599 29.3827 8.11724C26.54 5.2746 22.6868 3.67421 18.6667 3.6665ZM25.8855 16.179L17.3396 24.3457C17.1187 24.5534 16.8263 24.6684 16.5229 24.6665C16.3747 24.6686 16.2275 24.6413 16.0897 24.5862C15.9521 24.5313 15.8267 24.4494 15.7208 24.3457L11.4479 20.2624C11.3294 20.1589 11.233 20.0326 11.1646 19.891C11.0961 19.7494 11.057 19.5954 11.0495 19.4384C11.0421 19.2813 11.0665 19.1242 11.1213 18.9768C11.1761 18.8294 11.2601 18.6946 11.3683 18.5805C11.4766 18.4664 11.6068 18.3753 11.7511 18.3128C11.8954 18.2502 12.0509 18.2174 12.2081 18.2166C12.3654 18.2157 12.5213 18.2465 12.6663 18.3074C12.8113 18.3682 12.9425 18.4578 13.0521 18.5706L16.5229 21.881L24.2812 14.4873C24.5081 14.2894 24.8027 14.1869 25.1033 14.201C25.4041 14.2153 25.6876 14.3452 25.8948 14.5637C26.102 14.7821 26.2167 15.0722 26.2149 15.3732C26.2132 15.6742 26.0951 15.963 25.8855 16.179Z" fill="#363B54"/>
</svg>
