<svg width="22" height="22" viewBox="0 0 20 20" fill="none" xmlns="http://www.w3.org/2000/svg">
<path fill-rule="evenodd" clip-rule="evenodd" d="M7.99073 12.6722C11.0649 12.6722 13.6924 13.1381 13.6924 14.9989C13.6924 16.8597 11.0824 17.3389 7.99073 17.3389C4.91573 17.3389 2.28906 16.8772 2.28906 15.0156C2.28906 13.1539 4.89823 12.6722 7.99073 12.6722Z" stroke="currentColor" stroke-width="1.5" stroke-linecap="round" stroke-linejoin="round"/>
<path fill-rule="evenodd" clip-rule="evenodd" d="M7.99094 10.0165C5.9726 10.0165 4.33594 8.38063 4.33594 6.3623C4.33594 4.34396 5.9726 2.70813 7.99094 2.70813C10.0084 2.70813 11.6451 4.34396 11.6451 6.3623C11.6526 8.37313 10.0276 10.009 8.01677 10.0165H7.99094Z" stroke="currentColor" stroke-width="1.5" stroke-linecap="round" stroke-linejoin="round"/>
<path d="M13.7344 9.06802C15.0685 8.88052 16.096 7.73552 16.0985 6.34969C16.0985 4.98385 15.1027 3.85052 13.7969 3.63635" stroke="currentColor" stroke-width="1.5" stroke-linecap="round" stroke-linejoin="round"/>
<path d="M15.4922 12.2769C16.7847 12.4694 17.6872 12.9227 17.6872 13.856C17.6872 14.4985 17.2622 14.9152 16.5755 15.176" stroke="currentColor" stroke-width="1.5" stroke-linecap="round" stroke-linejoin="round"/>
</svg>
