<svg width="80" height="80" viewBox="0 0 80 80" fill="none" xmlns="http://www.w3.org/2000/svg">
<rect x="10" y="10" width="60" height="60" rx="30" fill="#38988A" fill-opacity="0.1"/>
<path d="M51.8047 30.862L45.138 24.1953C45.013 24.0703 44.8438 24 44.6666 24H30.6666C29.1966 24 28 25.1959 28 26.6667V53.3334C28 54.8041 29.1966 56 30.6667 56H49.3334C50.8034 56 52 54.8041 52 53.3333V31.3333C52 31.1562 51.9297 30.987 51.8047 30.862ZM45.3333 26.2761L49.7239 30.6667H46.6666C45.9309 30.6667 45.3333 30.0684 45.3333 29.3334V26.2761ZM50.6667 53.3333C50.6667 54.0683 50.069 54.6666 49.3334 54.6666H30.6667C29.931 54.6666 29.3334 54.0683 29.3334 53.3333V26.6667C29.3334 25.9317 29.9311 25.3334 30.6667 25.3334H44V29.3334C44 30.8041 45.1966 32 46.6667 32H50.6667V53.3333Z" fill="#38988A"/>
<path d="M47.3333 42.6671H32.6667C32.5791 42.6671 32.4924 42.6843 32.4115 42.7177C32.3306 42.7512 32.2571 42.8003 32.1951 42.8623C32.1332 42.9242 32.0841 42.9977 32.0506 43.0786C32.0171 43.1595 31.9999 43.2462 32 43.3338C31.9999 43.4214 32.0171 43.5081 32.0506 43.589C32.0841 43.6699 32.1332 43.7434 32.1951 43.8054C32.2571 43.8673 32.3306 43.9164 32.4115 43.9499C32.4924 43.9833 32.5791 44.0005 32.6667 44.0005H47.3334C47.4209 44.0005 47.5077 43.9833 47.5886 43.9499C47.6695 43.9164 47.743 43.8673 47.8049 43.8054C47.8668 43.7434 47.9159 43.6699 47.9494 43.589C47.9829 43.5081 48.0001 43.4214 48.0001 43.3338C48.0001 43.2462 47.9829 43.1595 47.9494 43.0786C47.9159 42.9977 47.8668 42.9242 47.8049 42.8623C47.7429 42.8004 47.6694 42.7513 47.5885 42.7178C47.5076 42.6843 47.4209 42.6671 47.3333 42.6671ZM47.3333 38.6671H32.6667C32.5791 38.6671 32.4924 38.6843 32.4115 38.7177C32.3306 38.7512 32.2571 38.8003 32.1951 38.8623C32.1332 38.9242 32.0841 38.9977 32.0506 39.0786C32.0171 39.1595 31.9999 39.2462 32 39.3338C31.9999 39.4214 32.0171 39.5081 32.0506 39.589C32.0841 39.6699 32.1332 39.7434 32.1951 39.8054C32.2571 39.8673 32.3306 39.9164 32.4115 39.9499C32.4924 39.9833 32.5791 40.0005 32.6667 40.0005H47.3334C47.4209 40.0005 47.5077 39.9833 47.5886 39.9499C47.6695 39.9164 47.743 39.8673 47.8049 39.8054C47.8668 39.7434 47.9159 39.6699 47.9494 39.589C47.9829 39.5081 48.0001 39.4214 48.0001 39.3338C48.0001 39.2462 47.9829 39.1595 47.9494 39.0786C47.9159 38.9977 47.8668 38.9242 47.8049 38.8623C47.7429 38.8004 47.6694 38.7513 47.5885 38.7178C47.5076 38.6843 47.4209 38.6671 47.3333 38.6671ZM47.3333 46.6671H32.6667C32.5791 46.6671 32.4924 46.6843 32.4115 46.7177C32.3306 46.7512 32.2571 46.8003 32.1951 46.8623C32.1332 46.9242 32.0841 46.9977 32.0506 47.0786C32.0171 47.1595 31.9999 47.2462 32 47.3338C31.9999 47.4214 32.0171 47.5081 32.0506 47.589C32.0841 47.6699 32.1332 47.7434 32.1951 47.8054C32.2571 47.8673 32.3306 47.9164 32.4115 47.9499C32.4924 47.9833 32.5791 48.0005 32.6667 48.0005H47.3334C47.4209 48.0005 47.5077 47.9833 47.5886 47.9499C47.6695 47.9164 47.743 47.8673 47.8049 47.8054C47.8668 47.7434 47.9159 47.6699 47.9494 47.589C47.9829 47.5081 48.0001 47.4214 48.0001 47.3338C48.0001 47.2462 47.9829 47.1595 47.9494 47.0786C47.9159 46.9977 47.8668 46.9242 47.8049 46.8623C47.7429 46.8004 47.6694 46.7512 47.5885 46.7178C47.5076 46.6843 47.4209 46.6671 47.3333 46.6671ZM40.6667 50.6671H32.6667C32.5791 50.6671 32.4924 50.6843 32.4115 50.7177C32.3306 50.7512 32.2571 50.8003 32.1951 50.8623C32.1332 50.9242 32.0841 50.9977 32.0506 51.0786C32.0171 51.1595 31.9999 51.2462 32 51.3338C31.9999 51.4214 32.0171 51.5081 32.0506 51.589C32.0841 51.6699 32.1332 51.7434 32.1951 51.8054C32.2571 51.8673 32.3306 51.9164 32.4115 51.9499C32.4924 51.9833 32.5791 52.0005 32.6667 52.0005H40.6667C40.7543 52.0005 40.841 51.9833 40.9219 51.9499C41.0028 51.9164 41.0763 51.8673 41.1382 51.8054C41.2002 51.7434 41.2493 51.6699 41.2827 51.589C41.3162 51.5081 41.3334 51.4214 41.3334 51.3338C41.3334 51.2462 41.3162 51.1595 41.2827 51.0786C41.2492 50.9977 41.2001 50.9242 41.1382 50.8623C41.0763 50.8004 41.0028 50.7513 40.9219 50.7178C40.841 50.6843 40.7543 50.6671 40.6667 50.6671ZM38.6667 35.3337C38.6666 35.4213 38.6838 35.508 38.7173 35.5889C38.7508 35.6699 38.7999 35.7434 38.8618 35.8053C38.9237 35.8672 38.9973 35.9163 39.0782 35.9498C39.1591 35.9833 39.2458 36.0005 39.3334 36.0004H47.3334C47.4209 36.0005 47.5077 35.9833 47.5886 35.9498C47.6695 35.9163 47.743 35.8672 47.8049 35.8053C47.8668 35.7434 47.9159 35.6699 47.9494 35.5889C47.9829 35.508 48.0001 35.4213 48.0001 35.3337C48.0001 35.2462 47.9829 35.1595 47.9494 35.0785C47.9159 34.9976 47.8668 34.9241 47.8049 34.8622C47.743 34.8003 47.6695 34.7512 47.5886 34.7177C47.5077 34.6842 47.4209 34.667 47.3334 34.6671H39.3334C39.2458 34.667 39.1591 34.6842 39.0782 34.7177C38.9973 34.7512 38.9238 34.8003 38.8619 34.8622C38.7999 34.9241 38.7508 34.9977 38.7174 35.0786C38.6839 35.1595 38.6666 35.2462 38.6667 35.3337ZM34 34.6671H32.6667C32.5791 34.6671 32.4924 34.6843 32.4115 34.7177C32.3306 34.7512 32.2571 34.8003 32.1951 34.8623C32.1332 34.9242 32.0841 34.9977 32.0506 35.0786C32.0171 35.1595 31.9999 35.2462 32 35.3338C31.9999 35.4214 32.0171 35.5081 32.0506 35.589C32.0841 35.6699 32.1332 35.7434 32.1951 35.8054C32.2571 35.8673 32.3306 35.9164 32.4115 35.9499C32.4924 35.9833 32.5791 36.0006 32.6667 36.0005H33.3334C33.3334 36.369 33.6316 36.6672 34.0001 36.6672C34.3686 36.6672 34.6668 36.369 34.6668 36.0005V35.8777C35.441 35.6015 36 34.8684 36 34.0004C36 32.8976 35.1029 32.0004 34 32.0004C33.6328 32.0004 33.3333 31.7016 33.3333 31.3337C33.3333 30.9659 33.6328 30.6671 34 30.6671H35.3333C35.7018 30.6671 36 30.3689 36 30.0004C36 29.6319 35.7018 29.3337 35.3333 29.3337H34.6666C34.6666 28.9652 34.3684 28.667 33.9999 28.667C33.6314 28.667 33.3333 28.9652 33.3333 29.3337V29.4565C32.559 29.7327 32 30.4657 32 31.3337C32 32.4366 32.8971 33.3337 34 33.3337C34.3672 33.3337 34.6667 33.6326 34.6667 34.0004C34.6667 34.3683 34.3672 34.6671 34 34.6671Z" fill="#38988A"/>
</svg>
