<svg width="56" height="56" viewBox="0 0 56 56" fill="none" xmlns="http://www.w3.org/2000/svg">
<path d="M34.3339 4.85437H13.8818C12.6764 4.85437 11.5204 5.33321 10.6681 6.18554C9.81575 7.03788 9.33691 8.19389 9.33691 9.39928V45.7585C9.33691 46.9639 9.81575 48.1199 10.6681 48.9723C11.5204 49.8246 12.6764 50.3034 13.8818 50.3034H41.1513C42.3567 50.3034 43.5127 49.8246 44.365 48.9723C45.2173 48.1199 45.6962 46.9639 45.6962 45.7585V16.2166L34.3339 4.85437Z" stroke="#38988A" stroke-width="4.54491" stroke-linecap="round" stroke-linejoin="round"/>
<path d="M32.0635 4.85437V13.9442C32.0635 15.1496 32.5423 16.3056 33.3947 17.1579C34.247 18.0103 35.403 18.4891 36.6084 18.4891H45.6982" stroke="#38988A" stroke-width="4.54491" stroke-linecap="round" stroke-linejoin="round"/>
<path d="M22.9756 20.7606H18.4307" stroke="#38988A" stroke-width="4.54491" stroke-linecap="round" stroke-linejoin="round"/>
<path d="M36.6103 29.8505H18.4307" stroke="#38988A" stroke-width="4.54491" stroke-linecap="round" stroke-linejoin="round"/>
<path d="M36.6103 38.9414H18.4307" stroke="#38988A" stroke-width="4.54491" stroke-linecap="round" stroke-linejoin="round"/>
</svg>
