<svg width="21" height="20" viewBox="0 0 21 20" fill="none" xmlns="http://www.w3.org/2000/svg">
<path fill-rule="evenodd" clip-rule="evenodd" d="M11.1448 12.514H11.0984V12.866C11.0984 13.1972 10.8296 13.466 10.4984 13.466C10.1672 13.466 9.89844 13.1972 9.89844 12.866V12.514H9.04484C8.71364 12.514 8.44484 12.2452 8.44484 11.914C8.44484 11.5828 8.71364 11.314 9.04484 11.314H11.1448C11.4376 11.314 11.676 11.0772 11.676 10.786C11.676 10.4948 11.4376 10.258 11.1448 10.258H9.85284C8.89764 10.258 8.12164 9.47885 8.12164 8.52205C8.12164 7.56845 8.89764 6.79405 9.85284 6.79405H9.89844V6.44205C9.89844 6.11085 10.1672 5.84205 10.4984 5.84205C10.8296 5.84205 11.0984 6.11085 11.0984 6.44205V6.79405H11.9528C12.284 6.79405 12.5528 7.06285 12.5528 7.39405C12.5528 7.72525 12.284 7.99405 11.9528 7.99405H9.85284C9.56004 7.99405 9.32164 8.23085 9.32164 8.52205C9.32164 8.81725 9.56004 9.05805 9.85284 9.05805H11.1448C12.0992 9.05805 12.876 9.83245 12.876 10.786C12.876 11.7388 12.0992 12.514 11.1448 12.514ZM10.4984 2.05005C6.30804 2.05005 2.89844 5.45965 2.89844 9.65005C2.89844 13.8404 6.30804 17.25 10.4984 17.25C14.6888 17.25 18.0984 13.8404 18.0984 9.65005C18.0984 5.45965 14.6888 2.05005 10.4984 2.05005Z" fill="#8C62FF"/>
</svg>
