<svg width="20" height="20" viewBox="0 0 20 20" fill="none" xmlns="http://www.w3.org/2000/svg">
<path fill-rule="evenodd" clip-rule="evenodd" d="M7.49989 9.94795C7.49989 9.61675 7.76869 9.34795 8.09989 9.34795H9.87267C10.0679 9.34795 10.2271 9.19035 10.2271 8.99595C10.2271 8.80075 10.0679 8.64315 9.87267 8.64315H8.78227C7.92389 8.64315 7.22629 7.94393 7.22629 7.08473C7.22629 6.24713 7.89509 5.56713 8.72707 5.53753V5.32873C8.72707 4.99753 8.99587 4.72873 9.32707 4.72873C9.65827 4.72873 9.92707 4.99753 9.92707 5.32873V5.53193H10.5543C10.8855 5.53193 11.1543 5.80073 11.1543 6.13193C11.1543 6.46393 10.8855 6.73193 10.5543 6.73193H8.78227C8.58547 6.73193 8.42627 6.89033 8.42627 7.08473C8.42627 7.28233 8.58547 7.44313 8.78227 7.44313H9.87267C10.7295 7.44313 11.4271 8.13915 11.4271 8.99595C11.4271 9.83355 10.7583 10.5128 9.92707 10.5424V10.752C9.92707 11.0831 9.65827 11.352 9.32707 11.352C8.99587 11.352 8.72707 11.0831 8.72707 10.752V10.548H8.09989C7.76869 10.548 7.49989 10.2792 7.49989 9.94795ZM10.3647 12.3288L12.9106 13.0872C13.0173 13.1191 13.1319 13.0733 13.1872 12.9767L13.2151 12.9283C13.2708 12.8312 13.2504 12.7096 13.1772 12.6249C13.0321 12.4569 12.9187 12.2576 12.8535 12.0304C12.6111 11.18 13.1031 10.2944 13.9519 10.052L15.6615 9.56395C15.6671 9.56235 15.6719 9.56235 15.6775 9.56075C15.7463 9.54155 15.8183 9.53275 15.8903 9.52315C15.9215 9.51915 15.9527 9.50875 15.9839 9.50715C16.0896 9.49875 16.1964 9.50131 16.3028 9.51483C16.4537 9.53395 16.6052 9.43635 16.6151 9.28459C16.6244 9.14003 16.6295 8.99411 16.6295 8.84715C16.6295 5.03513 13.5287 1.93433 9.71667 1.93433C5.90549 1.93433 2.80469 5.03513 2.80469 8.84715C2.80469 11.6823 4.52208 14.1193 6.96996 15.1846C7.07678 15.2311 7.20069 15.1901 7.26213 15.0912L8.54867 13.0184C8.93027 12.4056 9.67427 12.1272 10.3647 12.3288Z" fill="#0CAF60"/>
<path fill-rule="evenodd" clip-rule="evenodd" d="M17.1721 12.6394L16.6865 10.9546C16.6657 10.873 16.6273 10.797 16.5745 10.7298C16.5481 10.6962 16.5129 10.6746 16.4809 10.6474C16.4545 10.6258 16.4345 10.5986 16.4041 10.581C16.4025 10.5802 16.4017 10.5802 16.4001 10.5794C16.3097 10.5282 16.2057 10.5106 16.0985 10.5122C16.0465 10.513 15.9945 10.5114 15.9457 10.525C15.9433 10.5258 15.9417 10.525 15.9393 10.525L14.2297 11.0138C13.9113 11.1042 13.7265 11.4362 13.8185 11.7554C13.9089 12.0722 14.2361 12.265 14.5593 12.1666L14.8537 12.0826L13.5697 14.3266L10.0817 13.2874C9.82493 13.2106 9.54333 13.3162 9.40013 13.5458L7.59771 16.4498C7.42331 16.7306 7.51051 17.101 7.79132 17.2762C7.88971 17.337 7.99931 17.3658 8.10731 17.3658C8.30811 17.3658 8.50413 17.265 8.61853 17.0826L10.1785 14.5682L13.6833 15.613C13.9465 15.693 14.2361 15.5778 14.3753 15.3354L15.9217 12.6338L16.0193 12.9722C16.0945 13.2346 16.3345 13.4058 16.5953 13.4058C16.6505 13.4058 16.7065 13.3978 16.7617 13.3826C17.0801 13.2898 17.2633 12.9578 17.1721 12.6394Z" fill="#0CAF60"/>
</svg>
