<svg width="21" height="21" viewBox="0 0 21 21" fill="none" xmlns="http://www.w3.org/2000/svg">
<g clip-path="url(#clip0_22392_15600)">
<path d="M18.5781 3.46875H2.09375C1.12254 3.46875 0.335938 4.26023 0.335938 5.22656V15.7734C0.335938 16.7455 1.12832 17.5312 2.09375 17.5312H18.5781C19.5412 17.5312 20.3359 16.7488 20.3359 15.7734V5.22656C20.3359 4.26195 19.5525 3.46875 18.5781 3.46875ZM18.332 4.64062L11.5789 11.3581C11.2469 11.6901 10.8055 11.8729 10.3359 11.8729C9.86641 11.8729 9.425 11.6901 9.09188 11.357L2.33992 4.64062H18.332ZM1.50781 15.5349V5.46582L6.5718 10.5031L1.50781 15.5349ZM2.34066 16.3594L7.40266 11.3296L8.26434 12.1867C8.8177 12.7401 9.5534 13.0448 10.3359 13.0448C11.1185 13.0448 11.8542 12.7401 12.4064 12.1878L13.2692 11.3296L18.3312 16.3594H2.34066ZM19.1641 15.5349L14.1001 10.5031L19.1641 5.46582V15.5349Z" fill="white"/>
</g>
<defs>
<clipPath id="clip0_22392_15600">
<rect width="20" height="20" fill="white" transform="translate(0.335938 0.5)"/>
</clipPath>
</defs>
</svg>
