<svg width="20" height="20" viewBox="0 0 20 20" fill="currentColor" xmlns="http://www.w3.org/2000/svg">
<path d="M16.2526 7.49998C16.1421 7.49998 16.0361 7.45608 15.958 7.37794C15.8798 7.2998 15.8359 7.19382 15.8359 7.08331V5.83331H12.9193C12.8088 5.83331 12.7028 5.78941 12.6246 5.71127C12.5465 5.63313 12.5026 5.52715 12.5026 5.41664V2.49998H5.41927C5.08775 2.49998 4.76981 2.63167 4.53539 2.86609C4.30097 3.10051 4.16927 3.41846 4.16927 3.74998V16.25C4.16927 16.5815 4.30097 16.8994 4.53539 17.1339C4.76981 17.3683 5.08775 17.5 5.41927 17.5H14.5859C14.9175 17.5 15.2354 17.3683 15.4698 17.1339C15.7042 16.8994 15.8359 16.5815 15.8359 16.25V14.5833C15.8359 14.4728 15.8798 14.3668 15.958 14.2887C16.0361 14.2105 16.1421 14.1666 16.2526 14.1666C16.3631 14.1666 16.4691 14.2105 16.5472 14.2887C16.6254 14.3668 16.6693 14.4728 16.6693 14.5833V16.25C16.6693 16.8025 16.4498 17.3324 16.0591 17.7231C15.6684 18.1138 15.1385 18.3333 14.5859 18.3333H5.41927C4.86674 18.3333 4.33683 18.1138 3.94613 17.7231C3.55543 17.3324 3.33594 16.8025 3.33594 16.25V3.74998C3.33594 3.19744 3.55543 2.66754 3.94613 2.27684C4.33683 1.88614 4.86674 1.66664 5.41927 1.66664H12.8959C12.9546 1.6628 13.0135 1.67168 13.0684 1.69268C13.1233 1.71368 13.1731 1.7463 13.2143 1.78831L16.5476 5.12164C16.5896 5.16281 16.6222 5.21257 16.6432 5.26751C16.6642 5.32245 16.6731 5.38128 16.6693 5.43998V7.08331C16.6693 7.19382 16.6254 7.2998 16.5472 7.37794C16.4691 7.45608 16.3631 7.49998 16.2526 7.49998ZM15.2468 10.8333H8.74094C8.63043 10.8333 8.52445 10.7894 8.44631 10.7113C8.36817 10.6331 8.32427 10.5272 8.32427 10.4166C8.32427 10.3061 8.36817 10.2002 8.44631 10.122C8.52445 10.0439 8.63043 9.99998 8.74094 9.99998H15.2468L13.4576 8.21164C13.3794 8.13341 13.3354 8.02729 13.3354 7.91664C13.3354 7.806 13.3794 7.69988 13.4576 7.62164C13.5358 7.54341 13.642 7.49945 13.7526 7.49945C13.8633 7.49945 13.9694 7.54341 14.0476 7.62164L16.5476 10.1216C16.5864 10.1603 16.6172 10.2063 16.6382 10.257C16.6592 10.3076 16.67 10.3618 16.67 10.4166C16.67 10.4715 16.6592 10.5257 16.6382 10.5763C16.6172 10.627 16.5864 10.6729 16.5476 10.7116L14.0476 13.2116C13.9695 13.2899 13.8635 13.3339 13.7529 13.334C13.6423 13.334 13.5363 13.2902 13.458 13.2121C13.3798 13.1339 13.3358 13.0279 13.3357 12.9174C13.3356 12.8068 13.3795 12.7007 13.4576 12.6225L15.2468 10.8333ZM13.3359 3.08914V4.99998H15.2468L13.3359 3.08914Z" fill="currentColor"/>
</svg>
