<svg width="120" height="120" viewBox="0 0 120 120" fill="none" xmlns="http://www.w3.org/2000/svg">
<path d="M13.5234 3.77027H86.361C91.7753 3.77027 96.1266 8.12862 96.1266 13.5429V80.7608C96.1266 86.175 91.7753 90.5263 86.361 90.5263H13.5234C12.2404 90.5282 10.9697 90.2768 9.78405 89.7868C8.5984 89.2966 7.52111 88.5774 6.61392 87.6702C5.70674 86.763 4.98748 85.6857 4.49738 84.5001C4.00728 83.3144 3.75596 82.0437 3.75782 80.7608V13.5358C3.75782 8.12154 8.11618 3.77027 13.5234 3.77027Z" fill="#FFAB61"/>
<path d="M38.125 3.77734V20.9485C38.125 23.4856 40.1802 25.5337 42.7172 25.5337H55.4096C56.0126 25.5355 56.61 25.4183 57.1675 25.1886C57.7251 24.9589 58.2317 24.6214 58.6584 24.1953C59.0851 23.7693 59.4235 23.2631 59.654 22.7059C59.8846 22.1488 60.0027 21.5515 60.0018 20.9485V3.77734H38.125Z" fill="#D1DCFF"/>
<path d="M18.5591 59.9971C16.0575 59.9971 16.2417 63.8735 18.7363 63.7531H25.5395C28.0341 63.7531 28.0341 59.9971 25.5395 59.9971H18.5591ZM18.5733 71.3217C16.0716 71.3217 16.0716 75.0777 18.5733 75.0777H32.1657C34.6673 75.0777 34.6673 71.3217 32.1657 71.3217H18.5733ZM4.03125 83.029C4.53642 85.1667 5.74951 87.0707 7.47347 88.4319C9.19743 89.7931 11.331 90.5313 13.5275 90.5268H42.6895C47.799 90.6402 47.799 82.9156 42.6895 83.029H4.03125Z" fill="#FF8F64"/>
<path d="M60.9844 96.2524C60.9844 98.4493 62.7561 100.214 64.9459 100.214H86.6455V111.482C86.6455 115.854 92.2441 118.186 96.2268 114.154L113.859 95.7493C116.353 93.2831 117.615 89.0806 113.873 85.4522L96.2268 66.97C92.0173 62.9801 86.6455 65.2692 86.6455 69.6488V80.9167H64.9459C62.749 80.9167 60.9844 82.6813 60.9844 84.8711V96.2524Z" fill="#55A1FF"/>
<path d="M70.0185 94.3179C69.3338 94.3199 68.6626 94.509 68.0776 94.8648C67.4926 95.2206 67.016 95.7296 66.6993 96.3367C66.3826 96.9438 66.2379 97.6259 66.2808 98.3093C66.3238 98.9927 66.5527 99.6514 66.9429 100.214H86.4598C86.8496 99.6518 87.0785 98.9939 87.1217 98.3111C87.1649 97.6283 87.0208 96.9467 86.705 96.3398C86.3892 95.733 85.9136 95.2239 85.3296 94.8675C84.7456 94.5112 84.0753 94.3211 83.3912 94.3179H70.0185Z" fill="#488BFF"/>
</svg>
