<svg width="76" height="76" viewBox="0 0 38 38" fill="none" xmlns="http://www.w3.org/2000/svg">
<g clip-path="url(#clip0_22399_14659)">
<path d="M8.4216 22.9635L7.09888 27.9014L2.26434 28.0037C0.819524 25.3239 0 22.2578 0 18.9996C0 15.849 0.766235 12.8779 2.12444 10.2617H2.12548L6.42957 11.0508L8.31502 15.3291C7.9204 16.4795 7.70532 17.7145 7.70532 18.9996C7.70547 20.3944 7.95811 21.7307 8.4216 22.9635Z" fill="#FBBB00"/>
<path d="M37.6722 15.4502C37.8904 16.5995 38.0042 17.7865 38.0042 18.9996C38.0042 20.3599 37.8612 21.6868 37.5887 22.9667C36.6638 27.3221 34.247 31.1252 30.8991 33.8165L30.898 33.8155L25.4768 33.5389L24.7095 28.7492C26.931 27.4463 28.6672 25.4075 29.5817 22.9667H19.4219V15.4502H29.7299H37.6722Z" fill="#518EF8"/>
<path d="M30.8951 33.8158L30.8961 33.8168C27.6401 36.434 23.5038 37.9999 19.0013 37.9999C11.7656 37.9999 5.47477 33.9557 2.26562 28.0041L8.42289 22.9639C10.0274 27.2461 14.1584 30.2945 19.0013 30.2945C21.0829 30.2945 23.0331 29.7318 24.7065 28.7494L30.8951 33.8158Z" fill="#28B446"/>
<path d="M31.1282 4.37416L24.973 9.41331C23.2411 8.33076 21.1939 7.70539 19.0006 7.70539C14.048 7.70539 9.83982 10.8936 8.31566 15.3294L2.12604 10.2621H2.125C5.28716 4.16538 11.6574 0 19.0006 0C23.6107 0 27.8376 1.64216 31.1282 4.37416Z" fill="#F14336"/>
</g>
<defs>
<clipPath id="clip0_22399_14659">
<rect width="38" height="38" fill="white"/>
</clipPath>
</defs>
</svg>