<svg width="20" height="20" viewBox="0 0 20 20" fill="none" xmlns="http://www.w3.org/2000/svg">
<path d="M6.97434 4.271V7.71688V14.3059C6.97434 15.4571 6.04185 16.3896 4.89062 16.3896H14.6009C16.2682 16.3896 17.1929 15.2664 17.1929 13.452L17.1999 4.271C17.1999 3.60705 16.5647 3.17583 16.0137 3.45838L15.4914 3.73392C15.18 3.8966 14.8204 3.90361 14.495 3.76195L13.0192 3.10499C12.4191 2.84423 11.7551 2.84423 11.155 3.10499L9.6792 3.76195C9.35384 3.90361 8.99344 3.8966 8.68288 3.73392L8.16059 3.45838C7.6095 3.17583 6.97434 3.61405 6.97434 4.271Z" stroke="#363B54" stroke-width="1.44" stroke-linecap="round" stroke-linejoin="round"/>
<path d="M13.1689 7.75159H11.4035C10.8789 7.75159 10.4531 8.17739 10.4531 8.70203C10.4531 9.22739 10.8789 9.65243 11.4035 9.65243H12.4901C13.0147 9.65243 13.4405 10.0782 13.4405 10.6035C13.4405 11.1282 13.0147 11.5539 12.4901 11.5539H10.7247" stroke="#363B54" stroke-width="1.44" stroke-linecap="round" stroke-linejoin="round"/>
<path d="M11.9492 11.5534V12.3512M11.9492 6.94849V7.75333" stroke="#363B54" stroke-width="1.44" stroke-linecap="round" stroke-linejoin="round"/>
<path d="M4.89151 16.3894C4.31239 16.3894 3.7901 16.1566 3.4157 15.7822C3.03429 15.4008 2.80078 14.8778 2.80078 14.3056V8.50752C2.80078 7.84354 3.43672 7.41309 3.98781 7.69564L4.5101 7.97118C4.82068 8.13384 5.18106 8.14088 5.50565 7.99921L6.50197 7.55475C6.57903 7.51895 6.77752 7.6108 6.97522 7.71666" stroke="#363B54" stroke-width="1.44" stroke-linecap="round" stroke-linejoin="round"/>
</svg>
