<svg width="20" height="20" viewBox="0 0 20 20" fill="none" xmlns="http://www.w3.org/2000/svg">
<g clip-path="url(#clip0_22454_9384)">
<path d="M4.97434 2.27173V5.71761V12.3066C4.97434 13.4578 4.04185 14.3903 2.89062 14.3903H12.6009C14.2682 14.3903 15.1929 13.2671 15.1929 11.4527L15.1999 2.27173C15.1999 1.60778 14.5647 1.17656 14.0137 1.45911L13.4914 1.73465C13.18 1.89733 12.8204 1.90434 12.495 1.76268L11.0192 1.10573C10.4191 0.844966 9.75512 0.844966 9.15504 1.10573L7.6792 1.76268C7.35384 1.90434 6.99344 1.89733 6.68288 1.73465L6.16059 1.45911C5.6095 1.17656 4.97434 1.61478 4.97434 2.27173Z" stroke="currentColor" stroke-linecap="round" stroke-linejoin="round"/>
<path d="M11.1689 5.75391H9.40352C8.87888 5.75391 8.45312 6.17971 8.45312 6.70435C8.45312 7.22971 8.87888 7.65475 9.40352 7.65475H10.4901C11.0147 7.65475 11.4405 8.08051 11.4405 8.60587C11.4405 9.13051 11.0147 9.55627 10.4901 9.55627H8.72472" stroke="currentColor" stroke-linecap="round" stroke-linejoin="round"/>
<path d="M9.94922 9.55414V10.352M9.94922 4.94922V5.75406" stroke="currentColor" stroke-linecap="round" stroke-linejoin="round"/>
<path d="M2.89151 14.3894C2.31239 14.3894 1.7901 14.1566 1.4157 13.7822C1.03429 13.4008 0.800781 12.8778 0.800781 12.3056V6.50752C0.800781 5.84354 1.43672 5.41309 1.98781 5.69564L2.5101 5.97118C2.82068 6.13384 3.18106 6.14088 3.50565 5.99921L4.50197 5.55475C4.57903 5.51895 4.77752 5.6108 4.97522 5.71666" stroke="currentColor" stroke-linecap="round" stroke-linejoin="round"/>
<path fill-rule="evenodd" clip-rule="evenodd" d="M15.376 12.4062C14.6036 12.4287 13.8703 12.7513 13.3318 13.3056C12.7934 13.8599 12.4922 14.6022 12.4922 15.375C12.4922 16.1478 12.7934 16.8901 13.3318 17.4444C13.8703 17.9987 14.6036 18.3213 15.376 18.3438C17.0144 18.3438 18.3452 17.0129 18.3452 15.3746C18.3452 13.7362 17.0144 12.4062 15.376 12.4062ZM15.376 13.6562C16.3244 13.6562 17.0952 14.4262 17.0952 15.3746C17.0952 16.3229 16.3244 17.0938 15.376 17.0938C14.4277 17.0938 13.6569 16.3229 13.6569 15.3746C13.6569 14.4262 14.4277 13.6562 15.376 13.6562Z" fill="currentColor"/>
<path fill-rule="evenodd" clip-rule="evenodd" d="M16 13.0308V11.625C16 11.4592 15.9342 11.3003 15.8169 11.1831C15.6997 11.0658 15.5408 11 15.375 11C15.2092 11 15.0503 11.0658 14.9331 11.1831C14.8158 11.3003 14.75 11.4592 14.75 11.625V13.0317C14.7501 13.1974 14.8161 13.3564 14.9334 13.4735C15.0506 13.5906 15.2097 13.6564 15.3754 13.6562C15.5412 13.6561 15.7001 13.5902 15.8172 13.4729C15.9344 13.3556 16.0001 13.1966 16 13.0308ZM17.4742 14.16L18.4683 13.165C18.5855 13.0479 18.6513 12.889 18.6513 12.7233C18.6513 12.5577 18.5855 12.3988 18.4683 12.2817C18.3512 12.1645 18.1923 12.0987 18.0267 12.0987C17.861 12.0987 17.7021 12.1645 17.585 12.2817L16.59 13.2758C16.4731 13.3933 16.4075 13.5522 16.4075 13.7179C16.4075 13.8836 16.4731 14.0426 16.59 14.16C16.7074 14.2769 16.8664 14.3425 17.0321 14.3425C17.1978 14.3425 17.3567 14.2769 17.4742 14.16ZM17.7183 16H19.125C19.2908 16 19.4497 15.9342 19.5669 15.8169C19.6842 15.6997 19.75 15.5408 19.75 15.375C19.75 15.2092 19.6842 15.0503 19.5669 14.9331C19.4497 14.8158 19.2908 14.75 19.125 14.75H17.7183C17.5526 14.75 17.3936 14.8158 17.2764 14.9331C17.1592 15.0503 17.0933 15.2092 17.0933 15.375C17.0933 15.5408 17.1592 15.6997 17.2764 15.8169C17.3936 15.9342 17.5526 16 17.7183 16ZM16.59 17.4742L17.585 18.4683C17.643 18.5263 17.7119 18.5723 17.7876 18.6037C17.8634 18.6351 17.9446 18.6513 18.0267 18.6513C18.1087 18.6513 18.1899 18.6351 18.2657 18.6037C18.3415 18.5723 18.4103 18.5263 18.4683 18.4683C18.5263 18.4103 18.5723 18.3415 18.6037 18.2657C18.6351 18.1899 18.6513 18.1087 18.6513 18.0267C18.6513 17.9446 18.6351 17.8634 18.6037 17.7876C18.5723 17.7119 18.5263 17.643 18.4683 17.585L17.4742 16.59C17.3567 16.4731 17.1978 16.4075 17.0321 16.4075C16.8664 16.4075 16.7074 16.4731 16.59 16.59C16.4731 16.7074 16.4075 16.8664 16.4075 17.0321C16.4075 17.1978 16.4731 17.3567 16.59 17.4742ZM14.75 17.7183V19.125C14.75 19.2908 14.8158 19.4497 14.9331 19.5669C15.0503 19.6842 15.2092 19.75 15.375 19.75C15.5408 19.75 15.6997 19.6842 15.8169 19.5669C15.9342 19.4497 16 19.2908 16 19.125V17.7183C16 17.5526 15.9342 17.3936 15.8169 17.2764C15.6997 17.1592 15.5408 17.0933 15.375 17.0933C15.2092 17.0933 15.0503 17.1592 14.9331 17.2764C14.8158 17.3936 14.75 17.5526 14.75 17.7183ZM13.2758 16.59L12.2817 17.585C12.2237 17.643 12.1777 17.7119 12.1463 17.7876C12.1149 17.8634 12.0987 17.9446 12.0987 18.0267C12.0987 18.1087 12.1149 18.1899 12.1463 18.2657C12.1777 18.3415 12.2237 18.4103 12.2817 18.4683C12.3397 18.5263 12.4085 18.5723 12.4843 18.6037C12.5601 18.6351 12.6413 18.6513 12.7233 18.6513C12.8054 18.6513 12.8866 12.6351 12.9624 18.6037C13.0381 18.5723 13.107 18.5263 13.165 18.4683L14.16 17.4742C14.2769 17.3567 14.3425 17.1978 14.3425 17.0321C14.3425 16.8664 14.2769 16.7074 14.16 16.59C14.0426 16.4731 13.8836 16.4075 13.7179 16.4075C13.5522 16.4075 13.3933 16.4731 13.2758 16.59ZM13.0308 14.75H11.625C11.4592 14.75 11.3003 14.8158 11.1831 14.9331C11.0658 15.0503 11 15.2092 11 15.375C11 15.5408 11.0658 15.6997 11.1831 15.8169C11.3003 15.9342 11.4592 16 11.625 16H13.0308C13.1966 16 13.3556 15.9342 13.4728 15.8169C13.59 15.6997 13.6558 15.5408 13.6558 15.375C13.6558 15.2092 13.59 15.0503 13.4728 14.9331C13.3556 14.8158 13.1966 14.75 13.0308 14.75ZM14.16 13.2758L13.165 12.2817C13.107 12.2237 13.0381 12.1777 12.9624 12.1463C12.8866 12.1149 12.8054 12.0987 12.7233 12.0987C12.6413 12.0987 12.5601 12.1149 12.4843 12.1463C12.4085 12.1777 12.3397 12.2237 12.2817 12.2817C12.2237 12.3397 12.1777 12.4085 12.1463 12.4843C12.1149 12.5601 12.0987 12.6413 12.0987 12.7233C12.0987 12.8054 12.1149 12.8866 12.1463 12.9624C12.1777 13.0381 12.2237 13.107 12.2817 13.165L13.2758 14.16C13.3933 14.2769 13.5522 14.3425 13.7179 14.3425C13.8836 14.3425 14.0426 14.2769 14.16 14.16C14.2769 14.0426 14.3425 13.8836 14.3425 13.7179C14.3425 13.5522 14.2769 13.3933 14.16 13.2758Z" fill="currentColor"/>
</g>
<defs>
<clipPath id="clip0_22454_9384">
<rect width="20" height="20" fill="none"/>
</clipPath>
</defs>
</svg>
