<svg width="80" height="81" viewBox="0 0 80 81" fill="none" xmlns="http://www.w3.org/2000/svg">
<rect x="10" y="10.5" width="60" height="60" rx="30" fill="#38988A" fill-opacity="0.1"/>
<g clip-path="url(#clip0_22399_15773)">
<path d="M40.0015 33.833C40.4435 33.833 40.8674 34.0086 41.18 34.3212C41.4925 34.6337 41.6681 35.0576 41.6681 35.4997C41.6681 35.9417 41.4925 36.3656 41.18 36.6782C40.8674 36.9907 40.4435 37.1663 40.0015 37.1663C39.5594 37.1663 39.1355 36.9907 38.8229 36.6782C38.5104 36.3656 38.3348 35.9417 38.3348 35.4997C38.3348 35.0576 38.5104 34.6337 38.8229 34.3212C39.1355 34.0086 39.5594 33.833 40.0015 33.833ZM37.3348 29.8677C37.6884 29.8677 38.0275 29.7272 38.2776 29.4771C38.5276 29.2271 38.6681 28.888 38.6681 28.5343C38.6681 28.1117 38.8695 27.7037 39.2081 27.4423C39.4028 27.2943 39.8148 27.0663 40.3828 27.2143C40.8281 27.3303 41.2068 27.7343 41.3015 28.1957C41.3658 28.4833 41.334 28.7841 41.2109 29.0519C41.0878 29.3198 40.8803 29.5398 40.6201 29.6783C39.9855 30.0117 39.1975 30.4277 38.8028 31.2343C38.4788 31.8957 38.7348 32.725 39.3961 33.0477C39.5921 33.1437 39.7988 33.189 40.0015 33.189C40.2433 33.1905 40.4807 33.1233 40.686 32.9954C40.8913 32.8675 41.0561 32.6841 41.1615 32.4663C41.2575 32.3557 41.6361 32.157 41.8628 32.037C42.638 31.6318 43.2585 30.9831 43.629 30.1908C43.9995 29.3985 44.0995 28.5063 43.9135 27.6517C43.7624 26.9345 43.4159 26.2731 42.9124 25.7406C42.4088 25.208 41.7677 24.8252 41.0601 24.6343C40.4654 24.4743 39.8418 24.4539 39.2379 24.5746C38.6341 24.6954 38.0662 24.954 37.5788 25.3303C37.0898 25.7093 36.6935 26.1946 36.42 26.7495C36.1464 27.3044 36.0029 27.9143 36.0001 28.533C36.0001 28.8866 36.1406 29.2258 36.3906 29.4758C36.6407 29.7259 36.9798 29.8663 37.3335 29.8663L37.3348 29.8677ZM30.3521 36.0997C29.9573 36.28 29.6484 36.6072 29.4911 37.0118C29.3338 37.4163 29.3406 37.8663 29.5099 38.2659C29.6793 38.6656 29.9979 38.9834 30.3979 39.1518C30.798 39.3202 31.2479 39.3259 31.6521 39.1677C32.0469 38.9873 32.3558 38.6601 32.5131 38.2555C32.6704 37.851 32.6636 37.401 32.4943 37.0014C32.3249 36.6017 32.0064 36.2839 31.6063 36.1155C31.2063 35.9471 30.7563 35.9414 30.3521 36.0997ZM48.3148 39.0557C48.719 39.2139 49.1689 39.2082 49.569 39.0398C49.969 38.8714 50.2876 38.5536 50.457 38.1539C50.6263 37.7543 50.6331 37.3043 50.4758 36.8998C50.3185 36.4952 50.0096 36.168 49.6148 35.9877C49.2106 35.8294 48.7606 35.8351 48.3606 36.0035C47.9605 36.1719 47.642 36.4897 47.4726 36.8894C47.3033 37.289 47.2965 37.739 47.4538 38.1435C47.6111 38.5481 47.92 38.8753 48.3148 39.0557ZM54.4841 28.0103C53.999 27.6313 53.4329 27.3694 52.83 27.245C52.2271 27.1206 51.6036 27.137 51.0081 27.293C50.4097 27.4509 49.8552 27.7431 49.3867 28.1474C48.9181 28.5517 48.5479 29.0575 48.3041 29.6263C48.1662 29.952 48.1633 30.3192 48.2961 30.647C48.4289 30.9748 48.6864 31.2364 49.0121 31.3743C49.3378 31.5122 49.7049 31.5151 50.0328 31.3824C50.3606 31.2496 50.6222 30.992 50.7601 30.6663C50.9255 30.277 51.2695 29.981 51.6828 29.8717C51.884 29.8185 52.0949 29.8133 52.2985 29.8566C52.5021 29.8999 52.6926 29.9905 52.8548 30.121C53.038 30.2707 53.1776 30.4669 53.259 30.689C53.3404 30.9111 53.3606 31.1511 53.3175 31.3837C53.2644 31.6734 53.1177 31.9378 52.9 32.1362C52.6823 32.3347 52.4055 32.4562 52.1121 32.4823C51.5828 32.5263 50.8961 32.629 50.2748 33.0317C49.9781 33.2244 49.7701 33.5271 49.6966 33.8731C49.6231 34.2192 49.6901 34.5803 49.8828 34.877C50.0755 35.1737 50.3782 35.3817 50.7243 35.4552C51.0703 35.5287 51.4314 35.4617 51.7281 35.269C51.7695 35.241 51.9108 35.1757 52.3361 35.1397C53.2077 35.0687 54.032 34.7135 54.6821 34.1287C55.3322 33.5438 55.7724 32.7616 55.9348 31.9023C56.0763 31.183 56.0158 30.4386 55.76 29.7516C55.5041 29.0646 55.063 28.4619 54.4855 28.0103H54.4841ZM52.0015 47.1663C52.0015 50.1077 49.6095 52.4997 46.6681 52.4997H40.0015V55.1663C40.0015 55.52 39.861 55.8591 39.6109 56.1091C39.3609 56.3592 39.0217 56.4997 38.6681 56.4997C38.3145 56.4997 37.9754 56.3592 37.7253 56.1091C37.4753 55.8591 37.3348 55.52 37.3348 55.1663V53.341C36.8371 53.9133 36.2226 54.3723 35.5326 54.6872C34.8426 55.002 34.0932 55.1654 33.3348 55.1663C30.3935 55.1663 28.0015 52.7743 28.0015 49.833C28.0015 47.9103 29.0428 46.1663 30.6748 45.229C30.7434 43.999 31.2628 42.8374 32.1337 41.9662C33.0047 41.095 34.1661 40.5753 35.3961 40.5063C35.8608 39.695 36.5312 39.0207 37.3398 38.5513C38.1484 38.0819 39.0665 37.8341 40.0015 37.833C41.6268 37.833 43.1588 38.593 44.1628 39.857C44.8764 39.9278 45.5661 40.1526 46.1844 40.5158C46.8027 40.8791 47.3349 41.3721 47.7441 41.961C50.1828 42.4623 52.0015 44.6237 52.0015 47.1663ZM49.3348 47.1663C49.3308 46.4923 49.0714 45.8448 48.609 45.3544C48.1466 44.864 47.5154 44.5672 46.8428 44.5237C46.6113 44.5085 46.3877 44.433 46.1943 44.3049C46.0009 44.1767 45.8444 44.0003 45.7401 43.793C45.5492 43.4061 45.2541 43.0801 44.8881 42.8516C44.5221 42.6231 44.0996 42.5012 43.6681 42.4997C43.4013 42.5453 43.127 42.5076 42.8824 42.3916C42.6378 42.2757 42.435 42.0871 42.3015 41.8517C42.073 41.4418 41.7392 41.1004 41.3347 40.8627C40.9301 40.625 40.4694 40.4997 40.0001 40.4997C38.8668 40.4997 37.8588 41.2303 37.4908 42.317C37.3903 42.6127 37.1892 42.8637 36.9227 43.0264C36.6562 43.1892 36.341 43.2533 36.0321 43.2077C35.8961 43.1863 35.7841 43.1663 35.6681 43.1663C34.3815 43.1663 33.3348 44.213 33.3348 45.4997C33.3348 45.6223 33.3575 45.7397 33.3761 45.857C33.4748 46.497 33.1001 47.1157 32.4868 47.325C31.9595 47.5007 31.5006 47.8373 31.1746 48.2874C30.8486 48.7375 30.6719 49.2786 30.6695 49.8343C30.6695 51.305 31.8655 52.501 33.3361 52.501C33.8038 52.5003 34.2631 52.3767 34.668 52.1426C35.0729 51.9085 35.4092 51.5722 35.6432 51.1672C35.8772 50.7623 36.0007 50.303 36.0013 49.8353C36.002 49.3676 35.8797 48.9079 35.6468 48.5023C35.4696 48.1961 35.4214 47.832 35.5126 47.4902C35.6039 47.1484 35.8272 46.8568 36.1335 46.6797C36.4397 46.5025 36.8038 46.4542 37.1456 46.5455C37.4874 46.6368 37.779 46.8601 37.9561 47.1663C38.4241 47.9743 38.6708 48.897 38.6708 49.8343H46.6708C48.1415 49.8343 49.3375 48.6383 49.3375 47.1677L49.3348 47.1663ZM29.0815 30.377C29.4881 30.9637 29.3495 31.6197 29.0321 32.0077C28.6401 32.489 28.1788 33.1503 28.1081 34.0117C28.0788 34.3642 28.1907 34.714 28.4192 34.9841C28.6478 35.2541 28.9742 35.4223 29.3268 35.4517C29.6793 35.481 30.0291 35.3691 30.2992 35.1406C30.5692 34.912 30.7374 34.5856 30.7668 34.233C30.7681 34.2077 30.7948 34.0663 31.0988 33.6943C31.6542 33.019 31.9723 32.1799 32.0041 31.3061C32.0359 30.4323 31.7797 29.5722 31.2748 28.8583C30.8565 28.2564 30.2796 27.7821 29.6081 27.4881C28.9366 27.1942 28.1968 27.092 27.4708 27.193C26.8608 27.2778 26.2787 27.5024 25.7698 27.8493C25.261 28.1963 24.8392 28.6561 24.5375 29.193C24.2341 29.7322 24.0579 30.3336 24.0224 30.9512C23.9868 31.5689 24.0927 32.1865 24.3321 32.757C24.47 33.0827 24.7317 33.3402 25.0595 33.473C25.3873 33.6058 25.7544 33.6029 26.0801 33.465C26.4058 33.3271 26.6634 33.0654 26.7961 32.7376C26.9289 32.4098 26.926 32.0427 26.7881 31.717C26.7067 31.5222 26.6708 31.3114 26.6833 31.1007C26.6958 30.8899 26.7563 30.6848 26.8601 30.501C26.9674 30.3061 27.1224 30.1417 27.3107 30.0232C27.499 29.9047 27.7143 29.836 27.9364 29.8236C28.1586 29.8112 28.3802 29.8555 28.5805 29.9523C28.7808 30.0491 28.9532 30.1952 29.0815 30.377Z" fill="#38988A"/>
</g>
<defs>
<clipPath id="clip0_22399_15773">
<rect width="32" height="32" fill="white" transform="translate(24 24.5)"/>
</clipPath>
</defs>
</svg>
