<svg width="20" height="20" viewBox="0 0 20 20" fill="none" xmlns="http://www.w3.org/2000/svg">
<path fill-rule="evenodd" clip-rule="evenodd" d="M5.05701 9.27879C5.05701 6.54792 7.27058 4.33435 10.0015 4.33435C12.7323 4.33435 14.9459 6.54792 14.9459 9.27879L14.9467 10.272C14.9467 10.8591 15.0756 11.4389 15.3261 11.97L15.6772 12.7159C16.2132 13.856 15.3813 15.1662 14.122 15.1662H5.88081C4.62078 15.1662 3.78968 13.856 4.32564 12.7159L4.67673 11.97C4.92647 11.4389 5.0562 10.8591 5.0562 10.272L5.05701 9.27879Z" stroke="#363B54" stroke-linecap="round" stroke-linejoin="round"/>
<path d="M7.66797 15.1669C7.66797 16.4553 8.71312 17.5005 10.0015 17.5005C11.2908 17.5005 12.3351 16.4553 12.3351 15.1669" stroke="#363B54" stroke-linecap="round" stroke-linejoin="round"/>
<path d="M11.3351 4.51167V3.83706C11.3351 3.09839 10.7359 2.5 9.99724 2.5C9.25857 2.5 8.66016 3.09839 8.66016 3.83706V4.51167" stroke="#363B54" stroke-linecap="round" stroke-linejoin="round"/>
</svg>
