<svg width="20" height="20" viewBox="0 0 20 20" fill="none" xmlns="http://www.w3.org/2000/svg">
<path fill-rule="evenodd" clip-rule="evenodd" d="M11.547 10.3955V10.6051C11.547 10.9363 11.2782 11.2051 10.947 11.2051C10.6158 11.2051 10.347 10.9363 10.347 10.6051V10.4011H9.71977C9.38857 10.4011 9.11977 10.1323 9.11977 9.80109C9.11977 9.46989 9.38857 9.20109 9.71977 9.20109H11.4926C11.6878 9.20109 11.847 9.04349 11.847 8.84829C11.847 8.65469 11.6878 8.49709 11.4926 8.49709H10.4014C9.54457 8.49709 8.84697 7.79788 8.84697 6.93787C8.84697 6.10027 9.51577 5.42027 10.347 5.39068V5.18188C10.347 4.85067 10.6158 4.58188 10.947 4.58188C11.2782 4.58188 11.547 4.85067 11.547 5.18188V5.38507H12.1742C12.5054 5.38507 12.7742 5.65388 12.7742 5.98507C12.7742 6.31627 12.5054 6.58507 12.1742 6.58507H10.4014C10.2062 6.58507 10.047 6.74348 10.047 6.93787C10.047 7.13627 10.2062 7.29708 10.4014 7.29708H11.4926C12.3494 7.29708 13.047 7.99307 13.047 8.84829C13.047 9.68589 12.3782 10.3659 11.547 10.3955ZM10.5566 1.78748C6.74533 1.78748 3.64453 4.88827 3.64453 8.70029C3.64453 9.01957 3.6726 9.33157 3.71649 9.63837C3.72832 9.72117 3.78428 9.78973 3.85872 9.82781C4.10851 9.95565 4.32833 10.1485 4.48693 10.4043L5.54859 12.1133C5.60571 12.2053 5.7173 12.2477 5.82103 12.2167L8.41737 11.4427C9.12777 11.2323 9.89417 11.5363 10.263 12.1811L11.0271 13.5169C11.0834 13.6154 11.2008 13.659 11.3122 13.6375C11.5526 13.591 11.8076 13.5986 12.0598 13.6707C12.605 13.8284 12.9983 14.251 13.1464 14.7579C13.1922 14.9144 13.361 15.0181 13.5084 14.9481C15.8471 13.8391 17.4694 11.4566 17.4694 8.70029C17.4694 4.88827 14.3686 1.78748 10.5566 1.78748Z" fill="#F96D6D"/>
<path fill-rule="evenodd" clip-rule="evenodd" d="M11.7814 14.6316C11.4638 14.5428 11.1302 14.7228 11.0382 15.042L10.9406 15.3812L9.39421 12.6788C9.25581 12.4364 8.96941 12.3204 8.70221 12.4012L5.19743 13.4461L3.63663 10.9316C3.46223 10.65 3.09183 10.5644 2.81103 10.738C2.52943 10.9132 2.44303 11.2828 2.61743 11.5644L4.41983 14.4685C4.56223 14.6989 4.84303 14.8053 5.10063 14.7269L8.58941 13.6868L9.87341 15.9308L9.57901 15.8476C9.26061 15.7516 8.92861 15.9412 8.83741 16.2588C8.74621 16.578 8.93101 16.91 9.24941 17.0004L10.9582 17.4885C11.0134 17.5053 11.0686 17.5124 11.1238 17.5124L11.1254 17.5117L11.1262 17.5124L11.1294 17.5109C11.2206 17.5101 11.3062 17.4828 11.3862 17.4428C11.3982 17.4372 11.4118 17.4397 11.4238 17.4333C11.4342 17.4269 11.4406 17.4164 11.4502 17.4092C11.4894 17.3844 11.5222 17.3525 11.5542 17.3189C11.5726 17.2997 11.5942 17.2836 11.6102 17.2613C11.6438 17.2148 11.6686 17.1604 11.6878 17.1036C11.6926 17.0884 11.7014 17.0756 11.7054 17.0596L12.1918 15.3748C12.283 15.0556 12.0998 14.7236 11.7814 14.6316Z" fill="#F96D6D"/>
</svg>
