<svg width="20" height="20" viewBox="0 0 20 20" fill="none" xmlns="http://www.w3.org/2000/svg">
<g clip-path="url(#clip0_22546_66317)">
<path d="M14.3967 13.0041L14.0928 12.3197C14.2836 11.9839 14.4321 11.6258 14.5348 11.2534L15.2331 10.9846C15.2921 10.962 15.3427 10.922 15.3785 10.8699C15.4142 10.8178 15.4334 10.7562 15.4334 10.693V9.30695C15.4334 9.2438 15.4142 9.18213 15.3785 9.13007C15.3427 9.07801 15.2921 9.038 15.2331 9.01531L14.535 8.7466C14.4323 8.37413 14.2838 8.01584 14.0929 7.67992L14.3967 6.99582C14.4223 6.9381 14.4299 6.87397 14.4183 6.81189C14.4068 6.7498 14.3767 6.69266 14.332 6.64801L13.3519 5.66793C13.3073 5.62327 13.2501 5.59319 13.1881 5.58166C13.126 5.57013 13.0618 5.57768 13.0041 5.60332L12.3198 5.90727C11.984 5.71638 11.6258 5.56788 11.2535 5.46516L10.9847 4.76687C10.962 4.70793 10.922 4.65725 10.8699 4.6215C10.8179 4.58576 10.7562 4.56663 10.693 4.56664H9.30703C9.24388 4.56664 9.18221 4.58577 9.13015 4.62152C9.07809 4.65726 9.03808 4.70794 9.01539 4.76687L8.74656 5.4652C8.37421 5.56791 8.01603 5.71641 7.68023 5.9073L6.99586 5.60336C6.93815 5.57772 6.87402 5.57017 6.81193 5.5817C6.74984 5.59324 6.6927 5.62331 6.64805 5.66797L5.66797 6.64809C5.62332 6.69274 5.59324 6.74988 5.58171 6.81197C5.57018 6.87406 5.57772 6.93818 5.60336 6.9959L5.90727 7.68016C5.71637 8.01598 5.56787 8.37418 5.46516 8.74656L4.76691 9.01535C4.70798 9.03804 4.6573 9.07805 4.62156 9.13011C4.58581 9.18217 4.56668 9.24384 4.56668 9.30699V10.693C4.56668 10.7562 4.58581 10.8178 4.62156 10.8699C4.6573 10.922 4.70798 10.962 4.76691 10.9846L5.46504 11.2534C5.56777 11.6258 5.7163 11.9841 5.90723 12.32L5.60336 13.0041C5.57772 13.0618 5.57018 13.1259 5.58171 13.188C5.59324 13.2501 5.62332 13.3073 5.66797 13.3519L6.64809 14.332C6.69274 14.3766 6.74987 14.4067 6.81196 14.4183C6.87405 14.4298 6.93818 14.4223 6.9959 14.3966L7.68031 14.0927C8.0161 14.2836 8.37426 14.4321 8.7466 14.5348L9.01543 15.2331C9.03812 15.292 9.07813 15.3427 9.13019 15.3784C9.18225 15.4142 9.24392 15.4333 9.30707 15.4333H10.6931C10.7562 15.4333 10.8179 15.4142 10.87 15.3784C10.922 15.3427 10.962 15.292 10.9847 15.2331L11.2534 14.535C11.6259 14.4323 11.9842 14.2837 12.3201 14.0928L13.0042 14.3966C13.0619 14.4223 13.1261 14.4298 13.1881 14.4183C13.2502 14.4068 13.3074 14.3767 13.352 14.332L14.3321 13.3519C14.3767 13.3072 14.4068 13.2501 14.4183 13.188C14.4298 13.1259 14.4223 13.0618 14.3967 13.0041ZM13.9683 10.9473C13.8684 11.3671 13.7021 11.7682 13.4757 12.1355C13.4491 12.1788 13.4334 12.2278 13.43 12.2785C13.4266 12.3291 13.4356 12.3798 13.4562 12.4262L13.7384 13.0617L13.0618 13.7384L12.4266 13.4563C12.3802 13.4356 12.3295 13.4266 12.2788 13.43C12.2282 13.4334 12.1791 13.4491 12.1359 13.4757C11.7685 13.7022 11.3672 13.8686 10.9473 13.9684C10.8979 13.9802 10.8521 14.0038 10.8139 14.0372C10.7757 14.0706 10.7462 14.1128 10.728 14.1602L10.4785 14.8084H9.52164L9.27203 14.16C9.25379 14.1126 9.2243 14.0704 9.18609 14.037C9.14788 14.0036 9.10211 13.98 9.05273 13.9682C8.63296 13.8683 8.23184 13.702 7.86453 13.4756C7.82131 13.449 7.77226 13.4333 7.72161 13.4299C7.67097 13.4265 7.62026 13.4355 7.57387 13.4561L6.93832 13.7383L6.26168 13.0617L6.54387 12.4264C6.56448 12.38 6.57347 12.3293 6.57006 12.2787C6.56666 12.228 6.55097 12.1789 6.52434 12.1357C6.29781 11.7683 6.13148 11.3671 6.03164 10.9472C6.01991 10.8978 5.99632 10.852 5.96291 10.8138C5.9295 10.7756 5.88729 10.7461 5.83992 10.7279L5.19172 10.4784V9.52148L5.84004 9.27191C5.8874 9.25368 5.92962 9.22419 5.96302 9.18598C5.99642 9.14777 6.02002 9.10199 6.03176 9.05262C6.13164 8.63282 6.29794 8.23167 6.52437 7.86434C6.55099 7.82111 6.56668 7.77205 6.57009 7.7214C6.57349 7.67075 6.5645 7.62003 6.54391 7.57363L6.26168 6.93824L6.93832 6.26156L7.57383 6.54379C7.62021 6.5644 7.67093 6.5734 7.72157 6.57C7.77222 6.5666 7.82127 6.55092 7.86449 6.5243C8.2318 6.29785 8.63294 6.13155 9.05273 6.03168C9.10211 6.01992 9.14787 5.99632 9.18607 5.96291C9.22427 5.9295 9.25376 5.88729 9.27199 5.83992L9.5216 5.19156H10.4785L10.7281 5.83992C10.7463 5.88729 10.7758 5.9295 10.814 5.96291C10.8522 5.99632 10.898 6.01992 10.9473 6.03168C11.3671 6.13158 11.7683 6.29788 12.1356 6.5243C12.1788 6.55092 12.2279 6.56661 12.2785 6.57C12.3292 6.5734 12.3799 6.5644 12.4263 6.54379L13.0618 6.26156L13.7384 6.9382L13.4563 7.57344C13.4357 7.61984 13.4267 7.67055 13.4301 7.7212C13.4335 7.77185 13.4492 7.82092 13.4758 7.86414C13.7023 8.23154 13.8686 8.63277 13.9685 9.05266C13.9802 9.10204 14.0038 9.14781 14.0372 9.18602C14.0706 9.22423 14.1128 9.25373 14.1602 9.27195L14.8084 9.52145V10.4784L14.16 10.728C14.1126 10.7462 14.0704 10.7757 14.037 10.8139C14.0036 10.8522 13.98 10.8979 13.9683 10.9473ZM10 6.90055C8.29098 6.90055 6.90059 8.29098 6.90059 10C6.90059 11.7091 8.29098 13.0995 10 13.0995C11.709 13.0995 13.0995 11.7091 13.0995 10C13.0995 8.29098 11.709 6.90055 10 6.90055ZM10 12.4745C8.63559 12.4745 7.52559 11.3644 7.52559 10C7.52559 8.63559 8.63559 7.52555 10 7.52555C11.3644 7.52555 12.4745 8.63559 12.4745 10C12.4745 11.3644 11.3644 12.4745 10 12.4745ZM16.5967 13.5059C14.8925 13.5059 13.5059 14.8924 13.5059 16.5967C13.5059 18.3009 14.8925 19.6875 16.5967 19.6875C18.301 19.6875 19.6875 18.301 19.6875 16.5967C19.6875 14.8925 18.301 13.5059 16.5967 13.5059ZM16.5967 19.0625C15.2371 19.0625 14.1309 17.9564 14.1309 16.5967C14.1309 15.237 15.2371 14.1309 16.5967 14.1309C17.9564 14.1309 19.0625 15.2371 19.0625 16.5967C19.0625 17.9564 17.9564 19.0625 16.5967 19.0625ZM17.7934 17.2094C17.824 17.4621 17.7557 17.6935 17.5956 17.8785C17.4378 18.061 17.1916 18.1904 16.9092 18.2454V18.3548C16.9092 18.4377 16.8763 18.5172 16.8177 18.5758C16.7591 18.6344 16.6796 18.6673 16.5967 18.6673C16.5138 18.6673 16.4344 18.6344 16.3757 18.5758C16.3171 18.5172 16.2842 18.4377 16.2842 18.3548V18.2401C15.8435 18.1414 15.5066 17.8383 15.4022 17.4196C15.3822 17.3392 15.3949 17.2541 15.4376 17.1831C15.4803 17.1121 15.5494 17.0609 15.6299 17.0408C15.7103 17.0208 15.7954 17.0335 15.8664 17.0762C15.9375 17.1189 15.9886 17.1881 16.0087 17.2685C16.0811 17.5589 16.3867 17.6552 16.6255 17.6494C16.8344 17.6445 17.0342 17.5722 17.1229 17.4696C17.1668 17.4189 17.1823 17.3618 17.1729 17.2847C17.1623 17.197 17.1373 16.9917 16.5486 16.895C15.7011 16.7559 15.5029 16.3088 15.486 15.9583C15.4629 15.4841 15.7825 15.0862 16.2842 14.9588V14.8386C16.2842 14.7557 16.3171 14.6762 16.3757 14.6176C16.4344 14.559 16.5138 14.5261 16.5967 14.5261C16.6796 14.5261 16.7591 14.559 16.8177 14.6176C16.8763 14.6762 16.9092 14.7557 16.9092 14.8386V14.956C17.234 15.0348 17.5407 15.2456 17.7028 15.6317C17.7349 15.7081 17.7353 15.7942 17.7039 15.8709C17.6726 15.9476 17.6121 16.0087 17.5357 16.0408C17.4592 16.0729 17.3732 16.0733 17.2965 16.042C17.2198 16.0106 17.1586 15.9501 17.1265 15.8737C17.0032 15.5801 16.7006 15.5047 16.4552 15.5604C16.3953 15.574 16.097 15.6556 16.1102 15.928C16.1137 16.0002 16.123 16.1918 16.6498 16.2783C17.3475 16.3929 17.7322 16.7061 17.7934 17.2094ZM6.49406 3.40328C6.49406 1.69902 5.10754 0.3125 3.40328 0.3125C1.69902 0.3125 0.3125 1.69902 0.3125 3.40328C0.3125 5.10754 1.69902 6.49406 3.40328 6.49406C5.10754 6.49406 6.49406 5.10754 6.49406 3.40328ZM0.9375 3.40328C0.9375 2.04363 2.04363 0.9375 3.40328 0.9375C4.76293 0.9375 5.86906 2.04363 5.86906 3.40328C5.86906 4.76293 4.76293 5.86906 3.40328 5.86906C2.04363 5.86906 0.9375 4.76293 0.9375 3.40328ZM3.40332 5.47387C3.32044 5.47387 3.24095 5.44094 3.18235 5.38234C3.12374 5.32373 3.09082 5.24425 3.09082 5.16137V5.04668C2.65004 4.94801 2.3132 4.64492 2.20879 4.22621C2.18875 4.14579 2.20147 4.0607 2.24417 3.98967C2.28686 3.91863 2.35603 3.86746 2.43645 3.84742C2.47626 3.83748 2.51765 3.83548 2.55824 3.84154C2.59883 3.84759 2.63783 3.86159 2.67301 3.88273C2.70819 3.90387 2.73886 3.93173 2.76326 3.96473C2.78766 3.99773 2.80532 4.03521 2.81523 4.07504C2.88766 4.36543 3.19363 4.46137 3.43211 4.45602C3.64094 4.45105 3.84082 4.37879 3.92949 4.27625C3.9734 4.22547 3.98883 4.1684 3.97945 4.09129C3.96883 4.00359 3.94387 3.79828 3.3552 3.7016C2.5077 3.56246 2.30949 3.11543 2.29254 2.76492C2.26949 2.29066 2.58902 1.89273 3.09082 1.76535V1.64516C3.09082 1.56228 3.12374 1.48279 3.18235 1.42419C3.24095 1.36558 3.32044 1.33266 3.40332 1.33266C3.4862 1.33266 3.56569 1.36558 3.62429 1.42419C3.6829 1.48279 3.71582 1.56228 3.71582 1.64516V1.76254C4.04063 1.84133 4.34727 2.05223 4.50934 2.43828C4.53975 2.51438 4.53905 2.59938 4.5074 2.67498C4.47575 2.75057 4.41567 2.81071 4.34011 2.84243C4.26455 2.87416 4.17955 2.87494 4.10342 2.8446C4.02729 2.81426 3.96612 2.75524 3.93309 2.68023C3.8098 2.38664 3.50703 2.31145 3.2618 2.36699C3.20187 2.38059 2.90352 2.46219 2.91676 2.73461C2.92027 2.80676 2.92957 2.99836 3.45641 3.08488C4.15406 3.19941 4.53879 3.51266 4.59984 4.01598C4.63051 4.26871 4.56215 4.50008 4.40211 4.68508C4.24434 4.8675 3.99816 4.99699 3.71574 5.05191V5.16137C3.71582 5.33398 3.5759 5.47387 3.40332 5.47387ZM8.4875 2.64715C8.49048 2.59983 8.50419 2.55382 8.52759 2.51258C8.55098 2.47134 8.58345 2.43597 8.62254 2.40914L9.66426 1.69418C9.73259 1.64727 9.81676 1.62944 9.89825 1.64459C9.97974 1.65974 10.0519 1.70665 10.0988 1.77498C10.1457 1.84332 10.1635 1.92748 10.1484 2.00897C10.1332 2.09046 10.0863 2.16259 10.018 2.20949L9.77242 2.37801C9.86984 2.38523 9.96711 2.39395 10.064 2.40414C12.5823 2.66871 14.8468 3.89813 16.4404 5.8659C18.0339 7.83367 18.7659 10.3042 18.5013 12.8225C18.492 12.9044 18.4508 12.9793 18.3865 13.031C18.3222 13.0826 18.2401 13.1068 18.1581 13.0982C18.0761 13.0895 18.0009 13.0489 17.9487 12.985C17.8966 12.9211 17.8718 12.8393 17.8797 12.7572C18.1268 10.405 17.4432 8.0973 15.9547 6.25926C14.4662 4.42125 12.351 3.27289 9.99871 3.02574C9.87883 3.01314 9.7587 3.00297 9.6384 2.99523L9.95094 3.2734C9.9816 3.30068 10.0066 3.33373 10.0245 3.37066C10.0423 3.4076 10.0528 3.4477 10.0552 3.48867C10.0575 3.52964 10.0518 3.57067 10.0384 3.60943C10.0249 3.6482 10.0039 3.68392 9.9766 3.71457C9.9215 3.77648 9.84407 3.81397 9.76134 3.81879C9.6786 3.82361 9.59734 3.79536 9.53543 3.74027L8.59164 2.90031C8.55623 2.86877 8.52845 2.82958 8.51041 2.78573C8.49237 2.74187 8.48454 2.69448 8.4875 2.64715ZM12.4682 17.2152C12.4702 17.2626 12.4614 17.3098 12.4424 17.3532C12.4235 17.3967 12.3949 17.4353 12.3588 17.466L11.3975 18.2859C11.3411 18.3343 11.2692 18.3608 11.1949 18.3607C11.131 18.3607 11.0686 18.3412 11.0161 18.3046C10.9636 18.2681 10.9237 18.2163 10.9015 18.1563C10.8794 18.0963 10.8762 18.031 10.8924 17.9692C10.9086 17.9073 10.9433 17.8519 10.992 17.8104L11.2185 17.6172C8.57801 17.6976 6.08191 16.7044 4.22266 14.8451C2.43215 13.0546 1.44609 10.6741 1.44609 8.14195C1.44609 8.05907 1.47902 7.97959 1.53762 7.92098C1.59623 7.86238 1.67571 7.82945 1.75859 7.82945C1.84147 7.82945 1.92096 7.86238 1.97956 7.92098C2.03817 7.97959 2.07109 8.05907 2.07109 8.14195C2.07109 13.0245 6.04328 16.9967 10.9258 16.9967C11.046 16.9967 11.1668 16.9943 11.2873 16.9894L10.9474 16.7454C10.8804 16.6969 10.8353 16.6239 10.8221 16.5423C10.8088 16.4607 10.8284 16.3771 10.8767 16.3099C10.9249 16.2428 10.9978 16.1974 11.0793 16.1839C11.1609 16.1703 11.2445 16.1897 11.3119 16.2377L12.3382 16.9744C12.3768 17.0021 12.4085 17.0381 12.431 17.0798C12.4535 17.1215 12.4663 17.1678 12.4682 17.2152Z" fill="currentColor"/>
</g>
<defs>
<clipPath id="clip0_22546_66317">
<rect width="20" height="20" fill="white"/>
</clipPath>
</defs>
</svg>
