<svg width="80" height="81" viewBox="0 0 80 81" fill="none" xmlns="http://www.w3.org/2000/svg">
<rect x="10" y="10.5" width="60" height="60" rx="30" fill="#38988A" fill-opacity="0.1"/>
<g clip-path="url(#clip0_22399_15757)">
<path d="M38.6641 24.5C34.2521 24.5 30.6641 28.088 30.6641 32.5C30.6641 36.912 34.2521 40.5 38.6641 40.5C43.0761 40.5 46.6641 36.912 46.6641 32.5C46.6641 28.088 43.0761 24.5 38.6641 24.5ZM38.6641 37.8333C35.7227 37.8333 33.3307 35.4413 33.3307 32.5C33.3307 29.5587 35.7227 27.1667 38.6641 27.1667C41.6054 27.1667 43.9974 29.5587 43.9974 32.5C43.9974 35.4413 41.6054 37.8333 38.6641 37.8333ZM42.6227 45.168C42.5342 45.5103 42.3135 45.8035 42.009 45.9833C41.7046 46.163 41.3412 46.2146 40.9987 46.1267C40.2359 45.9314 39.4515 45.8328 38.6641 45.8333C33.5187 45.8333 29.3307 50.02 29.3307 55.1667C29.3307 55.5203 29.1903 55.8594 28.9402 56.1095C28.6902 56.3595 28.351 56.5 27.9974 56.5C27.6438 56.5 27.3046 56.3595 27.0546 56.1095C26.8045 55.8594 26.6641 55.5203 26.6641 55.1667C26.6641 48.5507 32.0467 43.1667 38.6641 43.1667C39.6787 43.1667 40.6881 43.2933 41.6627 43.5453C42.0052 43.6332 42.2987 43.8536 42.4787 44.1579C42.6588 44.4622 42.7106 44.8255 42.6227 45.168ZM55.9974 49.8333C55.9974 52.0387 54.2027 53.8333 51.9974 53.8333V55.1667C51.9974 55.5203 51.8569 55.8594 51.6069 56.1095C51.3568 56.3595 51.0177 56.5 50.6641 56.5C50.3104 56.5 49.9713 56.3595 49.7213 56.1095C49.4712 55.8594 49.3307 55.5203 49.3307 55.1667V53.8307H48.9707C48.2699 53.8291 47.5817 53.6442 46.9744 53.2943C46.3672 52.9443 45.8621 52.4416 45.5094 51.836C45.339 51.5305 45.2954 51.1703 45.3881 50.833C45.4808 50.4957 45.7024 50.2083 46.005 50.0329C46.3076 49.8574 46.6671 49.8079 47.0059 49.8951C47.3447 49.9822 47.6356 50.199 47.8161 50.4987C48.0547 50.9093 48.4961 51.164 48.9707 51.164L51.9974 51.1667C52.3508 51.1663 52.6896 51.0257 52.9393 50.7757C53.1891 50.5257 53.3294 50.1867 53.3294 49.8333C53.3301 49.5899 53.244 49.3543 53.0866 49.1686C52.9293 48.9829 52.7109 48.8593 52.4707 48.82L48.4161 48.144C47.5524 48.0026 46.7673 47.5582 46.2017 46.8904C45.636 46.2226 45.3268 45.3752 45.3294 44.5C45.3294 42.2947 47.1241 40.5 49.3294 40.5V39.1667C49.3294 38.813 49.4699 38.4739 49.7199 38.2239C49.97 37.9738 50.3091 37.8333 50.6627 37.8333C51.0164 37.8333 51.3555 37.9738 51.6055 38.2239C51.8556 38.4739 51.9961 38.813 51.9961 39.1667V40.504H52.3574C53.7747 40.504 55.1014 41.268 55.8161 42.4973C55.9107 42.6488 55.9739 42.8178 56.002 42.9942C56.0301 43.1707 56.0224 43.3509 55.9795 43.5243C55.9365 43.6977 55.8591 43.8607 55.752 44.0037C55.6448 44.1466 55.51 44.2665 55.3556 44.3563C55.2011 44.4461 55.0303 44.504 54.853 44.5265C54.6758 44.549 54.4959 44.5356 54.3239 44.4872C54.152 44.4388 53.9915 44.3563 53.852 44.2447C53.7126 44.133 53.597 43.9945 53.5121 43.8373C53.3955 43.6343 53.2272 43.4657 53.0245 43.3486C52.8217 43.2315 52.5915 43.1701 52.3574 43.1707L49.3294 43.1667C48.976 43.167 48.6372 43.3077 48.3874 43.5577C48.1377 43.8077 47.9974 44.1466 47.9974 44.5C47.9974 45.004 48.3587 45.4307 48.8561 45.5133L52.9107 46.1893C53.7744 46.3307 54.5595 46.7751 55.1251 47.4429C55.6908 48.1107 56 48.9582 55.9974 49.8333Z" fill="#38988A"/>
</g>
<defs>
<clipPath id="clip0_22399_15757">
<rect width="32" height="32" fill="white" transform="translate(24 24.5)"/>
</clipPath>
</defs>
</svg>
