<svg width="20" height="20" viewBox="0 0 20 20" fill="none" xmlns="http://www.w3.org/2000/svg">
<path fill-rule="evenodd" clip-rule="evenodd" d="M10 2.29248C14.2575 2.29248 17.7075 5.74248 17.7075 9.99998C17.7075 10.345 17.9875 10.625 18.3325 10.625C18.6775 10.625 18.9575 10.345 18.9575 9.99998C18.9575 5.05248 14.9475 1.04248 10 1.04248C9.655 1.04248 9.375 1.32248 9.375 1.66748C9.375 2.01248 9.655 2.29248 10 2.29248ZM10 6.87498C10.345 6.87498 10.625 7.15498 10.625 7.49998V10.2075H13.3325C13.6775 10.2075 13.9575 10.4875 13.9575 10.8325C13.9575 11.1775 13.6775 11.4575 13.3325 11.4575H10C9.655 11.4575 9.375 11.1775 9.375 10.8325V7.49998C9.375 7.15498 9.655 6.87498 10 6.87498Z" fill="#FFCC00"/>
<path fill-rule="evenodd" clip-rule="evenodd" d="M7.57906 1.99742C7.70406 2.31992 7.54406 2.68242 7.22156 2.80492C7.10406 2.84992 6.98656 2.89992 6.87156 2.94992C6.55656 3.08992 6.18656 2.94742 6.04656 2.63242C5.90656 2.31742 6.04906 1.94742 6.36406 1.80742C6.49906 1.74742 6.63406 1.69242 6.77156 1.63992C7.09406 1.51492 7.45406 1.67492 7.57906 1.99742ZM4.70406 3.53492C4.94156 3.78492 4.93156 4.17992 4.68156 4.41742C4.58906 4.50492 4.50156 4.59492 4.41406 4.68492C4.17656 4.93492 3.78156 4.94492 3.53156 4.70742C3.28156 4.46992 3.27156 4.07492 3.50906 3.82492C3.60906 3.71992 3.71406 3.61492 3.81906 3.51492C4.06906 3.27492 4.46406 3.28492 4.70406 3.53492ZM2.62906 6.04992C2.94406 6.18992 3.08656 6.55992 2.94656 6.87492C2.89656 6.98992 2.84656 7.10742 2.80156 7.22492C2.67656 7.54742 2.31656 7.70742 1.99406 7.58242C1.67156 7.45742 1.51156 7.09742 1.63656 6.77492C1.68906 6.63742 1.74656 6.50242 1.80406 6.36742C1.94406 6.05242 2.31406 5.90992 2.62906 6.04992ZM1.68156 9.16992C2.02656 9.17742 2.29906 9.46492 2.29156 9.80992C2.28906 9.87242 2.28906 9.93742 2.28906 9.99992C2.28906 10.0624 2.28906 10.1274 2.29156 10.1899C2.29906 10.5349 2.02656 10.8224 1.68156 10.8299C1.33656 10.8374 1.04906 10.5649 1.04156 10.2199C1.03906 10.1474 1.03906 10.0724 1.03906 9.99992C1.03906 9.92742 1.03906 9.85242 1.04156 9.77992C1.04906 9.43492 1.33656 9.16242 1.68156 9.16992ZM17.9991 12.4174C18.3216 12.5424 18.4816 12.9024 18.3566 13.2249C18.3041 13.3624 18.2466 13.4974 18.1891 13.6324C18.0491 13.9474 17.6791 14.0899 17.3641 13.9499C17.0491 13.8099 16.9066 13.4399 17.0466 13.1249C17.0966 13.0099 17.1466 12.8924 17.1916 12.7749C17.3141 12.4524 17.6766 12.2924 17.9991 12.4174ZM1.99406 12.4174C2.31656 12.2924 2.67906 12.4524 2.80156 12.7749C2.84656 12.8924 2.89656 13.0099 2.94656 13.1249C3.08656 13.4399 2.94406 13.8099 2.62906 13.9499C2.31406 14.0899 1.94406 13.9474 1.80406 13.6324C1.74406 13.4999 1.68906 13.3624 1.63656 13.2249C1.51156 12.9024 1.67156 12.5424 1.99406 12.4174ZM16.4641 15.2949C16.7141 15.5324 16.7241 15.9274 16.4866 16.1774C16.3866 16.2824 16.2816 16.3874 16.1766 16.4874C15.9266 16.7249 15.5316 16.7149 15.2941 16.4649C15.0566 16.2149 15.0666 15.8199 15.3166 15.5824C15.4091 15.4949 15.4966 15.4074 15.5841 15.3149C15.8166 15.0649 16.2141 15.0549 16.4641 15.2949ZM3.52906 15.2949C3.77906 15.0574 4.17406 15.0674 4.41156 15.3174C4.49906 15.4099 4.58906 15.4974 4.67906 15.5849C4.92906 15.8224 4.93906 16.2174 4.70156 16.4674C4.46406 16.7174 4.06906 16.7274 3.81906 16.4899C3.71406 16.3899 3.60906 16.2849 3.50906 16.1799C3.27156 15.9274 3.27906 15.5324 3.52906 15.2949ZM6.04656 17.3674C6.18656 17.0524 6.55656 16.9099 6.87156 17.0499C6.98656 17.0999 7.10406 17.1499 7.22156 17.1949C7.54406 17.3199 7.70406 17.6799 7.57906 18.0024C7.45406 18.3249 7.09406 18.4849 6.77156 18.3599C6.63406 18.3074 6.49906 18.2499 6.36406 18.1924C6.04906 18.0524 5.90656 17.6824 6.04656 17.3674ZM13.9466 17.3674C14.0866 17.6824 13.9441 18.0524 13.6291 18.1924C13.4966 18.2524 13.3591 18.3074 13.2216 18.3599C12.8991 18.4849 12.5366 18.3249 12.4141 18.0024C12.2891 17.6799 12.4491 17.3174 12.7716 17.1949C12.8891 17.1499 13.0066 17.1024 13.1216 17.0499C13.4366 16.9099 13.8066 17.0524 13.9466 17.3674ZM9.16656 18.3149C9.17406 17.9699 9.46156 17.6974 9.80656 17.7049C9.86906 17.7074 9.93406 17.7074 9.99656 17.7074C10.0591 17.7074 10.1241 17.7074 10.1866 17.7049C10.5316 17.6974 10.8191 17.9699 10.8266 18.3149C10.8341 18.6599 10.5616 18.9474 10.2166 18.9549C10.1441 18.9574 10.0691 18.9574 9.99656 18.9574C9.92406 18.9574 9.84906 18.9574 9.77656 18.9549C9.43156 18.9474 9.15906 18.6599 9.16656 18.3149Z" fill="#FFEB98"/>
</svg>
