<svg width="20" height="20" viewBox="0 0 20 20" fill="none" xmlns="http://www.w3.org/2000/svg">
<path fill-rule="evenodd" clip-rule="evenodd" d="M13.7605 17.9167H6.80397C4.24867 17.9167 2.28834 16.9937 2.84516 13.279L3.49352 8.24469C3.83677 6.39114 5.01908 5.68176 6.05645 5.68176H14.5385C15.5912 5.68176 16.7048 6.44454 17.1015 8.24469L17.7498 13.279C18.2227 16.5742 16.3158 17.9167 13.7605 17.9167Z" stroke="#363B54" stroke-width="1.5" stroke-linecap="round" stroke-linejoin="round"/>
<path d="M13.876 5.49868C13.876 3.51029 12.2641 1.89835 10.2757 1.89835C9.31822 1.89432 8.39854 2.27185 7.72005 2.94748C7.04156 3.6231 6.66016 4.54118 6.66016 5.49868" stroke="#363B54" stroke-width="1.5" stroke-linecap="round" stroke-linejoin="round"/>
<path d="M12.7452 9.25159H12.707" stroke="#363B54" stroke-width="1.5" stroke-linecap="round" stroke-linejoin="round"/>
<path d="M7.88579 9.25159H7.84766" stroke="#363B54" stroke-width="1.5" stroke-linecap="round" stroke-linejoin="round"/>
</svg>
