<svg width="20" height="20" viewBox="0 0 20 20" fill="none" xmlns="http://www.w3.org/2000/svg">
<path fill-rule="evenodd" clip-rule="evenodd" d="M9.58464 16.8852H2.45964C2.41543 16.8852 2.37304 16.8676 2.34178 16.8364C2.31053 16.8051 2.29297 16.7627 2.29297 16.7185V15.5093C2.29297 14.8177 2.78714 14.2077 3.5488 13.6893C4.9088 12.761 7.10964 12.176 9.58464 12.176C9.7504 12.176 9.90937 12.1102 10.0266 11.993C10.1438 11.8757 10.2096 11.7168 10.2096 11.551C10.2096 11.3853 10.1438 11.2263 10.0266 11.1091C9.90937 10.9919 9.7504 10.926 9.58464 10.926C6.8163 10.926 4.36547 11.6185 2.8438 12.656C1.68297 13.4477 1.04297 14.4535 1.04297 15.5093V16.7185C1.04297 17.0942 1.19222 17.4546 1.4579 17.7203C1.72358 17.9859 2.08391 18.1352 2.45964 18.1352H9.58464C9.7504 18.1352 9.90937 18.0693 10.0266 17.9521C10.1438 17.8349 10.2096 17.6759 10.2096 17.5102C10.2096 17.3444 10.1438 17.1855 10.0266 17.0682C9.90937 16.951 9.7504 16.8852 9.58464 16.8852ZM9.58464 1.04102C7.05464 1.04102 5.0013 3.09435 5.0013 5.62435C5.0013 8.15435 7.05464 10.2077 9.58464 10.2077C12.1146 10.2077 14.168 8.15435 14.168 5.62435C14.168 3.09435 12.1146 1.04102 9.58464 1.04102ZM9.58464 2.29102C11.4246 2.29102 12.918 3.78435 12.918 5.62435C12.918 7.46435 11.4246 8.95768 9.58464 8.95768C7.74464 8.95768 6.2513 7.46435 6.2513 5.62435C6.2513 3.78435 7.74464 2.29102 9.58464 2.29102ZM14.5846 11.6143C13.8122 11.6368 13.0789 11.9594 12.5404 12.5137C12.002 13.068 11.7008 13.8103 11.7008 14.5831C11.7008 15.3559 12.002 16.0982 12.5404 16.6525C13.0789 17.2068 13.8122 17.5294 14.5846 17.5518C16.223 17.5518 17.5538 16.221 17.5538 14.5827C17.5538 12.9443 16.223 11.6143 14.5846 11.6143ZM14.5846 12.8643C15.533 12.8643 16.3038 13.6343 16.3038 14.5827C16.3038 15.531 15.533 16.3018 14.5846 16.3018C13.6363 16.3018 12.8655 15.531 12.8655 14.5827C12.8655 13.6343 13.6363 12.8643 14.5846 12.8643Z" fill="currentColor"/>
<path fill-rule="evenodd" clip-rule="evenodd" d="M15.207 12.2379V10.832C15.207 10.6663 15.1412 10.5073 15.024 10.3901C14.9068 10.2729 14.7478 10.207 14.582 10.207C14.4163 10.207 14.2573 10.2729 14.1401 10.3901C14.0229 10.5073 13.957 10.6663 13.957 10.832V12.2387C13.9571 12.4045 14.0231 12.5634 14.1404 12.6805C14.2577 12.7976 14.4167 12.8634 14.5824 12.8633C14.7482 12.8632 14.9071 12.7972 15.0243 12.6799C15.1414 12.5626 15.2071 12.4036 15.207 12.2379ZM16.6812 13.367L17.6754 12.372C17.7925 12.2549 17.8583 12.096 17.8583 11.9304C17.8583 11.7647 17.7925 11.6058 17.6754 11.4887C17.5582 11.3716 17.3994 11.3058 17.2337 11.3058C17.068 11.3058 16.9092 11.3716 16.792 11.4887L15.797 12.4829C15.6801 12.6003 15.6145 12.7593 15.6145 12.9249C15.6145 13.0906 15.6801 13.2496 15.797 13.367C15.9145 13.4839 16.0734 13.5495 16.2391 13.5495C16.4048 13.5495 16.5638 13.4839 16.6812 13.367ZM16.9254 15.207H18.332C18.4978 15.207 18.6568 15.1412 18.774 15.024C18.8912 14.9068 18.957 14.7478 18.957 14.582C18.957 14.4163 18.8912 14.2573 18.774 14.1401C18.6568 14.0229 18.4978 13.957 18.332 13.957H16.9254C16.7596 13.957 16.6006 14.0229 16.4834 14.1401C16.3662 14.2573 16.3004 14.4163 16.3004 14.582C16.3004 14.7478 16.3662 14.9068 16.4834 15.024C16.6006 15.1412 16.7596 15.207 16.9254 15.207ZM15.797 16.6812L16.792 17.6754C16.85 17.7334 16.9189 17.7794 16.9947 17.8108C17.0705 17.8422 17.1517 17.8583 17.2337 17.8583C17.3157 17.8583 17.3969 17.8422 17.4727 17.8108C17.5485 17.7794 17.6174 17.7334 17.6754 17.6754C17.7334 17.6174 17.7794 17.5485 17.8108 17.4727C17.8422 17.3969 17.8583 17.3157 17.8583 17.2337C17.8583 17.1517 17.8422 17.0705 17.8108 16.9947C17.7794 16.9189 17.7334 16.85 17.6754 16.792L16.6812 15.797C16.5638 15.6801 16.4048 15.6145 16.2391 15.6145C16.0734 15.6145 15.9145 15.6801 15.797 15.797C15.6801 15.9145 15.6145 16.0734 15.6145 16.2391C15.6145 16.4048 15.6801 16.5638 15.797 16.6812ZM13.957 16.9254V18.332C13.957 18.4978 14.0229 18.6568 14.1401 18.774C14.2573 18.8912 14.4163 18.957 14.582 18.957C14.7478 18.957 14.9068 18.8912 15.024 18.774C15.1412 18.6568 15.207 18.4978 15.207 18.332V16.9254C15.207 16.7596 15.1412 16.6006 15.024 16.4834C14.9068 16.3662 14.7478 16.3004 14.582 16.3004C14.4163 16.3004 14.2573 16.3662 14.1401 16.4834C14.0229 16.6006 13.957 16.7596 13.957 16.9254ZM12.4829 15.797L11.4887 16.792C11.4307 16.85 11.3847 16.9189 11.3533 16.9947C11.3219 17.0705 11.3058 17.1517 11.3058 17.2337C11.3058 17.3157 11.3219 17.3969 11.3533 17.4727C11.3847 17.5485 11.4307 17.6174 11.4887 17.6754C11.5467 17.7334 11.6156 17.7794 11.6913 17.8108C11.7671 17.8422 11.8483 17.8583 11.9304 17.8583C12.0124 17.8583 12.0936 17.8422 12.1694 17.8108C12.2452 17.7794 12.314 17.7334 12.372 17.6754L13.367 16.6812C13.4839 16.5638 13.5495 16.4048 13.5495 16.2391C13.5495 16.0734 13.4839 15.9145 13.367 15.797C13.2496 15.6801 13.0906 15.6145 12.9249 15.6145C12.7593 15.6145 12.6003 15.6801 12.4829 15.797ZM12.2379 13.957H10.832C10.6663 13.957 10.5073 14.0229 10.3901 14.1401C10.2729 14.2573 10.207 14.4163 10.207 14.582C10.207 14.7478 10.2729 14.9068 10.3901 15.024C10.5073 15.1412 10.6663 15.207 10.832 15.207H12.2379C12.4036 15.207 12.5626 15.1412 12.6798 15.024C12.797 14.9068 12.8629 14.7478 12.8629 14.582C12.8629 14.4163 12.797 14.2573 12.6798 14.1401C12.5626 14.0229 12.4036 13.957 12.2379 13.957ZM13.367 12.4829L12.372 11.4887C12.314 11.4307 12.2452 11.3847 12.1694 11.3533C12.0936 11.3219 12.0124 11.3058 11.9304 11.3058C11.8483 11.3058 11.7671 11.3219 11.6913 11.3533C11.6156 11.3847 11.5467 11.4307 11.4887 11.4887C11.4307 11.5467 11.3847 11.6156 11.3533 11.6913C11.3219 11.7671 11.3058 11.8483 11.3058 11.9304C11.3058 12.0124 11.3219 12.0936 11.3533 12.1694C11.3847 12.2452 11.4307 12.314 11.4887 12.372L12.4829 13.367C12.6003 13.4839 12.7593 13.5495 12.9249 13.5495C13.0906 13.5495 13.2496 13.4839 13.367 13.367C13.4839 13.2496 13.5495 13.0906 13.5495 12.9249C13.5495 12.7593 13.4839 12.6003 13.367 12.4829Z" fill="currentColor"/>
</svg>
