<svg width="120" height="120" viewBox="0 0 120 120" fill="none" xmlns="http://www.w3.org/2000/svg">
<path fill-rule="evenodd" clip-rule="evenodd" d="M42.25 82.5273H77.7472V102.744H42.25V82.5273Z" fill="#A79BA7"/>
<path fill-rule="evenodd" clip-rule="evenodd" d="M74.9922 82.5273H77.7468V102.744H74.9922V82.5273Z" fill="#837683"/>
<path fill-rule="evenodd" clip-rule="evenodd" d="M21.6328 111.362H98.3698V105.445C98.3698 102.197 95.0349 99.5293 90.9662 99.5293H29.0363C24.961 99.5293 21.6328 102.197 21.6328 105.445V111.362Z" fill="#ECEFF1"/>
<path fill-rule="evenodd" clip-rule="evenodd" d="M21.6328 111.362H98.3698V105.445C98.3698 103.518 97.1893 101.79 95.3818 100.71C95.7886 101.437 96.0154 102.251 96.0154 103.098V109.014H21.6328V111.362Z" fill="#D1D1D6"/>
<path fill-rule="evenodd" clip-rule="evenodd" d="M12.2087 8.63867H107.788C112.564 8.63867 116.472 12.5471 116.472 17.3229V77.0516C116.472 81.8274 112.564 85.7359 107.788 85.7359H12.2087C7.43313 85.7359 3.53125 81.8274 3.53125 77.0516V17.3229C3.53125 12.5471 7.43313 8.63867 12.2087 8.63867Z" fill="#ECEFF1"/>
<path fill-rule="evenodd" clip-rule="evenodd" d="M112.634 10.126C114.949 11.6935 116.476 14.3347 116.476 17.3229V77.0516C116.476 81.8274 112.568 85.7359 107.792 85.7359H12.2123C9.23092 85.7359 6.58315 84.2083 5.01562 81.9006C6.44587 82.8662 8.13228 83.3819 9.85798 83.3813H105.438C110.213 83.3813 114.122 79.4794 114.122 74.7039V14.9683C114.123 13.2415 113.605 11.5542 112.634 10.126Z" fill="#D1D1D6"/>
<path fill-rule="evenodd" clip-rule="evenodd" d="M11.9961 15.9023H108.009C108.67 15.9023 109.21 16.4426 109.21 17.1028V71.1755H10.7891V17.1028C10.7891 16.4426 11.3293 15.9023 11.9961 15.9023Z" fill="#D8ECFE"/>
<path fill-rule="evenodd" clip-rule="evenodd" d="M103.297 15.9023H108.006C108.666 15.9023 109.206 16.4426 109.206 17.1028V71.1755H104.504V17.1028C104.504 16.4426 103.957 15.9023 103.297 15.9023Z" fill="#C4E2FF"/>
<path fill-rule="evenodd" clip-rule="evenodd" d="M19.7122 23.2989H42.1788C42.2875 23.2976 42.3953 23.3185 42.4956 23.3602C42.5959 23.402 42.6867 23.4637 42.7623 23.5417L50.296 29.9088C50.3739 29.9845 50.4356 30.0753 50.4774 30.1757C50.5191 30.2761 50.5399 30.3839 50.5386 30.4925V63.5008C50.538 63.7197 50.4507 63.9296 50.2959 64.0844C50.141 64.2392 49.9312 64.3265 49.7122 64.3271H19.7122C19.4928 64.3271 19.2823 64.2402 19.1268 64.0853C18.9714 63.9304 18.8836 63.7202 18.8828 63.5008V24.1283C18.8829 23.9084 18.9704 23.6975 19.1259 23.542C19.2814 23.3864 19.4923 23.299 19.7122 23.2989Z" fill="#ECEFF1"/>
<path fill-rule="evenodd" clip-rule="evenodd" d="M22.0652 64.3271H19.7122C19.4928 64.3271 19.2823 64.2401 19.1268 64.0852C18.9714 63.9303 18.8836 63.7202 18.8828 63.5007V24.1282C18.8829 23.9083 18.9704 23.6974 19.1259 23.5419C19.2814 23.3864 19.4923 23.299 19.7122 23.2988H22.0652C21.8452 23.299 21.6343 23.3864 21.4788 23.5419C21.3233 23.6974 21.2359 23.9083 21.2358 24.1282V63.5007C21.2366 63.7202 21.3243 63.9303 21.4798 64.0852C21.6352 64.2401 21.8457 64.3271 22.0652 64.3271Z" fill="#D1D1D6"/>
<path fill-rule="evenodd" clip-rule="evenodd" d="M42.1713 23.299C42.2953 23.2733 42.6162 23.3708 42.7548 23.5418L50.2885 29.9089C50.4614 30.0378 50.5572 30.411 50.5311 30.4926H42.8508C42.4784 30.4926 42.1713 30.2286 42.1713 29.9086V23.299ZM25.9214 38.1533C24.8826 38.1533 24.0391 37.3101 24.0391 36.271C24.0391 35.2322 24.8826 34.3886 25.9214 34.3886H43.0132C44.052 34.3886 44.8955 35.2322 44.8955 36.271C44.8955 37.3101 44.052 38.1533 43.0132 38.1533H25.9214ZM25.9214 45.0169C24.8826 45.0169 24.0391 44.1736 24.0391 43.1345C24.0391 42.0957 24.8826 41.2522 25.9214 41.2522H43.0132C44.052 41.2522 44.8955 42.0957 44.8955 43.1345C44.8955 44.1736 44.052 45.0169 43.0132 45.0169H25.9214ZM25.9214 51.8804C24.8826 51.8804 24.0391 51.0371 24.0391 49.998C24.0391 48.9592 24.8826 48.1157 25.9214 48.1157H43.0132C44.052 48.1157 44.8955 48.9592 44.8955 49.998C44.8955 51.0371 44.052 51.8804 43.0132 51.8804H25.9214Z" fill="#A79BA7"/>
<path fill-rule="evenodd" clip-rule="evenodd" d="M24.9655 84.1768C25.9087 85.5253 27.019 86.7489 28.2697 87.8184L19.2815 96.6297L15.8594 93.1026L24.9655 84.1768Z" fill="#A79BA7"/>
<path fill-rule="evenodd" clip-rule="evenodd" d="M24.9031 84.1172C25.0803 84.6974 25.4114 85.1367 25.8834 85.4283L16.9542 94.3019L15.8594 93.1021L24.9031 84.1172Z" fill="#837683"/>
<path fill-rule="evenodd" clip-rule="evenodd" d="M7.89123 108.069L4.02958 104.087C3.35123 103.388 3.36747 102.261 4.06582 101.582L14.7651 91.201C15.4632 90.5225 16.5908 90.542 17.2693 91.2403L21.1308 95.2196C21.8094 95.918 21.7929 97.0455 21.0948 97.7241L10.3955 108.105C9.69735 108.784 8.56958 108.768 7.89123 108.069Z" fill="#F1BA84"/>
<path fill-rule="evenodd" clip-rule="evenodd" d="M16.3482 91.2006L5.64911 101.582C4.95076 102.26 4.93453 103.388 5.61288 104.086L9.47429 108.069C9.61361 108.21 9.77532 108.328 9.95288 108.416C9.28088 108.751 8.44182 108.633 7.89123 108.069L4.02958 104.086C3.35123 103.388 3.36747 102.26 4.06582 101.582L14.7651 91.2006C15.3157 90.6662 16.1352 90.5646 16.7908 90.889C16.6282 90.9697 16.4789 91.0747 16.3482 91.2006Z" fill="#E3A76F"/>
<path fill-rule="evenodd" clip-rule="evenodd" d="M39.5591 54.8906C28.8009 54.8906 20.0781 63.6102 20.0781 74.3716C20.0781 85.1299 28.8009 93.8525 39.5591 93.8525C50.3207 93.8525 59.04 85.1299 59.04 74.3716C59.04 63.6102 50.3207 54.8906 39.5591 54.8906Z" fill="#8AC9FE"/>
<path fill-rule="evenodd" clip-rule="evenodd" d="M39.5591 54.8907C28.8009 54.8907 20.0781 63.6102 20.0781 74.3716C20.0781 85.1299 28.8009 93.8525 39.5591 93.8525C39.875 93.8515 40.1908 93.8438 40.5064 93.8295C30.1875 93.3347 21.9697 84.8118 21.9697 74.3716C21.9697 63.9281 30.1875 55.4052 40.5064 54.9137C40.1909 54.8978 39.875 54.8901 39.5591 54.8907Z" fill="#60B7FF"/>
<path fill-rule="evenodd" clip-rule="evenodd" d="M39.5593 60C31.6244 60 25.1875 66.4339 25.1875 74.3718C25.1875 82.3066 31.6244 88.7435 39.5593 88.7435C47.4974 88.7435 53.931 82.3066 53.931 74.3718C53.931 66.4339 47.4974 60 39.5593 60Z" fill="#ECEFF1"/>
<path fill-rule="evenodd" clip-rule="evenodd" d="M39.5575 60C39.2316 60 38.9088 60.0094 38.5859 60.0313C46.0728 60.5327 51.9864 66.7598 51.9864 74.3718C51.9864 81.9807 46.0728 88.2108 38.5859 88.7092C38.9088 88.7311 39.2316 88.7435 39.5575 88.7435C47.4956 88.7435 53.9292 82.3099 53.9292 74.3718C53.9292 66.4339 47.4956 60 39.5575 60Z" fill="#D1D1D6"/>
<path fill-rule="evenodd" clip-rule="evenodd" d="M32.426 76.0508C32.0732 75.6977 31.875 75.219 31.875 74.7198C31.875 74.2206 32.0732 73.7419 32.426 73.3887C32.7791 73.0359 33.2579 72.8378 33.757 72.8378C34.2562 72.8378 34.735 73.0359 35.0881 73.3887L37.2093 75.5101L44.113 69.2471C44.4829 68.9119 44.9708 68.7372 45.4694 68.7615C45.968 68.7859 46.4366 69.0071 46.7721 69.3767C47.1073 69.7466 47.2819 70.2344 47.2576 70.7329C47.2334 71.2315 47.0122 71.7 46.6427 72.0356L38.4109 79.5031C38.0529 79.8279 37.5836 80.0024 37.1004 79.9906C36.6171 79.9789 36.1569 79.7816 35.8152 79.4398L32.426 76.0508ZM71.5815 44.0807C71.5815 43.9011 71.6529 43.7288 71.7799 43.6017C71.907 43.4747 72.0793 43.4033 72.2589 43.4033H77.0723C77.1613 43.4033 77.2494 43.4208 77.3316 43.4549C77.4137 43.4889 77.4884 43.5388 77.5513 43.6017C77.6142 43.6646 77.6641 43.7393 77.6982 43.8215C77.7322 43.9037 77.7497 43.9918 77.7497 44.0807V64.9711C77.7497 65.1508 77.6784 65.3231 77.5513 65.4502C77.4243 65.5772 77.252 65.6487 77.0723 65.6487H72.2589C72.0792 65.6487 71.9069 65.5772 71.7799 65.4502C71.6529 65.3231 71.5815 65.1508 71.5815 64.9711V44.0807Z" fill="#6CF5C2"/>
<path fill-rule="evenodd" clip-rule="evenodd" d="M75.7109 43.4033H77.0662C77.1552 43.4033 77.2433 43.4208 77.3255 43.4549C77.4077 43.4889 77.4823 43.5388 77.5452 43.6017C77.6081 43.6646 77.658 43.7393 77.6921 43.8215C77.7261 43.9037 77.7436 43.9918 77.7436 44.0807V64.9711C77.7436 65.1508 77.6723 65.3231 77.5453 65.4502C77.4182 65.5772 77.2459 65.6487 77.0662 65.6487H75.7109C75.8907 65.6487 76.063 65.5773 76.1901 65.4503C76.3172 65.3232 76.3886 65.1508 76.3886 64.9711V44.0807C76.3885 43.901 76.3171 43.7287 76.19 43.6017C76.063 43.4747 75.8906 43.4033 75.7109 43.4033Z" fill="#00E499"/>
<path fill-rule="evenodd" clip-rule="evenodd" d="M83.0312 48.2868C83.0313 48.1071 83.1027 47.9348 83.2298 47.8078C83.3569 47.6807 83.5292 47.6094 83.7089 47.6094H88.5221C88.7018 47.6094 88.8741 47.6807 89.0012 47.8078C89.1282 47.9348 89.1997 48.1071 89.1997 48.2868V64.9713C89.1997 65.151 89.1283 65.3233 89.0012 65.4504C88.8742 65.5775 88.7018 65.6489 88.5221 65.6489H83.7089C83.5292 65.6489 83.3568 65.5775 83.2297 65.4504C83.1026 65.3233 83.0312 65.151 83.0312 64.9713V48.2868Z" fill="#FFE177"/>
<path fill-rule="evenodd" clip-rule="evenodd" d="M87.1719 47.6094H88.5269C88.7066 47.6094 88.8789 47.6807 89.006 47.8078C89.1331 47.9348 89.2045 48.1071 89.2046 48.2868V64.9713C89.2046 65.151 89.1332 65.3233 89.0061 65.4504C88.879 65.5775 88.7067 65.6489 88.5269 65.6489H87.1719C87.3516 65.6489 87.524 65.5775 87.651 65.4504C87.7781 65.3233 87.8495 65.151 87.8495 64.9713V48.2868C87.8495 48.1071 87.778 47.9348 87.651 47.8078C87.5239 47.6807 87.3516 47.6094 87.1719 47.6094Z" fill="#FFD064"/>
<path fill-rule="evenodd" clip-rule="evenodd" d="M94.4844 35.9872C94.4845 35.8075 94.5559 35.6352 94.683 35.5082C94.81 35.3811 94.9823 35.3097 95.162 35.3096H99.9752C100.155 35.3096 100.327 35.381 100.454 35.508C100.581 35.6351 100.653 35.8075 100.653 35.9872V64.9722C100.653 65.1519 100.581 65.3242 100.454 65.4513C100.327 65.5784 100.155 65.6498 99.9752 65.6498H95.162C95.073 65.6499 94.9849 65.6324 94.9026 65.5984C94.8204 65.5643 94.7457 65.5144 94.6827 65.4515C94.6198 65.3885 94.5699 65.3138 94.5358 65.2316C94.5018 65.1493 94.4843 65.0612 94.4844 64.9722V35.9872Z" fill="#8AC9FE"/>
<path fill-rule="evenodd" clip-rule="evenodd" d="M98.625 35.3096H99.9801C100.16 35.3096 100.332 35.381 100.459 35.508C100.586 35.6351 100.658 35.8075 100.658 35.9872V64.9722C100.658 65.1519 100.586 65.3242 100.459 65.4513C100.332 65.5784 100.16 65.6498 99.9801 65.6498H98.625C98.714 65.6499 98.8022 65.6324 98.8844 65.5984C98.9666 65.5643 99.0414 65.5144 99.1043 65.4515C99.1672 65.3885 99.2172 65.3138 99.2512 65.2316C99.2852 65.1493 99.3027 65.0612 99.3026 64.9722V35.9872C99.3025 35.8075 99.2311 35.6352 99.104 35.5082C98.977 35.3811 98.8047 35.3097 98.625 35.3096Z" fill="#60B7FF"/>
<path fill-rule="evenodd" clip-rule="evenodd" d="M60.1172 54.4919C60.1172 54.3122 60.1886 54.1399 60.3156 54.0129C60.4426 53.8858 60.6149 53.8145 60.7946 53.8145H65.612C65.7917 53.8145 65.964 53.8858 66.091 54.0129C66.2181 54.1399 66.2894 54.3122 66.2894 54.4919V64.9719C66.2894 65.1515 66.2181 65.3239 66.091 65.4509C65.964 65.578 65.7917 65.6494 65.612 65.6495H60.7946C60.6149 65.6494 60.4426 65.578 60.3156 65.4509C60.1886 65.3239 60.1172 65.1515 60.1172 64.9719V54.4919Z" fill="#FE646F"/>
<path fill-rule="evenodd" clip-rule="evenodd" d="M64.2578 53.8145H65.6131C65.7928 53.8145 65.9651 53.8858 66.0921 54.0129C66.2191 54.1399 66.2905 54.3122 66.2905 54.4919V64.9719C66.2905 65.1515 66.2192 65.3239 66.0921 65.4509C65.9651 65.578 65.7928 65.6494 65.6131 65.6495H64.2578C64.4375 65.6495 64.6099 65.5781 64.737 65.451C64.8641 65.3239 64.9355 65.1516 64.9355 64.9719V54.4919C64.9354 54.3122 64.864 54.1399 64.7369 54.0128C64.6098 53.8858 64.4375 53.8145 64.2578 53.8145Z" fill="#FE646F"/>
<path fill-rule="evenodd" clip-rule="evenodd" d="M63.9209 41.6646C63.704 41.8533 63.4211 41.9482 63.1343 41.9284C62.8476 41.9086 62.5804 41.7759 62.3914 41.5592C62.2027 41.3423 62.1078 41.0594 62.1276 40.7726C62.1473 40.4858 62.2802 40.2185 62.4969 40.0296L73.9507 30.0526C74.112 29.9123 74.3111 29.8227 74.5231 29.7952C74.7351 29.7676 74.9505 29.8033 75.1423 29.8978L85.8875 35.1971L96.7917 23.8155C97.2056 23.3832 97.8924 23.3686 98.3244 23.7825C98.7564 24.1964 98.7712 24.8832 98.3573 25.3152L86.9035 37.2708C86.744 37.4372 86.5357 37.5485 86.3087 37.5885C86.0817 37.6285 85.8478 37.5951 85.6411 37.4931L74.8305 32.1616L63.9209 41.6646Z" fill="#A79BA7"/>
<path fill-rule="evenodd" clip-rule="evenodd" d="M63.1986 44.0416C64.9605 44.0416 66.3972 42.6087 66.3972 40.847C66.3972 39.0851 64.9605 37.6484 63.1986 37.6484C61.4367 37.6484 60 39.0851 60 40.847C60 42.6087 61.4367 44.0416 63.1986 44.0416Z" fill="#FE646F"/>
<path fill-rule="evenodd" clip-rule="evenodd" d="M62.5312 43.9694C63.9696 43.6578 65.0524 42.3764 65.0524 40.847C65.0524 39.3174 63.9696 38.0329 62.5312 37.7209C62.7539 37.6726 62.9811 37.6483 63.2089 37.6484C64.9708 37.6484 66.4075 39.0851 66.4075 40.847C66.4075 42.6087 64.9708 44.0416 63.2089 44.0416C62.9764 44.0416 62.7498 44.0167 62.5312 43.9694Z" fill="#FD4755"/>
<path fill-rule="evenodd" clip-rule="evenodd" d="M74.6633 34.0648C76.4252 34.0648 77.8619 32.6281 77.8619 30.8705C77.8619 29.1086 76.4252 27.6719 74.6633 27.6719C72.9055 27.6719 71.4688 29.1086 71.4688 30.8705C71.4688 32.6281 72.9055 34.0648 74.6633 34.0648Z" fill="#6CF5C2"/>
<path fill-rule="evenodd" clip-rule="evenodd" d="M73.9844 33.9923C75.4223 33.6799 76.5048 32.3961 76.5048 30.8705C76.5048 29.3411 75.4223 28.0568 73.9844 27.7443C74.2068 27.696 74.4337 27.6717 74.6613 27.6719C76.4232 27.6719 77.8599 29.1086 77.8599 30.8705C77.8599 32.6281 76.4232 34.0648 74.6613 34.0648C74.4293 34.0648 74.2027 34.0399 73.9844 33.9923Z" fill="#00E499"/>
<path fill-rule="evenodd" clip-rule="evenodd" d="M86.1205 39.7154C87.8823 39.7154 89.3151 38.2787 89.3151 36.5209C89.3151 34.759 87.8823 33.3223 86.1205 33.3223C84.3586 33.3223 82.9219 34.759 82.9219 36.5209C82.9219 38.2787 84.3586 39.7154 86.1205 39.7154Z" fill="#FFE177"/>
<path fill-rule="evenodd" clip-rule="evenodd" d="M85.4375 39.643C86.8749 39.3307 87.9544 38.0467 87.9544 36.5209C87.9544 34.9914 86.8749 33.707 85.4375 33.3947C85.6601 33.3464 85.8873 33.3221 86.1151 33.3223C87.877 33.3223 89.3097 34.759 89.3097 36.5209C89.3097 38.2787 87.877 39.7154 86.1151 39.7154C85.8827 39.7154 85.6559 39.6905 85.4375 39.643Z" fill="#FFD064"/>
<path fill-rule="evenodd" clip-rule="evenodd" d="M97.5696 27.7644C99.3312 27.7644 100.768 26.3277 100.768 24.5658C100.768 22.8039 99.3312 21.3672 97.5696 21.3672C95.8077 21.3672 94.375 22.8039 94.375 24.5658C94.375 26.3277 95.8077 27.7644 97.5696 27.7644Z" fill="#8AC9FE"/>
<path fill-rule="evenodd" clip-rule="evenodd" d="M96.8906 27.6919C98.329 27.3797 99.4116 26.0952 99.4116 24.5658C99.4116 23.0364 98.329 21.7519 96.8906 21.4397C97.1133 21.3913 97.3404 21.367 97.5683 21.3672C99.3299 21.3672 100.767 22.8039 100.767 24.5658C100.767 26.3277 99.3299 27.7644 97.5683 27.7644C97.3358 27.7644 97.1092 27.7394 96.8906 27.6919Z" fill="#60B7FF"/>
</svg>
