<svg width="120" height="120" viewBox="0 0 120 120" fill="none" xmlns="http://www.w3.org/2000/svg">
<g clip-path="url(#clip0_22399_17199)">
<path d="M83.8086 32.3081L79.2685 35.8155C79.0572 35.9789 78.7976 36.0675 78.5305 36.0675C78.2634 36.0675 78.0038 35.9789 77.7924 35.8155L73.018 32.1269C72.8066 31.9636 72.547 31.875 72.2799 31.875C72.0128 31.875 71.7532 31.9636 71.5419 32.1269L66.7681 35.8153C66.5567 35.9786 66.2971 36.0672 66.03 36.0672C65.7628 36.0672 65.5032 35.9786 65.2918 35.8153L60.5185 32.1269C60.3071 31.9636 60.0475 31.875 59.7804 31.875C59.5132 31.875 59.2536 31.9636 59.0422 32.1269L54.2689 35.8153C54.0575 35.9786 53.7979 36.0672 53.5307 36.0672C53.2636 36.0672 53.004 35.9786 52.7926 35.8153L48.2539 32.3083C47.8571 32.0018 47.2812 32.2847 47.2812 32.786V78.75L73.5312 88.125H78.7452C82.0789 88.125 84.7815 85.4224 84.7815 82.0887V32.7855C84.7812 32.2844 84.2054 32.0015 83.8086 32.3081Z" fill="#91DEB6"/>
<path d="M83.8086 32.3082L81.1595 34.3548V78.7086C81.1595 82.0424 78.4569 84.7449 75.1231 84.7449H69.9095L47.2812 76.6635V78.7501L73.5312 88.1251H78.7449C82.0787 88.1251 84.7812 85.4225 84.7812 82.0888V32.7856C84.781 32.2845 84.2052 32.0017 83.8086 32.3082Z" fill="#6ED5A1"/>
<path d="M72.9692 4.4377L73.9541 0.762696C74.0706 0.32793 73.6888 -0.0775387 73.2479 0.0126956L51.8598 4.38941C50.8822 4.58957 50.5524 5.81981 51.2991 6.48191L67.6334 20.9663C67.9702 21.2649 68.5034 21.1048 68.6199 20.67L69.7334 16.5141C69.774 16.362 69.8721 16.2316 70.007 16.1505C70.142 16.0694 70.3031 16.044 70.4565 16.0796C90.3446 20.7954 105.14 38.6698 105.14 60C105.14 79.0897 93.29 95.4111 76.5446 102.01C76.2515 102.126 76.0152 102.351 75.886 102.638C75.7567 102.926 75.7448 103.252 75.8527 103.548L78.886 111.882C78.9415 112.034 79.0268 112.173 79.1368 112.291C79.2469 112.41 79.3795 112.505 79.5268 112.572C79.6742 112.638 79.8334 112.675 79.995 112.679C80.1566 112.683 80.3175 112.655 80.4681 112.596C101.512 104.402 116.425 83.9426 116.425 60C116.425 33.4599 98.1001 11.1996 73.4129 5.18113C73.3344 5.16239 73.2605 5.12812 73.1955 5.08035C73.1304 5.03257 73.0756 4.97227 73.0343 4.90298C72.9929 4.83369 72.9659 4.75683 72.9547 4.67692C72.9435 4.59701 72.9485 4.51567 72.9692 4.4377Z" fill="#FFE177"/>
<path d="M98.0466 18.333C107.212 28.3652 112.803 41.7187 112.803 56.3782C112.803 79.9943 98.2937 100.222 77.7031 108.632L78.8858 111.882C78.9413 112.034 79.0265 112.173 79.1366 112.291C79.2466 112.41 79.3792 112.505 79.5266 112.572C79.6739 112.638 79.8331 112.674 79.9947 112.679C80.1564 112.683 80.3172 112.655 80.4678 112.596C101.512 104.402 116.425 83.9425 116.425 60C116.425 43.4979 109.34 28.6504 98.0466 18.333Z" fill="#FFD15B"/>
<path d="M68.7037 113.518L52.3694 99.0336C52.0326 98.735 51.4994 98.8951 51.3829 99.3299L50.2694 103.486C50.2289 103.638 50.1307 103.768 49.9958 103.849C49.8609 103.931 49.6997 103.956 49.5463 103.92C29.6582 99.2045 14.8626 81.3301 14.8626 59.9999C14.8626 40.9103 26.7128 24.5889 43.4584 17.9898C43.7515 17.8742 43.9879 17.6488 44.1171 17.3615C44.2463 17.0742 44.2583 16.7478 44.1503 16.4518L41.117 8.11815C41.0615 7.96629 40.9763 7.82704 40.8662 7.70858C40.7562 7.59013 40.6236 7.49484 40.4762 7.42832C40.3289 7.3618 40.1697 7.32538 40.0081 7.32121C39.8464 7.31703 39.6856 7.34518 39.535 7.40401C18.4912 15.598 3.57812 36.0573 3.57812 59.9999C3.57812 86.54 21.9027 108.8 46.5899 114.819C46.6684 114.838 46.7423 114.872 46.8073 114.92C46.8723 114.967 46.9271 115.028 46.9685 115.097C47.0098 115.166 47.0369 115.243 47.0481 115.323C47.0592 115.403 47.0543 115.484 47.0336 115.562L46.0488 119.237C45.9323 119.672 46.3141 120.077 46.7549 119.987L68.1431 115.61C69.1206 115.41 69.4504 114.18 68.7037 113.518Z" fill="#7BACDF"/>
<path d="M68.7071 113.518L65.2477 110.451C65.2972 111.025 64.9337 111.614 64.2833 111.747L47.0431 115.276C47.0638 115.367 47.0631 115.465 47.037 115.563L46.0524 119.238C45.936 119.672 46.3177 120.078 46.7586 119.987L68.1467 115.611C69.1241 115.411 69.4538 114.18 68.7071 113.518Z" fill="#5F99D7"/>
<path d="M71.7461 73.5581L67.206 77.0655C66.9947 77.2289 66.7351 77.3175 66.468 77.3175C66.2009 77.3175 65.9413 77.2289 65.7299 77.0655L60.9555 73.3769C60.7441 73.2136 60.4845 73.125 60.2174 73.125C59.9503 73.125 59.6907 73.2136 59.4794 73.3769L54.7056 77.0653C54.4942 77.2286 54.2346 77.3172 53.9675 77.3172C53.7003 77.3172 53.4407 77.2286 53.2293 77.0653L48.456 73.3769C48.2446 73.2136 47.985 73.125 47.7179 73.125C47.4507 73.125 47.1911 73.2136 46.9797 73.3769L42.2064 77.0653C41.995 77.2286 41.7354 77.3172 41.4682 77.3172C41.2011 77.3172 40.9415 77.2286 40.7301 77.0653L36.1914 73.5583C35.7946 73.2518 35.2188 73.5347 35.2188 74.036V82.0889C35.2188 85.4224 37.9213 88.125 41.2551 88.125H78.7551C77.0479 88.125 73.7402 87.9002 72.6421 86.7609C72.209 86.3114 73.611 85.3111 73.333 84.7448C72.9277 83.9182 72.7175 83.0096 72.7188 82.0889V74.0358C72.7188 73.5344 72.1429 73.2515 71.7461 73.5581Z" fill="#B0E7C9"/>
<path d="M73.3333 84.7449H37.6335C36.9527 84.7449 36.298 84.6322 35.6875 84.4243C36.6004 86.5984 38.7496 88.1251 41.2553 88.1251H78.7553C76.3748 88.1251 74.316 86.747 73.3333 84.7449Z" fill="#91DEB6"/>
<path d="M66.9396 54.4589C65.6032 53.9864 64.1281 53.418 63.3202 52.7843C63.1488 52.6498 63.0759 52.2776 63.1474 51.8993C63.1863 51.6928 63.3668 51.0026 64.0542 50.7954C65.4361 50.3791 66.3502 51.0314 66.5191 51.1659L66.623 51.2487C66.8087 51.3987 67.0222 51.5106 67.2513 51.5778C67.4804 51.6451 67.7205 51.6663 67.9579 51.6404C68.1952 51.6144 68.4251 51.5418 68.6343 51.4267C68.8435 51.3116 69.0278 51.1562 69.1767 50.9696C69.3256 50.7829 69.4361 50.5687 69.5019 50.3391C69.5676 50.1096 69.5874 49.8694 69.5599 49.6322C69.5325 49.395 69.4584 49.1656 69.342 48.9572C69.2255 48.7487 69.069 48.5654 68.8814 48.4177L68.7773 48.3347C68.4588 48.0806 67.6786 47.535 66.5456 47.2369V46.8752C66.5456 46.395 66.3548 45.9344 66.0153 45.5948C65.6757 45.2552 65.2151 45.0645 64.7348 45.0645C64.2546 45.0645 63.794 45.2552 63.4544 45.5948C63.1148 45.9344 62.9241 46.395 62.9241 46.8752V47.3543C61.2103 47.9058 59.9363 49.3823 59.5884 51.2285C59.2615 52.965 59.8348 54.6532 61.0852 55.6338C62.302 56.5884 64.0381 57.2742 65.7326 57.8735C66.986 58.3165 67.0235 59.2732 66.9345 59.8041C66.7833 60.7034 66.0267 61.6748 64.7229 61.6835C63.3038 61.6943 62.9313 61.6345 61.872 60.9413C61.4701 60.6875 60.9845 60.6019 60.5201 60.7029C60.0557 60.8039 59.6496 61.0834 59.3893 61.4811C59.1291 61.8789 59.0357 62.3629 59.1291 62.8289C59.2226 63.295 59.4955 63.7056 59.8889 63.9722C61.0432 64.7273 61.9158 65.0691 62.9241 65.2127V65.6252C62.9241 66.1055 63.1148 66.5661 63.4544 66.9056C63.794 67.2452 64.2546 67.436 64.7348 67.436C65.2151 67.436 65.6757 67.2452 66.0153 66.9056C66.3548 66.5661 66.5456 66.1055 66.5456 65.6252V65.0217C68.7628 64.3052 70.1801 62.3419 70.5056 60.4048C70.9502 57.7594 69.5173 55.3702 66.9396 54.4589Z" fill="white"/>
</g>
<defs>
<clipPath id="clip0_22399_17199">
<rect width="120" height="120" fill="white"/>
</clipPath>
</defs>
</svg>
