<svg width="21" height="20" viewBox="0 0 21 20" fill="none" xmlns="http://www.w3.org/2000/svg">
<path fill-rule="evenodd" clip-rule="evenodd" d="M7.99989 9.94795C7.99989 9.61675 8.26869 9.34795 8.59989 9.34795H10.3727C10.5679 9.34795 10.7271 9.19035 10.7271 8.99595C10.7271 8.80075 10.5679 8.64315 10.3727 8.64315H9.28227C8.42389 8.64315 7.72629 7.94393 7.72629 7.08473C7.72629 6.24713 8.39509 5.56713 9.22707 5.53753V5.32873C9.22707 4.99753 9.49587 4.72873 9.82707 4.72873C10.1583 4.72873 10.4271 4.99753 10.4271 5.32873V5.53193H11.0543C11.3855 5.53193 11.6543 5.80073 11.6543 6.13193C11.6543 6.46393 11.3855 6.73193 11.0543 6.73193H9.28227C9.08547 6.73193 8.92627 6.89033 8.92627 7.08473C8.92627 7.28233 9.08547 7.44313 9.28227 7.44313H10.3727C11.2295 7.44313 11.9271 8.13915 11.9271 8.99595C11.9271 9.83355 11.2583 10.5128 10.4271 10.5424V10.752C10.4271 11.0831 10.1583 11.352 9.82707 11.352C9.49587 11.352 9.22707 11.0831 9.22707 10.752V10.548H8.59989C8.26869 10.548 7.99989 10.2792 7.99989 9.94795ZM10.8647 12.3288L13.4106 13.0872C13.5173 13.1191 13.6319 13.0733 13.6872 12.9767L13.7151 12.9283C13.7708 12.8312 13.7504 12.7096 13.6772 12.6249C13.5321 12.4569 13.4187 12.2576 13.3535 12.0304C13.1111 11.18 13.6031 10.2944 14.4519 10.052L16.1615 9.56395C16.1671 9.56235 16.1719 9.56235 16.1775 9.56075C16.2463 9.54155 16.3183 9.53275 16.3903 9.52315C16.4215 9.51915 16.4527 9.50875 16.4839 9.50715C16.5896 9.49875 16.6964 9.50131 16.8028 9.51483C16.9537 9.53395 17.1052 9.43635 17.1151 9.28459C17.1244 9.14003 17.1295 8.99411 17.1295 8.84715C17.1295 5.03513 14.0287 1.93433 10.2167 1.93433C6.40549 1.93433 3.30469 5.03513 3.30469 8.84715C3.30469 11.6823 5.02208 14.1193 7.46996 15.1846C7.57678 15.2311 7.70069 15.1901 7.76213 15.0912L9.04867 13.0184C9.43027 12.4056 10.1743 12.1272 10.8647 12.3288Z" fill="#0CAF60"/>
<path fill-rule="evenodd" clip-rule="evenodd" d="M17.6721 12.6394L17.1865 10.9546C17.1657 10.873 17.1273 10.797 17.0745 10.7298C17.0481 10.6962 17.0129 10.6746 16.9809 10.6474C16.9545 10.6258 16.9345 10.5986 16.9041 10.581C16.9025 10.5802 16.9017 10.5802 16.9001 10.5794C16.8097 10.5282 16.7057 10.5106 16.5985 10.5122C16.5465 10.513 16.4945 10.5114 16.4457 10.525C16.4433 10.5258 16.4417 10.525 16.4393 10.525L14.7297 11.0138C14.4113 11.1042 14.2265 11.4362 14.3185 11.7554C14.4089 12.0722 14.7361 12.265 15.0593 12.1666L15.3537 12.0826L14.0697 14.3266L10.5817 13.2874C10.3249 13.2106 10.0433 13.3162 9.90013 13.5458L8.09771 16.4498C7.92331 16.7306 8.01051 17.101 8.29132 17.2762C8.38971 17.337 8.49931 17.3658 8.60731 17.3658C8.80811 17.3658 9.00413 17.265 9.11853 17.0826L10.6785 14.5682L14.1833 15.613C14.4465 15.693 14.7361 15.5778 14.8753 15.3354L16.4217 12.6338L16.5193 12.9722C16.5945 13.2346 16.8345 13.4058 17.0953 13.4058C17.1505 13.4058 17.2065 13.3978 17.2617 13.3826C17.5801 13.2898 17.7633 12.9578 17.6721 12.6394Z" fill="#0CAF60"/>
</svg>
