<svg width="20" height="20" viewBox="0 0 20 20" fill="none" xmlns="http://www.w3.org/2000/svg">
<path d="M18.2563 7.40127C17.8916 7.3483 17.5435 7.21374 17.238 7.0076C16.9326 6.80147 16.6775 6.52907 16.4919 6.21071C16.3063 5.89234 16.1949 5.5362 16.166 5.16881C16.1371 4.80142 16.1915 4.43224 16.325 4.08877C16.4099 3.86423 16.4224 3.61874 16.3608 3.38673C16.2991 3.15472 16.1664 2.94781 15.9813 2.79502C15.1638 2.10856 14.2333 1.5693 13.2313 1.20127C13.0031 1.11651 12.754 1.10592 12.5194 1.17101C12.2849 1.2361 12.0769 1.37355 11.925 1.56377C11.6964 1.85606 11.4043 2.09245 11.0708 2.25503C10.7372 2.41761 10.3711 2.5021 10 2.5021C9.62897 2.5021 9.26279 2.41761 8.92926 2.25503C8.59572 2.09245 8.30359 1.85606 8.07501 1.56377C7.92315 1.37355 7.71513 1.2361 7.48059 1.17101C7.24604 1.10592 6.99694 1.11651 6.76876 1.20127C5.84356 1.54105 4.97851 2.02632 4.20626 2.63877C4.0116 2.79288 3.87139 3.00525 3.80616 3.24481C3.74093 3.48436 3.75411 3.7385 3.84376 3.97002C3.98799 4.32258 4.04757 4.70403 4.01775 5.08377C3.98792 5.46352 3.86951 5.83099 3.67201 6.1567C3.47452 6.48242 3.20343 6.75731 2.88051 6.95934C2.55758 7.16137 2.1918 7.2849 1.81251 7.32002C1.56627 7.34635 1.33498 7.45105 1.15271 7.6187C0.970433 7.78634 0.846801 8.00809 0.800014 8.25127C0.683637 8.82734 0.625014 9.41357 0.625014 10.0013C0.624158 10.4933 0.663876 10.9845 0.743764 11.47C0.783523 11.721 0.904855 11.9519 1.089 12.127C1.27315 12.3021 1.50985 12.4117 1.76251 12.4388C2.15014 12.4752 2.5234 12.6038 2.85108 12.8141C3.17875 13.0243 3.4513 13.31 3.64591 13.6472C3.84052 13.9844 3.95152 14.3633 3.96963 14.7522C3.98775 15.1411 3.91244 15.5287 3.75001 15.8825C3.64372 16.1127 3.61735 16.3717 3.6751 16.6186C3.73285 16.8654 3.8714 17.0859 4.06876 17.245C4.88133 17.919 5.80287 18.4495 6.79376 18.8138C6.92048 18.8577 7.05343 18.8809 7.18751 18.8825C7.37137 18.8821 7.55245 18.8377 7.71557 18.7528C7.87869 18.668 8.0191 18.5453 8.12501 18.395C8.34777 18.0705 8.64638 17.8052 8.99491 17.6222C9.34344 17.4392 9.73137 17.3441 10.125 17.345C10.5064 17.3455 10.8825 17.435 11.2232 17.6065C11.5639 17.7779 11.8598 18.0265 12.0875 18.3325C12.239 18.5361 12.4535 18.6839 12.6977 18.7528C12.9418 18.8218 13.202 18.8081 13.4375 18.7138C14.3436 18.3491 15.1871 17.8451 15.9375 17.22C16.126 17.0642 16.2603 16.8525 16.3209 16.6156C16.3815 16.3786 16.3655 16.1285 16.275 15.9013C16.128 15.5533 16.0639 15.1758 16.0878 14.7988C16.1117 14.4218 16.2228 14.0555 16.4125 13.7288C16.6023 13.4021 16.8653 13.1239 17.1809 12.9163C17.4966 12.7087 17.8561 12.5773 18.2313 12.5325C18.4745 12.4989 18.7007 12.3887 18.8771 12.2179C19.0536 12.0471 19.171 11.8246 19.2125 11.5825C19.3129 11.0612 19.3673 10.5321 19.375 10.0013C19.3751 9.44137 19.3228 8.88268 19.2188 8.33252C19.1766 8.09584 19.0609 7.87847 18.8881 7.71129C18.7153 7.54412 18.4942 7.43564 18.2563 7.40127ZM17.9938 11.3013C17.4437 11.3816 16.9188 11.5851 16.4583 11.8966C15.9978 12.208 15.6136 12.6194 15.3342 13.1C15.0548 13.5807 14.8875 14.1182 14.8448 14.6724C14.8021 15.2267 14.8851 15.7835 15.0875 16.3013C14.4678 16.8206 13.7722 17.2422 13.025 17.5513C12.6812 17.1045 12.239 16.7429 11.7328 16.4947C11.2266 16.2465 10.67 16.1183 10.1063 16.12C9.52621 16.1232 8.95495 16.2622 8.43831 16.5259C7.92167 16.7897 7.47402 17.1708 7.13126 17.6388C6.3219 17.3309 5.56664 16.8963 4.89376 16.3513C5.12176 15.8271 5.22411 15.2568 5.19264 14.6861C5.16117 14.1153 4.99676 13.5597 4.71251 13.0638C4.42524 12.5624 4.0247 12.1351 3.54287 11.816C3.06105 11.497 2.51129 11.295 1.93751 11.2263C1.88736 10.82 1.86647 10.4106 1.87501 10.0013C1.87517 9.51676 1.92121 9.03336 2.01251 8.55752C2.57217 8.49195 3.10936 8.29899 3.58282 7.99346C4.05629 7.68793 4.45343 7.27796 4.74376 6.79502C5.0337 6.31701 5.21035 5.77897 5.26018 5.22213C5.31002 4.66528 5.23171 4.10442 5.03126 3.58252C5.66907 3.08218 6.37928 2.68177 7.13751 2.39502C7.48456 2.81877 7.92136 3.16018 8.41638 3.39461C8.9114 3.62905 9.45229 3.75065 10 3.75065C10.5477 3.75065 11.0886 3.62905 11.5837 3.39461C12.0787 3.16018 12.5155 2.81877 12.8625 2.39502C13.6864 2.70632 14.453 3.15193 15.1313 3.71377C14.9459 4.22409 14.8752 4.76894 14.924 5.30967C14.9729 5.85039 15.1402 6.37374 15.4139 6.84258C15.6877 7.31142 16.0613 7.71426 16.5083 8.02252C16.9552 8.33078 17.4645 8.53691 18 8.62627C18.0813 9.08014 18.1231 9.54019 18.125 10.0013C18.1233 10.4367 18.0878 10.8713 18.0188 11.3013H17.9938Z" fill="#363B54"/>
<path d="M10 6.25C9.25832 6.25 8.5333 6.46993 7.91661 6.88199C7.29993 7.29404 6.81928 7.87971 6.53545 8.56494C6.25162 9.25016 6.17736 10.0042 6.32206 10.7316C6.46675 11.459 6.8239 12.1272 7.34835 12.6517C7.8728 13.1761 8.54098 13.5333 9.26841 13.6779C9.99584 13.8226 10.7498 13.7484 11.4351 13.4645C12.1203 13.1807 12.706 12.7001 13.118 12.0834C13.5301 11.4667 13.75 10.7417 13.75 10C13.75 9.00544 13.3549 8.05161 12.6517 7.34835C11.9484 6.64509 10.9946 6.25 10 6.25ZM10 12.5C9.50555 12.5 9.0222 12.3534 8.61108 12.0787C8.19995 11.804 7.87952 11.4135 7.6903 10.9567C7.50108 10.4999 7.45158 9.99723 7.54804 9.51227C7.6445 9.02732 7.8826 8.58186 8.23223 8.23223C8.58187 7.8826 9.02732 7.6445 9.51228 7.54804C9.99723 7.45157 10.4999 7.50108 10.9567 7.6903C11.4135 7.87952 11.804 8.19995 12.0787 8.61107C12.3534 9.0222 12.5 9.50555 12.5 10C12.5 10.663 12.2366 11.2989 11.7678 11.7678C11.2989 12.2366 10.663 12.5 10 12.5Z" fill="#363B54"/>
</svg>
