<svg width="42" height="42" viewBox="0 0 42 42" fill="none" xmlns="http://www.w3.org/2000/svg">
<path fill-rule="evenodd" clip-rule="evenodd" d="M42 21.2917C42 18.3051 40.5534 15.9484 37.7884 15.9484C35.0117 15.9484 33.3317 18.3051 33.3317 21.2684C33.3317 24.7801 35.315 26.5534 38.1617 26.5534C39.55 26.5534 40.6 26.2384 41.3933 25.795V23.4617C40.5999 23.8584 39.69 24.1034 38.535 24.1034C37.4033 24.1034 36.3999 23.7067 36.2717 22.33H41.9766C41.9767 22.1783 42 21.5717 42 21.2917ZM36.2367 20.1833C36.2367 18.865 37.0417 18.3166 37.7767 18.3166C38.4884 18.3166 39.2467 18.865 39.2467 20.1833H36.2367ZM28.8283 15.9484C27.685 15.9484 26.95 16.485 26.5417 16.8584L26.39 16.1351H23.8233V29.7385L26.74 29.1201L26.7516 25.8185C27.1716 26.1218 27.79 26.5535 28.8166 26.5535C30.905 26.5535 32.8066 24.8734 32.8066 21.1751C32.7951 17.7917 30.87 15.9484 28.8283 15.9484ZM28.1283 23.9867C27.4399 23.9867 27.0317 23.7417 26.7516 23.4384L26.74 19.11C27.0433 18.7716 27.4633 18.5383 28.1283 18.5383C29.19 18.5383 29.925 19.7283 29.925 21.2567C29.9251 22.82 29.2017 23.9867 28.1283 23.9867ZM19.81 15.26L22.7383 14.63V12.2617L19.81 12.88V15.26ZM19.81 16.1466H22.7383V26.355H19.81V16.1466ZM16.6717 17.01L16.485 16.1466H13.965V26.355H16.8817V19.4366C17.57 18.5383 18.7367 18.7017 19.0983 18.83V16.1466C18.725 16.0067 17.36 15.75 16.6717 17.01ZM10.8384 13.615L7.99166 14.2217L7.98002 23.5667C7.98002 25.2934 9.27499 26.565 11.0017 26.565C11.9584 26.565 12.6583 26.39 13.0434 26.18V23.8117C12.6701 23.9633 10.8267 24.5 10.8267 22.7734V18.6317H13.0434V16.1467H10.8267L10.8384 13.615ZM2.9517 19.11C2.9517 18.655 3.32501 18.48 3.94333 18.48C4.82998 18.48 5.94999 18.7483 6.83671 19.2267V16.485C5.86837 16.1001 4.91168 15.9484 3.94333 15.9484C1.57502 15.9484 0 17.185 0 19.25C0 22.47 4.43337 21.9567 4.43337 23.345C4.43337 23.8817 3.96671 24.0567 3.31336 24.0567C2.34502 24.0567 1.10836 23.66 0.128374 23.1234V25.9C1.21336 26.3667 2.31007 26.565 3.31336 26.565C5.73999 26.565 7.40836 25.3633 7.40836 23.2751C7.39672 19.7984 2.9517 20.4167 2.9517 19.11Z" fill="#635BFF"/>
</svg>
