<svg width="20" height="20" viewBox="0 0 20 20" fill="none" xmlns="http://www.w3.org/2000/svg">
<path d="M16.25 2.5H3.75C2.75578 2.5011 1.80259 2.89655 1.09957 3.59957C0.396545 4.30259 0.00110286 5.25578 0 6.25L0 13.75C0 15.8175 1.6825 17.5 3.75 17.5H16.25C18.3175 17.5 20 15.8175 20 13.75V6.25C20 4.1825 18.3175 2.5 16.25 2.5ZM0.833333 6.66667H19.1667V8.33333H0.833333V6.66667ZM3.75 3.33333H16.25C17.715 3.33333 18.92 4.42333 19.1242 5.83333H0.875833C1.08 4.42333 2.285 3.33333 3.75 3.33333ZM16.25 16.6667H3.75C2.14167 16.6667 0.833333 15.3583 0.833333 13.75V9.16667H19.1667V13.75C19.1667 15.3583 17.8583 16.6667 16.25 16.6667ZM4.16667 11.6667C3.2475 11.6667 2.5 12.4142 2.5 13.3333C2.5 14.2525 3.2475 15 4.16667 15C5.08583 15 5.83333 14.2525 5.83333 13.3333C5.83333 12.4142 5.08583 11.6667 4.16667 11.6667ZM4.16667 14.1667C3.9521 14.1571 3.7495 14.0651 3.60106 13.9098C3.45262 13.7546 3.36978 13.5481 3.36978 13.3333C3.36978 13.1186 3.45262 12.912 3.60106 12.7568C3.7495 12.6016 3.9521 12.5096 4.16667 12.5C4.38123 12.5096 4.58383 12.6016 4.73227 12.7568C4.88071 12.912 4.96356 13.1186 4.96356 13.3333C4.96356 13.5481 4.88071 13.7546 4.73227 13.9098C4.58383 14.0651 4.38123 14.1571 4.16667 14.1667Z" fill="#363B54"/>
</svg>
