<svg width="286" height="250" viewBox="0 0 286 250" fill="none" xmlns="http://www.w3.org/2000/svg">
<g clip-path="url(#clip0_22398_9623)">
<path d="M197.429 232.19H235.649V241.32H175.883V232.19H197.429Z" fill="#1D4E56"/>
<path d="M219.461 239.935H175.883V234.24H219.461C220.209 234.24 220.926 234.537 221.455 235.066C221.984 235.595 222.281 236.312 222.281 237.06V237.118C222.281 237.488 222.208 237.855 222.066 238.197C221.925 238.539 221.717 238.849 221.455 239.111C221.193 239.372 220.882 239.58 220.54 239.721C220.198 239.862 219.832 239.935 219.461 239.935Z" fill="white"/>
<path d="M219.461 239.935H195.273C196.422 238.252 197.063 236.276 197.12 234.24H219.461C220.208 234.24 220.925 234.537 221.454 235.066C221.983 235.595 222.28 236.312 222.28 237.06V237.118C222.28 237.488 222.207 237.855 222.065 238.197C221.924 238.539 221.716 238.849 221.454 239.111C221.192 239.372 220.881 239.58 220.539 239.721C220.197 239.862 219.831 239.935 219.461 239.935Z" fill="white"/>
<path d="M217.541 236.318H175.68V237.857H217.541V236.318Z" fill="#1D4E56"/>
<path d="M211.799 235.779H201.281V239.935H211.799V235.779Z" fill="#EA713C"/>
<path d="M222.497 232.191L233.701 160.221C233.701 149.417 225.741 143.03 214.518 143.03H197.549C186.327 143.03 177.234 154.523 177.234 168.7V232.191H222.497Z" fill="#7CB4C2"/>
<path d="M188.148 232.6L207.029 147.271C207.029 147.271 221.705 143.196 222.265 158.352C222.825 173.508 211.541 232.612 211.541 232.612L188.148 232.6Z" fill="#1E4E56"/>
<path opacity="0.74" d="M141.501 121.176L141.221 126.162L138.602 122.509L141.501 121.176Z" fill="#98CAD1"/>
<path d="M244.523 208.779V204.47C244.523 204.47 214.359 174.305 223.131 159.531C231.903 144.756 239.62 171.289 240.522 171.689C241.907 172.305 242.523 171.381 242.676 169.688C242.83 167.995 240.06 131.521 255.604 127.366C271.148 123.21 259.144 169.381 259.913 170.458C260.683 171.535 264.758 168.266 267.455 169.227C276.381 172.406 252.834 205.987 246.062 204.47L245.908 208.779H244.523Z" fill="#478E56"/>
<path d="M245.977 203.134C247.229 184.749 249.362 166.158 253.299 148.142C251.76 166.518 249.606 185.044 245.977 203.134Z" fill="#1E4E56"/>
<path d="M244.677 202.269C241.257 194.78 238.857 186.867 237.539 178.741C240.959 186.229 243.359 194.143 244.677 202.269Z" fill="#1E4E56"/>
<path d="M248.164 199.905C252.159 195.678 255.526 190.898 258.161 185.712C254.166 189.94 250.799 194.72 248.164 199.905Z" fill="#1E4E56"/>
<path d="M257.651 206.846H233.331C232.199 206.846 231.281 207.764 231.281 208.896V212.799C231.281 213.931 232.199 214.849 233.331 214.849H257.651C258.783 214.849 259.701 213.931 259.701 212.799V208.896C259.701 207.764 258.783 206.846 257.651 206.846Z" fill="#E26125"/>
<path d="M255.088 241.32H236.211L233.133 214.849H258.166L255.088 241.32Z" fill="#E26125"/>
<path d="M233.133 214.849L233.228 215.671H252.728L249.745 241.32H255.088L258.166 214.849H233.133Z" fill="#CF4001"/>
<path d="M231.326 127.276C215.176 148.108 210.088 162.523 195.119 176.374L175.728 242.551H116.322C114.321 243.256 100.815 165.57 101.548 164.985C102.28 164.4 76 121.791 76 121.791L103.394 101.39L122.786 127.024L185.885 127.372L205.185 104.834L231.326 127.276Z" fill="#363B54"/>
<path d="M121.152 95.4309C126.142 97.1946 126.385 93.7164 126.483 90.5368C126.582 87.3572 129.909 87.3449 129.909 87.3449C129.909 87.3449 150.341 90.2721 153.61 90.6599C156.879 91.0478 156.996 92.4329 155.61 98.8105C154.558 103.658 170.339 102.175 173.155 90.0751C173.463 88.8131 178.003 81.6629 178.08 81.5336C178.08 81.5336 175.427 77.88 175.427 72.1087C175.427 68.3381 177.184 65.4171 178.166 64.0781C178.351 63.8288 178.482 63.544 178.552 63.2415C178.621 62.9391 178.627 62.6255 178.569 62.3206C178.262 60.7169 177.766 57.6851 176.556 57.3588C169.499 55.4566 161.616 55.0903 155.266 54.0253C146.109 52.4863 143.917 48.8696 141.144 48.8696C137.909 48.8696 127.219 62.1051 127 66.836C127 66.836 126.966 66.7868 126.911 66.6945C126.178 70.8405 127.083 74.3895 126.178 75.8023C123.457 80.0131 120.613 91.7157 121.183 95.7756C121.177 95.6402 121.164 95.5232 121.152 95.4309Z" fill="#FCAD85"/>
<path d="M285.614 241.32H4.89844V250H285.614V241.32Z" fill="#7CB4C2"/>
<path d="M132.586 133.026V145.175C132.585 145.288 132.619 145.399 132.683 145.493C132.747 145.587 132.838 145.659 132.943 145.7C133.049 145.741 133.165 145.749 133.275 145.723C133.386 145.697 133.486 145.637 133.562 145.553L142.848 135.396L143.873 137.652L149.466 137.6L151.26 136.011L157.604 146.865C157.671 146.978 157.763 147.074 157.874 147.144C157.985 147.214 158.111 147.257 158.242 147.269C158.373 147.281 158.505 147.262 158.627 147.213C158.748 147.164 158.857 147.087 158.943 146.988L176.399 126.879L171.114 118.458L140.844 121.04C140.844 121.04 133.971 122.613 132.586 133.026Z" fill="#96CACF"/>
<path d="M139.475 136.975L137.875 138.927L140.491 148.161L133.873 179.042L127.203 218.543L135.154 230.652L145.262 220.186L147.906 148.351L155.419 140.361L153.412 136.975H139.475Z" fill="#EA713C"/>
<path d="M147.361 136.975L151.006 132.973L158.596 145.39L175.731 125.999C175.731 125.999 172.755 118.097 171.216 118.815C169.677 119.532 171.832 119.843 171.832 120.252C171.832 120.661 150.698 130.717 150.698 130.717L146.592 134.617L140.159 123.61C140.011 123.363 139.958 123.071 140.01 122.788C140.061 122.505 140.214 122.25 140.439 122.071C140.913 121.689 141.938 120.895 141.565 120.84C138.253 120.406 134.067 126.313 133.664 127.612L134.126 143.054L143.104 132.872L145.696 136.978L147.361 136.975Z" fill="white"/>
<path d="M177.96 103.911C177.735 103.862 177.603 103.8 177.581 103.742L173.272 104.973L171.219 118.824L171.834 120.261L150.701 130.727L146.595 134.623L141.125 125.272L141.22 124.235L142.03 115.429C163.576 116.3 170.403 106.918 173.678 99.2384C175.079 95.9634 175.833 92.9931 176.812 91.2694C180.453 84.8579 188.363 84.0576 190.201 91.2694C193.297 103.428 180.373 104.4 177.96 103.911Z" fill="#FDAE86"/>
<g opacity="0.29">
<path d="M177.958 103.911C177.733 103.862 177.601 103.8 177.579 103.742L173.27 104.973L171.217 118.824C164.43 124.599 143.924 129.059 141.219 124.245L142.028 115.438C163.574 116.31 170.401 106.928 173.676 99.248C174.726 100.584 176.699 102.631 177.958 103.911Z" fill="#EA713C"/>
</g>
<g opacity="0.3">
<path d="M185.891 90.8386C184.961 90.9362 184.036 91.0811 183.121 91.2726C184.333 91.5558 184.167 97.7211 184.89 96.7854C183.893 100.408 180.169 100.873 177.195 99.4294C177.306 95.428 181.271 89.6136 185.878 90.8386C185.617 90.7678 185.614 90.774 185.891 90.8386Z" fill="#F36E3A"/>
</g>
<path d="M185.888 90.8384C185.617 90.8754 185.343 90.9 185.072 90.9308C184.801 90.9615 184.537 90.9862 184.275 91.0354L183.881 91.0939C183.755 91.1185 183.629 91.1524 183.502 91.1801C183.376 91.2078 183.244 91.2355 183.133 91.2724C183.022 91.3094 182.868 91.3494 182.764 91.3925C182.536 91.4779 182.314 91.5808 182.102 91.7003C181.994 91.7557 181.899 91.8265 181.794 91.8849C181.69 91.9434 181.606 92.0204 181.52 92.0973C181.435 92.1698 181.355 92.2479 181.28 92.3313L181.169 92.4513C181.231 92.3805 181.169 92.4328 181.197 92.4174V92.439L181.166 92.479L181.108 92.5621C181.031 92.6729 180.948 92.7837 180.877 92.8915C180.806 92.9992 180.785 93.0823 180.735 93.1777C180.681 93.2776 180.631 93.3804 180.588 93.4855C180.541 93.6025 180.492 93.7071 180.443 93.8333L180.157 94.5751C179.96 95.0799 179.76 95.5786 179.556 96.0803C179.353 96.582 179.147 97.0776 178.941 97.5731C178.735 98.0687 178.51 98.5643 178.288 99.0567L177.981 98.1333L178.387 98.3519L178.83 98.5427L179.292 98.7028C179.446 98.7582 179.6 98.789 179.766 98.8351C179.932 98.8813 180.074 98.8998 180.246 98.9367C180.404 98.9701 180.565 98.9917 180.726 99.0013L180.969 99.026H181.44C181.517 99.026 181.588 99.0044 181.662 98.9952L181.89 98.9675H181.868H181.902L181.967 98.9459L182.096 98.9059C182.182 98.8813 182.271 98.8567 182.351 98.829L182.567 98.7428C182.718 98.6838 182.865 98.6138 183.007 98.5335C183.157 98.4584 183.302 98.3731 183.441 98.278C183.584 98.1843 183.721 98.0815 183.85 97.9702C183.992 97.8655 184.106 97.7393 184.238 97.6224C184.37 97.5054 184.469 97.3577 184.592 97.2253C184.715 97.093 184.801 96.936 184.9 96.7882C184.854 96.9637 184.801 97.1422 184.74 97.3177C184.678 97.4931 184.595 97.6624 184.506 97.8286C184.413 97.9948 184.31 98.1552 184.198 98.3088C184.086 98.464 183.965 98.612 183.835 98.752C183.705 98.8967 183.565 99.0324 183.416 99.1583C183.267 99.2904 183.108 99.4099 182.939 99.5154L182.674 99.6816L182.431 99.8078L182.311 99.8663L182.25 99.897L182.219 99.9124H182.191H182.173L181.865 100.008C181.764 100.042 181.661 100.071 181.557 100.094L181.249 100.143L180.942 100.186H180.634C180.436 100.202 180.237 100.202 180.04 100.186C179.843 100.179 179.646 100.16 179.452 100.128C179.258 100.094 179.064 100.069 178.873 100.023C178.682 99.9771 178.491 99.9278 178.301 99.8724L177.734 99.6723C177.547 99.5892 177.362 99.5 177.177 99.4076L176.602 99.1306L176.86 98.475C177.06 97.9702 177.26 97.4716 177.476 96.9729C177.691 96.4743 177.897 95.9787 178.11 95.4832C178.322 94.9876 178.547 94.4951 178.772 94.0057L179.119 93.2577C179.178 93.1346 179.255 93.0023 179.323 92.8761C179.392 92.7397 179.469 92.6072 179.553 92.479C179.646 92.3436 179.735 92.2051 179.83 92.0727C179.926 91.9404 180.012 91.8696 180.104 91.7649L180.172 91.688L180.206 91.651V91.6325L180.24 91.5956L180.421 91.4386C180.545 91.3391 180.675 91.2466 180.809 91.1616C180.942 91.0785 181.08 91.0108 181.216 90.9369C181.351 90.863 181.496 90.8107 181.637 90.7676C181.92 90.6671 182.212 90.5939 182.508 90.5491C182.665 90.5214 182.795 90.5121 182.93 90.4998C183.075 90.4922 183.219 90.4922 183.364 90.4998C183.506 90.4998 183.65 90.4998 183.789 90.4998L184.207 90.5368C184.484 90.5583 184.755 90.6168 185.026 90.6599C185.297 90.703 185.611 90.7738 185.888 90.8384Z" fill="#CF4400"/>
<path d="M168.039 74.4945C168.039 74.4945 169.661 70.687 165.422 66.8764C163.612 65.2451 160.036 61.6438 156.496 61.259C150.534 60.6096 153.363 67.5844 153.689 67.4859C154.474 67.2519 159.959 67.3381 168.039 74.4945Z" fill="#1C4D55"/>
<path d="M127.828 66.8361C127.828 66.8361 128.382 61.8744 133.175 60.834C134.187 60.6155 135.523 59.7136 138.675 59.7198C140.931 59.7198 142.166 64.0782 138.675 65.528C137.515 66.0112 135.849 65.6573 134.098 65.7588C131.251 65.925 128.302 66.3837 127.828 66.8361Z" fill="#1C4D55"/>
<path d="M139.387 72.9768C139.458 73.7154 139.352 74.4602 139.079 75.1499C138.681 76.2027 137.969 77.1075 137.039 77.7413C136.108 78.3752 135.006 78.7073 133.88 78.6927C130.938 78.6373 128.565 76.3073 128.565 73.4601C128.564 73.3007 128.572 73.1414 128.589 72.983C128.597 72.8916 128.585 72.7996 128.554 72.7131C128.524 72.6265 128.476 72.5473 128.413 72.4806C128.35 72.4139 128.273 72.3611 128.189 72.3257C128.104 72.2903 128.013 72.273 127.921 72.2751H127.453C127.29 72.2716 127.131 72.3288 127.008 72.4358C126.885 72.5427 126.805 72.6916 126.786 72.8537C126.767 73.0538 126.758 73.257 126.758 73.4693C126.758 77.3261 129.999 80.4626 133.982 80.4626C137.965 80.4626 141.206 77.3261 141.206 73.4693C141.206 73.2662 141.206 73.063 141.178 72.8537C141.159 72.6916 141.079 72.5427 140.956 72.4358C140.832 72.3288 140.674 72.2716 140.51 72.2751H140.043C139.952 72.2748 139.863 72.2932 139.781 72.329C139.698 72.3648 139.623 72.4173 139.562 72.4831C139.5 72.549 139.453 72.6268 139.423 72.7118C139.393 72.7967 139.381 72.8869 139.387 72.9768Z" fill="#1C4D55"/>
<path d="M163.938 78.9359C163.692 79.6829 163.261 80.3554 162.685 80.8905C161.778 81.7279 160.639 82.272 159.418 82.4516C158.196 82.6312 156.949 82.4379 155.84 81.897C152.863 80.4873 151.456 77.1476 152.703 74.3959C152.773 74.242 152.851 74.092 152.937 73.9465C152.983 73.858 153.009 73.761 153.015 73.6616C153.021 73.5622 153.006 73.4628 152.97 73.3696C152.935 73.2765 152.881 73.1918 152.811 73.1209C152.741 73.0501 152.657 72.9948 152.565 72.9584L152.087 72.7399C151.929 72.6626 151.749 72.6453 151.579 72.6911C151.409 72.737 151.262 72.8429 151.164 72.9892C151.057 73.1749 150.959 73.366 150.872 73.5617C149.191 77.2707 151.127 81.7893 155.181 83.6269C159.235 85.4644 163.916 83.9347 165.597 80.241C165.686 80.044 165.766 79.844 165.834 79.6439C165.882 79.4719 165.864 79.2884 165.786 79.1283C165.707 78.9682 165.572 78.8427 165.406 78.7759L164.929 78.5604C164.84 78.5143 164.743 78.4875 164.643 78.4817C164.543 78.4758 164.443 78.4911 164.349 78.5266C164.256 78.562 164.171 78.6168 164.1 78.6874C164.029 78.7579 163.974 78.8426 163.938 78.9359Z" fill="#1C4D55"/>
<path d="M144.677 86.9605C144.677 86.9605 139.367 87.3422 137.576 86.3449C137.142 86.1114 136.76 85.7939 136.45 85.411C136.141 85.0282 135.911 84.5876 135.773 84.1149C135.635 83.6422 135.593 83.1469 135.649 82.6577C135.704 82.1686 135.857 81.6954 136.097 81.2657C136.337 80.836 136.661 80.4584 137.048 80.1548C137.436 79.8513 137.88 79.6279 138.355 79.4976C138.829 79.3673 139.325 79.3328 139.814 79.396C140.302 79.4592 140.773 79.6188 141.199 79.8657C142.99 80.8599 144.677 86.9605 144.677 86.9605Z" fill="#ED6D34"/>
<path d="M121.148 95.4311C121.539 97.8935 118.535 114.515 142.027 115.438C170.191 116.54 172.004 102.64 173.675 99.2479C176.223 94.086 176.017 92.4916 176.808 91.2789C177.599 90.0661 182.472 83.7408 188.086 87.6099C189.871 88.8411 189.659 92.1069 190.438 91.4574C198.628 84.615 200.149 70.8839 196.455 66.8332C194.276 64.4478 202.125 70.3853 201.817 74.4913C201.596 77.4309 204.551 68.6431 199.93 60.5233C197.046 55.4445 191.352 53.253 188.452 53.9702C188.022 54.0779 188.388 48.3282 185.156 44.7884C180.868 40.0883 177.187 36.3824 169.575 35.0927C159.147 33.3228 159.725 24.2149 159.725 24.2149C159.725 24.2149 153.532 25.3569 159.648 36.3608C160.002 36.998 157.875 37.1488 154.068 31.359C151.415 27.3083 149.045 22.6852 147.413 22.8852C146.45 23.0022 149.977 18.7822 151.824 18.062C153.671 17.3417 144.461 16.9354 140.857 20.4228C137.253 23.9102 140.128 19.601 140.128 19.601C140.128 19.601 132.833 22.1219 132.87 31.8238C132.91 42.0213 137.628 42.9632 137.6 44.5206C137.585 45.5118 136.572 45.601 136.126 45.4441C135.486 45.2409 132.596 43.2587 131.177 39.1618C129.484 34.2739 130.17 28.3118 129.868 28.3118C127.815 28.3118 123.405 35.5451 125.368 42.6615C127.037 48.7191 131.054 49.3593 130.484 49.741C120.404 56.7312 126.997 66.8117 126.997 66.8117C127.215 62.0808 137.905 48.8453 141.14 48.8453C143.91 48.8453 146.105 52.4619 155.262 54.001C161.612 55.066 169.495 55.4322 176.553 57.3344C177.762 57.6607 178.261 60.6926 178.566 62.2962C178.623 62.6011 178.617 62.9147 178.548 63.2172C178.479 63.5196 178.347 63.8045 178.163 64.0538C177.181 65.3927 175.423 68.3138 175.423 72.0843C175.423 77.8556 178.076 81.5092 178.076 81.5092C177.999 81.6385 173.459 88.7887 173.152 90.0507C170.351 102.15 154.57 103.634 155.607 98.7862C156.989 92.4085 156.89 91.0203 153.606 90.6356C150.322 90.2508 129.905 87.3205 129.905 87.3205C129.905 87.3205 126.581 87.3205 126.48 90.5124C126.378 93.7044 126.138 97.1948 121.148 95.4311Z" fill="#1C4D55"/>
<path d="M153.263 94.1168C153.263 94.1168 148.569 109.353 136.026 108.122C123.483 106.891 129.485 91.0019 129.947 90.6694L132.304 91.0172L148.836 93.4643L153.263 94.1168Z" fill="#FDB082"/>
<path d="M148.835 93.4641C148.43 94.1463 147.988 94.805 147.508 95.4371C145.563 98.0042 141.789 101.793 136.409 101.901C133.214 101.953 132.1 96.9054 132.02 93.5903C131.992 92.4022 132.103 91.4357 132.303 91.0171L148.835 93.4641Z" fill="#D63F09"/>
<path d="M148.835 93.4641C148.43 94.1463 147.988 94.805 147.508 95.4371C141.528 95.3633 133.941 93.9628 132.02 93.5903C131.992 92.4022 132.103 91.4357 132.303 91.0171L148.835 93.4641Z" fill="#FAFFFF"/>
<path d="M213.381 91.9342C213.381 91.9342 240.674 48.2263 240.674 35.2987C240.674 33.5565 230.003 30.1707 231.554 16.0333C232.148 10.6191 237.187 9.6495 237.187 9.6495C237.187 9.6495 237.802 0.209207 244.161 0.00605753C250.521 -0.197092 265.914 8.21206 267.554 11.9057C269.195 15.5993 264.529 37.5579 260.58 38.1735C259.656 38.3151 260.349 64.4814 238.621 112.76C236.827 116.749 210.356 96.8098 213.381 91.9342Z" fill="#FDAE86"/>
<g opacity="0.26">
<path d="M260.583 38.1736C259.66 38.3183 260.352 64.4815 238.625 112.757C238.206 113.681 236.455 113.32 234.051 112.142C233.557 111.9 233.176 111.476 232.988 110.96C232.8 110.443 232.819 109.874 233.041 109.371C253.821 62.4961 254.895 37.0932 255.818 37.084C259.481 37.0378 263.049 21.8201 263.513 12.6937C263.627 10.5084 266.619 9.87428 267.536 11.8627L267.552 11.8965C269.202 15.6025 264.532 37.558 260.583 38.1736Z" fill="#ED6D34"/>
</g>
<path d="M256.045 13.1401L255.885 13.3864L255.424 14.0666C255.224 14.356 254.993 14.7192 254.725 15.1255C254.457 15.5318 254.183 16.0027 253.906 16.5198L253.7 16.9138C253.635 17.0523 253.574 17.1939 253.509 17.3355C253.371 17.6156 253.269 17.9203 253.146 18.2219C253.1 18.3789 253.051 18.5298 252.998 18.699L252.921 18.9545L252.872 19.1915C252.841 19.3516 252.798 19.4993 252.774 19.6717C252.749 19.8441 252.73 20.0103 252.706 20.1826C252.64 20.8747 252.676 21.5727 252.814 22.2542C252.895 22.5875 253.008 22.9122 253.152 23.2237C253.278 23.536 253.454 23.8259 253.672 24.0825C254.093 24.6074 254.636 25.0207 255.254 25.286C255.32 25.3145 255.388 25.3381 255.458 25.3568C255.523 25.376 255.59 25.3904 255.658 25.3999C255.799 25.425 255.942 25.4364 256.085 25.4338C256.374 25.4204 256.657 25.3514 256.92 25.2306C257.181 25.1097 257.418 24.9417 257.618 24.735C257.669 24.6853 257.717 24.6318 257.76 24.575C257.807 24.5225 257.849 24.4659 257.886 24.4057L257.945 24.3164V24.2949V24.2795L257.975 24.221L258.098 23.9902L258.576 23.1006C258.655 22.9659 258.724 22.826 258.785 22.682C258.846 22.5445 258.908 22.4091 258.97 22.2757C259.09 22.0079 259.207 21.7524 259.317 21.5093L259.594 20.789C259.681 20.5612 259.758 20.3489 259.841 20.1519C259.924 19.9549 259.967 19.7671 260.025 19.6009C260.238 18.9299 260.382 18.5451 260.382 18.5451C260.382 18.5451 260.382 18.9484 260.324 19.6625C260.324 19.841 260.305 20.0411 260.275 20.2534C260.244 20.4658 260.204 20.6967 260.161 20.9429C260.118 21.1892 260.075 21.4539 260.028 21.7309C259.982 22.0079 259.875 22.2942 259.791 22.5958C259.748 22.7466 259.705 22.9036 259.662 23.0606C259.622 23.2197 259.572 23.3759 259.511 23.5285C259.397 23.8363 259.274 24.1441 259.151 24.4734C259.12 24.5534 259.09 24.6335 259.056 24.7166L259.031 24.7781V24.7935V24.8243L259.013 24.8612L258.939 25.0028C258.891 25.0998 258.836 25.1934 258.776 25.2829C258.718 25.3756 258.655 25.464 258.585 25.5476C258.302 25.9056 257.95 26.2038 257.551 26.4249C257.123 26.6681 256.648 26.8153 256.158 26.8563C255.668 26.8972 255.175 26.8309 254.713 26.6619C254.272 26.5006 253.857 26.2756 253.481 25.994C253.103 25.7206 252.763 25.3988 252.469 25.0367C252.172 24.6736 251.931 24.2679 251.755 23.8332C251.571 23.4175 251.434 22.983 251.345 22.5373C251.197 21.6901 251.197 20.8237 251.345 19.9764C251.385 19.7763 251.428 19.5794 251.472 19.3824C251.515 19.1854 251.588 18.9884 251.65 18.7975L251.742 18.5113L251.847 18.265C251.921 18.0927 251.998 17.9234 252.069 17.7572C252.374 17.1475 252.737 16.5683 253.152 16.0273C253.49 15.5769 253.857 15.1492 254.251 14.7469C254.596 14.3837 254.913 14.0882 255.174 13.8512C255.436 13.6142 255.655 13.4356 255.79 13.3125L256.045 13.1401Z" fill="#ED6D34"/>
<path d="M251.869 8.75718L251.635 8.8249C251.54 8.84432 251.449 8.8786 251.364 8.92648L251.21 9.00343C251.149 9.02749 251.091 9.05958 251.038 9.09884C250.754 9.27873 250.49 9.48817 250.25 9.72368L250.038 9.93607L249.832 10.1792C249.684 10.3393 249.548 10.5301 249.404 10.7179C249.099 11.1356 248.821 11.5725 248.573 12.026C248.296 12.5251 248.046 13.0389 247.825 13.5651C247.595 14.1285 247.398 14.7051 247.237 15.2918C247.072 15.8872 246.959 16.4959 246.901 17.1109C246.831 17.7066 246.84 18.3088 246.926 18.9023C246.94 19.0457 246.966 19.1878 247.003 19.3271C247.037 19.4656 247.061 19.6072 247.101 19.7426C247.184 20.0058 247.287 20.2621 247.409 20.5091C247.527 20.7482 247.664 20.9777 247.819 21.1955C247.899 21.297 247.988 21.3955 248.071 21.5033C248.15 21.6056 248.239 21.7004 248.336 21.7865C248.514 21.9651 248.709 22.1269 248.917 22.2697L249.225 22.4882C249.327 22.5529 249.438 22.6052 249.533 22.6637C249.73 22.7815 249.936 22.8844 250.149 22.9715C250.349 23.0607 250.54 23.1531 250.724 23.227C251.103 23.347 251.429 23.4855 251.709 23.5625C252.272 23.7133 252.602 23.8179 252.602 23.8179C252.602 23.8179 252.266 23.8487 251.678 23.8672C251.371 23.8672 251.014 23.8364 250.592 23.7995C250.116 23.733 249.647 23.6227 249.191 23.4701C249.065 23.427 248.933 23.387 248.803 23.3316L248.413 23.1439C248.135 23.0102 247.872 22.8505 247.625 22.6668C247.488 22.5775 247.361 22.4743 247.246 22.359C247.126 22.2482 246.997 22.1373 246.877 22.0142C246.646 21.7555 246.44 21.4763 246.261 21.1801C245.875 20.5596 245.615 19.8694 245.495 19.1486C245.425 18.7881 245.383 18.4228 245.368 18.0559C245.363 17.6911 245.377 17.3264 245.412 16.9632C245.48 16.2517 245.627 15.5498 245.849 14.8701L246.012 14.3746L246.206 13.8975C246.329 13.5897 246.489 13.2819 246.633 12.9741C246.928 12.4129 247.268 11.8766 247.649 11.3704C247.825 11.1242 248.025 10.9056 248.206 10.6902C248.388 10.4747 248.588 10.2808 248.785 10.1023C248.97 9.92956 249.164 9.76721 249.367 9.61595L249.653 9.40972L249.939 9.23428C250.257 9.03847 250.601 8.88921 250.961 8.79104C251.096 8.75218 251.234 8.72742 251.374 8.71717C251.476 8.70235 251.579 8.70235 251.681 8.71717L251.869 8.75718Z" fill="#ED6D34"/>
<path d="M246.645 4.33388H246.58C246.523 4.3258 246.465 4.3258 246.408 4.33388C246.319 4.34805 246.232 4.36967 246.146 4.39852C246.04 4.44091 245.937 4.49133 245.839 4.54934C245.582 4.70634 245.341 4.88775 245.118 5.09107C244.866 5.32413 244.63 5.57513 244.414 5.84211C244.214 6.10958 244.036 6.39264 243.881 6.68857C243.798 6.81785 243.727 6.94097 243.653 7.05178C243.579 7.16259 243.521 7.26724 243.478 7.35958C243.435 7.44253 243.402 7.53037 243.379 7.62121C243.366 7.69547 243.366 7.77164 243.379 7.8459C243.379 7.88284 243.379 7.9167 243.379 7.9444L243.407 8.01828L243.432 8.08599L243.379 8.15986L243.302 8.1414C243.226 8.12208 243.154 8.08638 243.093 8.03674C242.987 7.95591 242.902 7.8502 242.847 7.72894C242.779 7.57469 242.743 7.40811 242.742 7.23953C242.742 6.86263 242.849 6.49346 243.05 6.17454C243.283 5.85639 243.557 5.5707 243.866 5.32501C244.394 4.83278 245.025 4.46288 245.712 4.24154C245.842 4.20276 245.975 4.17496 246.11 4.15843C246.212 4.14641 246.315 4.14641 246.417 4.15843C246.507 4.17567 246.594 4.20464 246.676 4.24462L246.645 4.33388Z" fill="#ED6D34"/>
<path d="M237.289 19.0624C237.564 18.9922 237.835 18.9038 238.099 18.7977C238.354 18.6869 238.606 18.5822 238.843 18.4499C239.307 18.2037 239.742 17.9064 240.139 17.5634C240.328 17.4026 240.502 17.2254 240.66 17.034C240.815 16.852 240.954 16.6562 241.075 16.4491C241.198 16.2546 241.301 16.0484 241.383 15.8335C241.424 15.7247 241.459 15.6137 241.487 15.5011C241.518 15.3903 241.537 15.2733 241.564 15.1595L243.048 15.5165C242.967 15.8197 242.909 16.1283 242.873 16.4399C242.855 16.5911 242.847 16.7433 242.848 16.8955C242.839 17.0451 242.839 17.1952 242.848 17.3448C242.863 17.4916 242.885 17.6375 242.916 17.7819C242.975 18.0705 243.072 18.35 243.205 18.613C243.273 18.7463 243.348 18.8758 243.43 19.0008C243.514 19.1269 243.606 19.2472 243.707 19.361C243.808 19.482 243.918 19.5952 244.036 19.6995C244.276 19.9201 244.538 20.116 244.818 20.2844C245.113 20.4626 245.422 20.618 245.741 20.7491C245.904 20.823 246.071 20.8846 246.24 20.9431C246.409 21.0015 246.585 21.06 246.76 21.1216C246.392 21.1889 246.017 21.2147 245.643 21.1985C245.453 21.1932 245.264 21.1757 245.076 21.1462C244.886 21.1165 244.697 21.0765 244.51 21.0262C243.723 20.8147 243.01 20.3884 242.451 19.795C242.306 19.6419 242.175 19.4772 242.057 19.3025C241.94 19.126 241.837 18.9408 241.749 18.7484C241.568 18.364 241.444 17.9556 241.38 17.5357C241.347 17.332 241.328 17.1263 241.321 16.9201C241.319 16.7146 241.327 16.5091 241.346 16.3045C241.383 15.9008 241.461 15.5017 241.577 15.1133L243.06 15.4703C243.02 15.6304 242.986 15.7935 242.931 15.9505C242.876 16.1075 242.817 16.2583 242.753 16.4153C242.685 16.5673 242.609 16.7153 242.525 16.8585C242.436 17.0001 242.346 17.1417 242.248 17.271C242.153 17.4037 242.051 17.5302 241.94 17.6496C241.829 17.7696 241.709 17.8804 241.589 17.9882C241.347 18.1945 241.085 18.3769 240.807 18.533C240.537 18.6868 240.254 18.8156 239.961 18.9177C239.673 19.0178 239.378 19.093 239.077 19.1424C238.782 19.1951 238.482 19.2188 238.182 19.2132C237.878 19.2067 237.578 19.1559 237.289 19.0624Z" fill="#ED6D34"/>
<path d="M242.01 12.0257C242.681 11.4255 243.309 10.7175 243.454 9.80028C243.497 9.55807 243.492 9.3097 243.439 9.06938C243.386 8.82907 243.287 8.60153 243.146 8.39978C242.53 7.56564 241.444 7.6549 240.536 7.89498C239.519 8.1654 238.547 8.58001 237.648 9.12619C238.809 8.28589 240.052 7.4733 241.462 7.21166C242.872 6.95003 244.5 7.36249 245.303 8.55061C245.981 9.55096 245.95 10.893 245.581 12.0472C245.065 13.6047 244.015 14.9295 242.616 15.787C242.466 15.8812 242.298 15.944 242.123 15.9719C241.947 15.9998 241.768 15.9921 241.596 15.9493C241.423 15.9065 241.261 15.8295 241.12 15.7228C240.978 15.6162 240.859 15.482 240.77 15.3284C240.548 14.9745 240.44 14.5606 240.462 14.1434C240.557 13.2446 241.345 12.6197 242.01 12.0257Z" fill="#F78152"/>
<path d="M248.518 22.651L248.386 22.7188C248.346 22.7512 248.309 22.7861 248.275 22.8234C248.238 22.8788 248.195 22.925 248.155 22.9958C248.063 23.1645 247.987 23.3418 247.93 23.5252C247.859 23.7407 247.792 23.9838 247.727 24.2578C247.598 24.8026 247.475 25.449 247.358 26.1446C247.299 26.4924 247.238 26.8525 247.179 27.2158C247.121 27.579 247.059 27.9545 247.01 28.3269C246.96 28.6994 246.905 29.0749 246.85 29.4412C246.794 29.8074 246.751 30.1707 246.705 30.5215C246.616 31.2233 246.542 31.879 246.486 32.4484C246.456 32.7346 246.437 32.9963 246.419 33.2302C246.4 33.4641 246.382 33.6734 246.379 33.8458C246.376 34.0182 246.379 34.1536 246.379 34.249V34.3968L246.299 34.2737C246.226 34.1564 246.161 34.0351 246.102 33.9104C246.006 33.7167 245.921 33.5173 245.849 33.3133C245.752 33.0471 245.67 32.7759 245.603 32.5007C245.449 31.8257 245.363 31.1368 245.348 30.4446C245.329 29.6569 245.378 28.8691 245.495 28.0899C245.557 27.6928 245.631 27.2989 245.723 26.911C245.815 26.5232 245.92 26.1508 246.031 25.7937C246.247 25.1288 246.541 24.4915 246.905 23.8946C247.16 23.4445 247.513 23.0582 247.939 22.7649C248.012 22.7186 248.091 22.6814 248.173 22.6541C248.237 22.6372 248.302 22.6248 248.367 22.6172L248.518 22.651Z" fill="#ED6D34"/>
<path d="M69.1314 108.189C67.5647 109.002 49.5767 56.1338 48.5087 40.9438C48.4083 39.5759 47.9228 38.2643 47.1082 37.1609C45.9693 35.6003 44.5072 35.3141 43.0698 32.0175C41.4692 28.3577 39.5762 17.8832 38.9637 14.3343C38.8748 13.8299 38.9056 13.3117 39.0537 12.8214C39.2018 12.3311 39.463 11.8825 39.8163 11.5117C44.4765 6.60845 63.8095 -2.47172 67.694 1.13264C72.0032 5.13407 71.5938 9.7511 71.5938 9.7511C72.0894 10.6314 86.1129 18.3388 68.0018 34.3753C63.6925 38.1859 94.4728 88.6408 94.4728 88.6408C87.7165 98.2627 79.3905 105 69.1314 108.189Z" fill="#FDAE86"/>
<path d="M57.5391 23.793C57.5391 23.793 57.696 23.873 57.9638 24.03C58.0384 24.0705 58.1104 24.1158 58.1793 24.1654C58.2562 24.2208 58.3332 24.2854 58.4194 24.3562L58.6964 24.5809C58.7857 24.6671 58.8718 24.7656 58.9642 24.8641C59.0565 24.9626 59.1581 25.0642 59.2504 25.1719C59.3428 25.2797 59.4259 25.412 59.5182 25.5382C59.7054 25.8066 59.876 26.0862 60.0292 26.3754L60.2446 26.8464C60.3201 27.0061 60.3849 27.1706 60.4386 27.3388C60.494 27.5081 60.5617 27.6774 60.6109 27.8498L60.7433 28.3731C60.823 28.7235 60.8836 29.078 60.9249 29.435C60.9643 29.7793 60.9828 30.1257 60.9803 30.4723C60.9832 30.7962 60.9667 31.1199 60.931 31.4418C60.891 31.7497 60.8479 32.039 60.7864 32.3006C60.7351 32.54 60.6672 32.7755 60.5832 33.0055C60.5239 33.1839 60.4541 33.3587 60.3739 33.5287C60.2323 33.8088 60.1431 33.9597 60.1431 33.9597C60.1431 33.9597 60.1431 33.7781 60.1954 33.4795C60.22 33.3318 60.2169 33.1409 60.2385 32.9347C60.26 32.7285 60.2385 32.4915 60.26 32.2391C60.2816 31.9867 60.2446 31.7096 60.2416 31.4203C60.2385 31.131 60.2046 30.8262 60.1646 30.5154C60.1431 30.3584 60.1338 30.2076 60.1092 30.0413C60.0846 29.8751 60.06 29.7182 60.0384 29.555C60.0169 29.3919 59.9738 29.2472 59.9461 29.0687C59.9184 28.8902 59.8907 28.7393 59.8445 28.5793L59.7275 28.096C59.6814 27.936 59.6352 27.7882 59.5921 27.622C59.509 27.3142 59.3797 27.0064 59.2843 26.6986C59.2258 26.557 59.1612 26.4185 59.1058 26.2769C59.0562 26.1393 58.9965 26.0056 58.9272 25.8768C58.8117 25.6321 58.6832 25.3938 58.5425 25.1627L58.3578 24.8549L58.1731 24.5902C58.0749 24.4379 57.9659 24.2928 57.8469 24.1562C57.6376 23.9346 57.5391 23.793 57.5391 23.793Z" fill="#E26125"/>
<path d="M63.6484 15.0576C63.6484 15.0576 63.7439 15.1346 63.8916 15.2823C63.9655 15.3562 64.0609 15.4424 64.1563 15.5501L64.3133 15.7194L64.5011 15.8794C64.6272 15.9903 64.7596 16.1103 64.895 16.2396C65.0305 16.3689 65.2028 16.4797 65.3598 16.612C65.5172 16.7526 65.6849 16.8812 65.8615 16.9968C66.0401 17.1168 66.2186 17.243 66.394 17.3723C66.5695 17.5016 66.7726 17.5847 66.9573 17.6986C67.1372 17.8132 67.3243 17.916 67.5175 18.0064C67.7022 18.0895 67.8746 18.2095 68.0531 18.2711C68.2316 18.3326 68.3978 18.4127 68.5548 18.4835L68.7795 18.585L68.9888 18.6558C69.1212 18.6989 69.2381 18.7451 69.3335 18.782C69.5305 18.859 69.6413 18.9113 69.6413 18.9113C69.6413 18.9113 69.5244 18.939 69.3151 18.9667C69.2104 18.9667 69.0812 18.9975 68.9334 19.0067L68.6933 19.0221C68.6102 19.0221 68.524 19.0221 68.4348 19.0036C68.2532 18.9882 68.0531 18.9636 67.8438 18.9359C67.626 18.8961 67.4119 18.8384 67.2036 18.7636C66.9741 18.7019 66.7522 18.6152 66.5418 18.505C66.3263 18.3973 66.1078 18.2772 65.8923 18.1572C65.6769 18.0371 65.4953 17.8494 65.3075 17.7109C65.1196 17.5659 64.9483 17.4008 64.7965 17.2184C64.6419 17.0583 64.4999 16.8864 64.3718 16.7044C64.2548 16.5228 64.1502 16.3504 64.064 16.1903C64.0178 16.1072 63.9716 16.0333 63.9378 15.9595L63.8577 15.744C63.8085 15.6086 63.7716 15.4855 63.7408 15.387C63.6885 15.1777 63.6484 15.0576 63.6484 15.0576Z" fill="#E26125"/>
<path d="M60.875 4.06006C62.3925 4.38633 63.7499 4.80802 64.3839 6.58404C64.4732 6.83643 64.741 6.98418 64.9072 7.19964C64.7859 7.21779 64.6664 7.24663 64.5502 7.28582C64.3262 7.35926 64.1176 7.47296 63.9346 7.62133C63.7776 7.35046 63.6052 7.08575 63.4236 6.82412C62.6994 5.79467 61.8424 4.86529 60.875 4.06006Z" fill="#E26125"/>
<path d="M65.5881 17.4987C65.1264 18.9023 63.8459 20.5952 59.5859 21.3986C62.2915 20.2074 64.0029 18.4591 64.8586 16.4738C65.3049 15.4365 65.7081 17.1263 65.5881 17.4987Z" fill="#E26125"/>
<path d="M67.1419 14.2144C67.1906 14.3906 67.1912 14.5766 67.1436 14.7531C67.0959 14.9296 67.0018 15.0901 66.871 15.2179C66.7708 15.3396 66.6606 15.4528 66.5417 15.5564C66.1477 15.9012 65.6798 16.2828 65.6737 16.8092C65.3997 16.7076 65.1289 16.5937 64.8642 16.4675C63.8291 16.002 62.9126 15.3086 62.1832 14.4391C61.2598 13.3351 60.8076 11.9122 60.9243 10.4777C60.9911 9.76761 61.2389 9.08654 61.6442 8.49965C62.0495 7.91277 62.5986 7.4397 63.239 7.12573C63.3067 7.09187 63.3744 7.06417 63.4421 7.03647C63.7502 6.92277 64.0704 6.8453 64.3963 6.80562C65.1911 6.72562 65.9938 6.81586 66.751 7.07033C67.877 7.48892 68.9429 8.05398 69.9214 8.75093L67.1511 7.79366C66.434 7.5505 65.6645 7.30118 64.9288 7.41199C64.8081 7.43307 64.6888 7.46186 64.5718 7.49817C64.3484 7.5729 64.14 7.68648 63.9562 7.83368C63.6949 8.04335 63.4784 8.30347 63.3198 8.59855C63.1612 8.89362 63.0635 9.21761 63.0327 9.55121C63.0105 10.0004 63.078 10.4494 63.2313 10.8722C63.3846 11.295 63.6205 11.683 63.9254 12.0136C64.3793 12.5075 64.9237 12.9098 65.529 13.1987C65.7355 13.3027 65.9471 13.3962 66.1631 13.4788C66.508 13.5772 66.819 13.7689 67.0619 14.0328C67.0965 14.0895 67.1234 14.1506 67.1419 14.2144Z" fill="#F4814E"/>
<path d="M49.1484 13.2017C49.1484 13.2017 49.4254 13.3279 49.8933 13.5741C50.1765 13.7269 50.4472 13.9019 50.7028 14.0974C51.0483 14.3407 51.3745 14.6103 51.6785 14.9038C51.8565 15.0676 52.024 15.2424 52.1803 15.4271C52.3604 15.6157 52.529 15.8152 52.6851 16.0242C52.842 16.2397 52.9929 16.4674 53.1652 16.6983C53.3376 16.9291 53.4515 17.1939 53.5992 17.4524C53.7453 17.7145 53.8738 17.9859 53.984 18.265C54.0425 18.4035 54.104 18.5451 54.1625 18.6898C54.221 18.8344 54.2579 18.9976 54.3041 19.133L54.4426 19.5824L54.5103 19.8071L54.5596 20.0472C54.6298 20.3638 54.6802 20.6846 54.7104 21.0075C54.7804 21.6817 54.7262 22.3629 54.5503 23.0175L54.4826 23.2668C54.4549 23.3499 54.418 23.4299 54.3841 23.51C54.3226 23.6725 54.2463 23.8291 54.1563 23.9778L54.0178 24.1994L53.9501 24.3102L53.9163 24.3626V24.378L53.8855 24.418L53.867 24.4395L53.7285 24.5996C53.6808 24.6582 53.6294 24.7138 53.5746 24.7658C53.4453 24.8887 53.3097 25.0048 53.1683 25.1136C53.0429 25.2098 52.9124 25.2992 52.7774 25.3814C52.5216 25.5341 52.2527 25.6639 51.974 25.7692C51.4805 25.9524 50.9611 26.0563 50.435 26.077C50.2072 26.077 50.0041 26.1047 49.7856 26.077L49.17 26.0339C48.7944 26.0032 48.4805 25.9324 48.2188 25.8923C47.7017 25.7846 47.4062 25.7046 47.4062 25.7046C47.4062 25.7046 47.7141 25.6523 48.2281 25.5845L49.1515 25.443L49.6871 25.3383C49.8748 25.3014 50.0903 25.2336 50.3027 25.1813C50.7236 25.0717 51.1282 24.9072 51.5062 24.6919C51.7036 24.5808 51.892 24.4542 52.0695 24.3133C52.1587 24.2456 52.2357 24.1594 52.3219 24.0886C52.408 24.0178 52.4511 23.9378 52.525 23.867C52.5656 23.8177 52.6036 23.7663 52.6389 23.7131L52.762 23.5438L52.7774 23.5223L52.7559 23.553L52.7743 23.5161L52.8113 23.4422L52.8882 23.2914C52.94 23.1934 52.9812 23.0903 53.0113 22.9836C53.0298 22.9282 53.0544 22.8759 53.0698 22.8205L53.1067 22.645C53.2106 22.1504 53.2366 21.6425 53.1837 21.1399C53.1605 20.8722 53.1224 20.6061 53.0698 20.3427C53.0298 20.0841 52.9405 19.8132 52.879 19.5516C52.842 19.4193 52.8174 19.2838 52.7743 19.1576L52.645 18.7729C52.5558 18.5205 52.4819 18.265 52.3711 18.028C52.2603 17.791 52.1649 17.5478 52.0633 17.317C51.9617 17.0861 51.8294 16.8737 51.7216 16.6552C51.6139 16.4437 51.4947 16.2382 51.3646 16.0396C51.2552 15.8449 51.136 15.6559 51.0075 15.4732C50.7521 15.1316 50.5428 14.7776 50.3088 14.5221C50.0749 14.2667 49.9056 13.9927 49.7117 13.8111C49.3454 13.4356 49.1484 13.2017 49.1484 13.2017Z" fill="#E26125"/>
<path d="M54.5078 8.6001L54.7233 8.68012C54.8587 8.73553 55.068 8.80632 55.3204 8.92021C55.6264 9.06395 55.9244 9.22424 56.213 9.40038C56.3793 9.50811 56.5609 9.61584 56.7425 9.74204C56.9241 9.86824 57.1057 10.016 57.2996 10.1668C57.4935 10.3176 57.6689 10.5023 57.8659 10.6808C58.0629 10.8594 58.2353 11.0748 58.4261 11.2964C58.8107 11.7546 59.1509 12.2482 59.4419 12.7708C59.7583 13.3338 60.0132 13.9293 60.2022 14.5468C60.3971 15.1878 60.5271 15.8467 60.59 16.5137C60.6409 17.1851 60.6193 17.86 60.5253 18.5267C60.4308 19.1761 60.255 19.8111 60.0021 20.4166C59.7662 20.9877 59.4489 21.5216 59.0602 22.0018C58.709 22.4347 58.2939 22.8115 57.829 23.1191C57.6254 23.254 57.4113 23.3723 57.1888 23.4731C57.0841 23.5162 56.9856 23.5685 56.881 23.6055L56.5732 23.7009C56.2421 23.8023 55.9 23.8633 55.5543 23.8825C55.3374 23.9043 55.1188 23.9043 54.9018 23.8825L54.674 23.8609L54.8926 23.7963C55.0954 23.7413 55.2947 23.6745 55.4897 23.5962C55.6284 23.5468 55.7631 23.4872 55.8929 23.4177C56.0459 23.3466 56.194 23.2654 56.3362 23.1745L56.5701 23.0268C56.6501 22.9745 56.7209 22.9067 56.8009 22.8483C56.9644 22.7219 57.1187 22.5841 57.2626 22.4358C57.5835 22.1101 57.8617 21.745 58.0906 21.3493C58.3504 20.9105 58.557 20.4425 58.7062 19.9549C58.8606 19.4316 58.9637 18.8945 59.014 18.3513C59.0618 17.7859 59.0618 17.2175 59.014 16.6522C58.9752 16.0812 58.8918 15.5142 58.7647 14.9562C58.623 14.4166 58.4398 13.8887 58.2168 13.3772C58.0064 12.8946 57.7637 12.4267 57.4904 11.9767L57.081 11.3611L56.6624 10.804L56.2438 10.3053C56.1084 10.1483 55.9699 9.99752 55.8437 9.87132C55.5882 9.59737 55.345 9.38807 55.1542 9.19108C54.7417 8.81864 54.5078 8.6001 54.5078 8.6001Z" fill="#E26125"/>
<path d="M45.6258 18.0342C45.6258 18.0342 45.6966 18.1204 45.8012 18.2773C45.9059 18.4343 46.0475 18.6621 46.2014 18.9391C46.9161 20.2939 47.3949 21.7605 47.6173 23.2761C47.6573 23.5839 47.6757 23.8547 47.6819 24.0456C47.688 24.2364 47.6819 24.3534 47.6819 24.3534C47.6819 24.3534 47.6111 24.2672 47.5064 24.1102C47.4018 23.9532 47.2602 23.7285 47.1063 23.4515C46.7479 22.7764 46.4502 22.0708 46.2167 21.3431C45.9774 20.6159 45.8023 19.8692 45.6935 19.1115C45.6535 18.8037 45.635 18.5328 45.6288 18.3451C45.6227 18.1573 45.6258 18.0342 45.6258 18.0342Z" fill="#E26125"/>
<path d="M94.3065 88.7732C88.0807 98.3274 79.7208 104.586 69.2268 107.549C68.9316 107.632 68.6593 107.781 68.4306 107.985C68.2018 108.189 68.0227 108.443 67.9069 108.727C67.7911 109.011 67.7417 109.317 67.7624 109.623C67.7831 109.929 67.8734 110.226 68.0263 110.492L74.5702 121.794C87.9719 116.786 98.2494 109.482 104.735 99.4324L97.6554 88.7763C97.4732 88.4986 97.2249 88.2706 96.9328 88.1126C96.6406 87.9547 96.3138 87.8719 95.9818 87.8716C95.6497 87.8713 95.3227 87.9535 95.0303 88.1109C94.7379 88.2683 94.4892 88.4959 94.3065 88.7732Z" fill="#89C1CB"/>
<path d="M204.626 103.821C211.053 115.675 219.909 123.57 231.328 127.276C231.76 127.414 232.227 127.4 232.65 127.237C233.074 127.074 233.429 126.772 233.658 126.38L239.931 115.795C240.103 115.508 240.178 115.174 240.145 114.842C240.113 114.509 239.974 114.196 239.75 113.948L239.134 113.271C229.13 111.341 212.586 96.1049 213.38 91.9219C213.559 90.9985 214.498 90.112 214.498 90.112C214.238 89.8705 213.896 89.7363 213.542 89.7363C213.187 89.7363 212.846 89.8705 212.586 90.112C210.718 91.7618 207.76 96.8436 204.685 101.716C204.488 102.03 204.378 102.391 204.368 102.761C204.358 103.131 204.447 103.497 204.626 103.821Z" fill="#89C1CB"/>
<path d="M122.89 126.279C106.454 159.931 112.828 200.404 120.019 241.32H125.559C117.895 195.02 114.17 152.199 129.662 126.279H122.89Z" fill="white"/>
<path d="M179.324 126.279C166.397 159.641 160.816 199.228 158.188 241.32H165.165C167.72 198.862 173.476 159.251 186.712 126.279H179.324Z" fill="white"/>
<path d="M83.2891 234.24L89.3189 239.267L140.743 238.029L83.2891 234.24Z" fill="#1B525A"/>
<path d="M90.8265 237.922C90.6954 237.919 90.5686 237.875 90.4645 237.795C90.3604 237.715 90.2845 237.604 90.2478 237.478L74.5499 178.956C74.4162 178.418 74.1214 177.934 73.705 177.568C73.2886 177.202 72.7704 176.972 72.2198 176.909H72.1367L1.17292 177.014C0.963619 176.955 0.323391 178.005 0.369561 178.245L15.8612 240.846C15.8942 240.982 15.9739 241.102 16.0864 241.185C16.1989 241.269 16.3371 241.31 16.4768 241.301V241.385H141.752C141.831 241.385 141.909 241.37 141.982 241.34C142.055 241.31 142.121 241.266 142.177 241.211C142.232 241.155 142.277 241.089 142.307 241.017C142.337 240.944 142.353 240.866 142.353 240.787V238.522C142.353 238.361 142.29 238.207 142.178 238.092C142.066 237.977 141.913 237.91 141.752 237.906L90.8265 237.922Z" fill="#7F7E7C"/>
<path d="M0.382812 178.245L72.1038 178.411L87.7586 241.32H15.9761L0.382812 178.245Z" fill="#394F56"/>
<path d="M43.2636 218.212C46.8258 217.726 49.173 213.374 48.5061 208.493C47.8392 203.612 44.4108 200.05 40.8485 200.536C37.2862 201.023 34.9391 205.374 35.6059 210.255C36.2728 215.137 39.7013 218.699 43.2636 218.212Z" fill="#AFAFAF"/>
<path d="M262.467 66.0791C262.467 66.0791 262.667 66.4054 262.987 66.984L263.252 67.4673C263.347 67.6427 263.424 67.849 263.519 68.0613C263.745 68.5363 263.94 69.0258 264.101 69.5265L264.378 70.3883C264.473 70.6961 264.523 71.0039 264.603 71.3333C264.753 72.022 264.856 72.7203 264.911 73.4233C264.929 73.7896 264.911 74.1651 264.929 74.5467C264.932 74.9317 264.907 75.3164 264.855 75.6979C264.837 75.8918 264.815 76.0857 264.797 76.2827C264.77 76.4775 264.733 76.6707 264.686 76.8614L264.563 77.4432C264.528 77.6382 264.48 77.8305 264.418 78.0188L264.043 79.1453C263.895 79.5085 263.735 79.8625 263.562 80.2165C263.401 80.5656 263.217 80.9038 263.011 81.2291L262.722 81.7155C262.63 81.8755 262.507 82.0233 262.414 82.1679C262.196 82.4757 261.986 82.7558 261.771 83.0359L261.085 83.7993C260.662 84.2588 260.211 84.6906 259.733 85.092C259.312 85.486 258.865 85.7754 258.502 86.0616C258.179 86.3016 257.843 86.5235 257.496 86.7265C256.926 87.0712 256.594 87.2528 256.594 87.2528C256.594 87.2528 256.846 86.9635 257.302 86.4864C257.529 86.2494 257.813 85.9693 258.108 85.6215L258.588 85.0767C258.755 84.8858 258.942 84.6981 259.108 84.461L259.644 83.787C259.733 83.6669 259.838 83.5561 259.927 83.433L260.192 83.0513L260.752 82.2664C260.918 81.9832 261.097 81.7031 261.272 81.4138C261.456 81.1245 261.621 80.8244 261.768 80.515C261.848 80.3611 261.928 80.2072 262.005 80.0502C262.091 79.8973 262.165 79.7377 262.227 79.5731C262.358 79.2489 262.493 78.9227 262.633 78.5943C262.737 78.2558 262.845 77.9172 262.941 77.5786C262.999 77.4108 263.045 77.239 263.079 77.0646L263.196 76.5475C263.23 76.372 263.285 76.2027 263.307 76.0273L263.381 75.504C263.476 74.8213 263.533 74.1338 263.553 73.4448C263.529 72.7707 263.553 72.112 263.47 71.4903C263.439 71.1825 263.424 70.8747 263.384 70.5669C263.344 70.2591 263.298 69.9882 263.255 69.7173C263.187 69.1633 263.061 68.6769 262.978 68.2306L262.848 67.615C262.799 67.4242 262.753 67.2457 262.713 67.0856C262.531 66.4546 262.467 66.0791 262.467 66.0791Z" fill="#1C4D55"/>
<path d="M270.483 56.7373C270.483 56.7373 270.658 57.3929 270.938 58.5441C271.003 58.8334 271.092 59.1597 271.16 59.5014C271.228 59.843 271.28 60.2401 271.348 60.6495C271.415 61.0589 271.486 61.499 271.56 61.9607C271.634 62.4224 271.646 62.9149 271.692 63.4228C271.739 63.9306 271.797 64.4662 271.816 65.0172C271.834 65.5682 271.816 66.1437 271.837 66.7316C271.837 67.0394 271.837 67.3226 271.837 67.6243C271.837 67.9259 271.806 68.2399 271.791 68.5477C271.757 69.1633 271.729 69.7974 271.671 70.4376C271.511 71.7119 271.382 73.0385 271.092 74.359C270.871 75.6948 270.477 77.0122 270.135 78.3419C269.692 79.6409 269.304 80.9613 268.756 82.1987C268.276 83.4638 267.657 84.6427 267.094 85.7969C266.786 86.3633 266.478 86.9081 266.17 87.4437C266.017 87.7114 265.863 87.9731 265.709 88.2347C265.555 88.4963 265.376 88.7364 265.216 88.9827C264.886 89.469 264.568 89.942 264.262 90.4016C263.954 90.8541 263.597 91.2635 263.286 91.6729C262.975 92.0822 262.671 92.467 262.363 92.821L261.47 93.7998C261.19 94.1076 260.932 94.3938 260.685 94.6555C260.439 94.9171 260.187 95.1325 259.974 95.3388C259.106 96.1514 258.602 96.6008 258.602 96.6008C258.602 96.6008 259.011 96.056 259.747 95.1326C259.928 94.8986 260.141 94.6524 260.347 94.3661L261.015 93.4273C261.252 93.0949 261.507 92.744 261.772 92.3716L262.557 91.1588C262.825 90.7341 263.123 90.3062 263.391 89.8353L264.225 88.3855C264.364 88.1362 264.533 87.89 264.653 87.6314C264.773 87.3729 264.918 87.0989 265.053 86.8311C265.315 86.2894 265.613 85.7538 265.875 85.1875C266.137 84.6211 266.386 84.0394 266.644 83.4515C266.903 82.8636 267.128 82.2541 267.371 81.6477C267.869 80.4381 268.242 79.1607 268.664 77.9018C269.002 76.6182 269.39 75.344 269.633 74.0573C269.762 73.4171 269.941 72.7892 270.015 72.152C270.089 71.5149 270.221 70.8931 270.323 70.2775C270.424 69.6619 270.455 69.0463 270.532 68.4523C270.569 68.1445 270.603 67.8582 270.637 67.5658C270.67 67.2734 270.674 66.984 270.692 66.6978C270.726 66.1253 270.757 65.5682 270.791 65.0264C270.824 64.4847 270.791 63.9676 270.815 63.4628C270.84 62.958 270.815 62.4809 270.815 62.0223C270.815 61.5636 270.778 61.1327 270.76 60.7264C270.741 60.3201 270.729 59.9323 270.717 59.5783C270.704 59.2243 270.655 58.8981 270.63 58.6026C270.535 57.4145 270.483 56.7373 270.483 56.7373Z" fill="#1C4D55"/>
<path d="M45.8142 65.7617C45.8142 65.7617 45.6141 66.088 45.294 66.6697L45.0293 67.1499C44.9339 67.3254 44.8569 67.5316 44.7584 67.744C44.5353 68.2209 44.3421 68.7113 44.1798 69.2122L43.9028 70.0709C43.8073 70.3788 43.7581 70.6866 43.6781 71.0159C43.5277 71.7047 43.4249 72.403 43.3703 73.1059C43.3518 73.4752 43.3703 73.8508 43.3518 74.2294C43.3489 74.6144 43.3736 74.9991 43.4257 75.3805C43.4441 75.5745 43.4657 75.7714 43.4841 75.9654C43.5101 76.1602 43.5471 76.3534 43.595 76.544L43.7181 77.1258C43.7525 77.3209 43.8008 77.5132 43.8627 77.7014C43.9889 78.0769 44.1121 78.4555 44.2352 78.8279C44.3583 79.2004 44.5584 79.5482 44.7184 79.9022C44.88 80.2503 45.0641 80.5875 45.2694 80.9117L45.5587 81.3981C45.6511 81.5612 45.7742 81.7059 45.8665 81.8536C46.0851 82.1614 46.2944 82.4384 46.5098 82.7185L47.1962 83.485C47.9814 84.3216 48.8475 85.0784 49.7818 85.7442C50.1033 85.9863 50.4395 86.2084 50.7883 86.4091C51.3577 86.7569 51.6902 86.9385 51.6902 86.9385C51.6902 86.9385 51.4378 86.6492 50.9822 86.1721C50.7544 85.932 50.4713 85.6519 50.1758 85.3041L49.6956 84.7623C49.5294 84.5715 49.3416 84.3807 49.1754 84.1467L48.6398 83.4727C48.5506 83.3526 48.4459 83.2449 48.3567 83.1187L48.0919 82.737L47.5317 81.9552C47.3655 81.672 47.187 81.3888 47.0116 81.0995C46.8277 80.8106 46.6622 80.5104 46.516 80.2007C46.436 80.0468 46.3559 79.8929 46.279 79.7359C46.1928 79.584 46.1187 79.4255 46.0574 79.2619C45.924 78.9357 45.7886 78.6094 45.6511 78.2831C45.5464 77.9445 45.4387 77.6059 45.3433 77.2674C45.2849 77.0995 45.2386 76.9278 45.2048 76.7533L45.0878 76.2331C45.0539 76.0608 44.9985 75.8915 44.977 75.716L44.9031 75.1928C44.8084 74.51 44.7508 73.8226 44.7307 73.1336C44.7554 72.4595 44.7307 71.8008 44.8139 71.179C44.8446 70.8712 44.86 70.5634 44.9 70.2556C44.94 69.9478 44.9862 69.677 45.0293 69.403C45.097 68.8521 45.2232 68.3657 45.3063 67.9163L45.4356 67.3007L45.571 66.7682C45.7373 66.1372 45.8142 65.7617 45.8142 65.7617Z" fill="#1C4D55"/>
<path d="M37.7996 56.4233C37.7996 56.4233 37.6242 57.079 37.3441 58.2301C37.2795 58.5195 37.1902 58.8457 37.1225 59.1874C37.0548 59.5291 36.9994 59.9231 36.9347 60.3324C36.8701 60.7418 36.7962 61.185 36.7223 61.6467C36.6485 62.1084 36.6362 62.5979 36.5869 63.1088C36.5377 63.6198 36.4853 64.1523 36.4669 64.7032C36.4484 65.2542 36.4669 65.8267 36.4453 66.4146C36.4453 66.7224 36.4453 67.0087 36.4453 67.3103C36.4453 67.6119 36.4761 67.9259 36.4915 68.2337C36.5253 68.8493 36.553 69.4834 36.6115 70.1236C36.7716 71.3979 36.9009 72.7245 37.1902 74.045C37.4118 75.3809 37.8058 76.6983 38.1475 78.028C38.5876 79.33 38.9785 80.6474 39.5264 81.8847C40.0066 83.1498 40.6253 84.3318 41.1885 85.486C41.4963 86.0524 41.8041 86.5972 42.112 87.1328L42.5737 87.9207C42.7306 88.1793 42.9061 88.4225 43.0661 88.6687L44.0203 90.0907C44.3281 90.5432 44.6852 90.9526 44.9961 91.3589C45.3069 91.7652 45.6117 92.153 45.9195 92.5101L46.8121 93.4889C47.0953 93.7967 47.3538 94.0829 47.6001 94.3415C47.8463 94.6 48.0987 94.8186 48.3111 95.0248C49.1791 95.8405 49.6839 96.2868 49.6839 96.2868C49.6839 96.2868 49.2745 95.742 48.5389 94.8186C48.3573 94.5877 48.1449 94.3415 47.9386 94.0522L47.2707 93.1287L46.5104 92.0699C46.2642 91.6862 46.0036 91.283 45.7286 90.8602C45.4608 90.4324 45.1623 90.0046 44.8945 89.5367L44.0603 88.0869C43.9218 87.8376 43.7525 87.5914 43.6325 87.3298L43.2324 86.5326C42.9707 85.9908 42.6722 85.4522 42.4105 84.8889C42.1489 84.3256 41.8996 83.7377 41.641 83.1529C41.3825 82.5681 41.1578 81.9555 40.9146 81.3461C40.416 80.1364 40.0435 78.8621 39.6218 77.6001C39.2833 76.3166 38.8954 75.0454 38.6523 73.7588C38.523 73.1185 38.3445 72.4875 38.2706 71.8535C38.1967 71.2194 38.0644 70.5946 37.9628 69.979C37.8612 69.3633 37.8304 68.7477 37.7504 68.1506C37.7155 67.851 37.6817 67.5555 37.6488 67.2641C37.618 66.9717 37.6119 66.6824 37.5934 66.3961C37.5596 65.8236 37.5288 65.2665 37.4949 64.7278C37.4611 64.1892 37.4949 63.6659 37.4703 63.1642C37.4457 62.6625 37.4703 62.1792 37.4703 61.7206C37.4703 61.262 37.5072 60.8311 37.5257 60.4248C37.5442 60.0185 37.5565 59.6337 37.5688 59.2797C37.5811 58.9258 37.6304 58.5964 37.655 58.3009C37.7535 57.1005 37.7996 56.4233 37.7996 56.4233Z" fill="#1C4D55"/>
</g>
<defs>
<clipPath id="clip0_22398_9623">
<rect width="285.234" height="250" fill="white" transform="translate(0.382812)"/>
</clipPath>
</defs>
</svg>
