<svg width="32" height="33" viewBox="0 0 32 33" fill="currentColor" xmlns="http://www.w3.org/2000/svg">
<path fill-rule="evenodd" clip-rule="evenodd" d="M15.3346 27.5163H3.93464C3.86391 27.5163 3.79608 27.4882 3.74607 27.4382C3.69606 27.3882 3.66797 27.3204 3.66797 27.2496V25.315C3.66797 24.2083 4.45864 23.2323 5.6773 22.403C7.8533 20.9177 11.3746 19.9817 15.3346 19.9817C15.5999 19.9817 15.8542 19.8763 16.0417 19.6888C16.2293 19.5012 16.3346 19.2469 16.3346 18.9817C16.3346 18.7164 16.2293 18.4621 16.0417 18.2745C15.8542 18.087 15.5999 17.9817 15.3346 17.9817C10.9053 17.9817 6.98397 19.0896 4.5493 20.7496C2.69197 22.0163 1.66797 23.6257 1.66797 25.315V27.2496C1.66797 27.8508 1.90678 28.4273 2.33186 28.8524C2.75694 29.2775 3.33348 29.5163 3.93464 29.5163H15.3346C15.5999 29.5163 15.8542 29.411 16.0417 29.2234C16.2293 29.0359 16.3346 28.7815 16.3346 28.5163C16.3346 28.2511 16.2293 27.9967 16.0417 27.8092C15.8542 27.6217 15.5999 27.5163 15.3346 27.5163ZM15.3346 2.16565C11.2866 2.16565 8.0013 5.45098 8.0013 9.49898C8.0013 13.547 11.2866 16.8323 15.3346 16.8323C19.3826 16.8323 22.668 13.547 22.668 9.49898C22.668 5.45098 19.3826 2.16565 15.3346 2.16565ZM15.3346 4.16565C18.2786 4.16565 20.668 6.55498 20.668 9.49898C20.668 12.443 18.2786 14.8323 15.3346 14.8323C12.3906 14.8323 10.0013 12.443 10.0013 9.49898C10.0013 6.55498 12.3906 4.16565 15.3346 4.16565ZM23.3346 19.083C22.0987 19.1189 20.9254 19.635 20.0639 20.5219C19.2024 21.4088 18.7205 22.5965 18.7205 23.833C18.7205 25.0694 19.2024 26.2572 20.0639 27.1441C20.9254 28.0309 22.0987 28.5471 23.3346 28.583C25.956 28.583 28.0853 26.4536 28.0853 23.8323C28.0853 21.211 25.956 19.083 23.3346 19.083ZM23.3346 21.083C24.852 21.083 26.0853 22.315 26.0853 23.8323C26.0853 25.3496 24.852 26.583 23.3346 26.583C21.8173 26.583 20.584 25.3496 20.584 23.8323C20.584 22.315 21.8173 21.083 23.3346 21.083Z" fill="currentColor"/>
<path fill-rule="evenodd" clip-rule="evenodd" d="M24.3281 20.0806V17.8313C24.3281 17.5661 24.2228 17.3117 24.0352 17.1242C23.8477 16.9367 23.5933 16.8313 23.3281 16.8313C23.0629 16.8313 22.8086 16.9367 22.621 17.1242C22.4335 17.3117 22.3281 17.5661 22.3281 17.8313V20.082C22.3283 20.3472 22.4338 20.6015 22.6215 20.7889C22.8092 20.9763 23.0636 21.0815 23.3288 21.0813C23.594 21.0811 23.8483 20.9756 24.0357 20.7879C24.2231 20.6003 24.3283 20.3458 24.3281 20.0806ZM26.6868 21.8873L28.2775 20.2953C28.4649 20.1079 28.5702 19.8537 28.5702 19.5886C28.5702 19.3236 28.4649 19.0694 28.2775 18.882C28.09 18.6945 27.8358 18.5893 27.5708 18.5893C27.3057 18.5893 27.0515 18.6945 26.8641 18.882L25.2721 20.4726C25.0851 20.6605 24.9801 20.9149 24.9801 21.18C24.9801 21.4451 25.0851 21.6994 25.2721 21.8873C25.46 22.0743 25.7143 22.1793 25.9795 22.1793C26.2446 22.1793 26.4989 22.0743 26.6868 21.8873ZM27.0775 24.8313H29.3281C29.5933 24.8313 29.8477 24.7259 30.0352 24.5384C30.2228 24.3509 30.3281 24.0965 30.3281 23.8313C30.3281 23.5661 30.2228 23.3117 30.0352 23.1242C29.8477 22.9367 29.5933 22.8313 29.3281 22.8313H27.0775C26.8122 22.8313 26.5579 22.9367 26.3704 23.1242C26.1828 23.3117 26.0775 23.5661 26.0775 23.8313C26.0775 24.0965 26.1828 24.3509 26.3704 24.5384C26.5579 24.7259 26.8122 24.8313 27.0775 24.8313ZM25.2721 27.19L26.8641 28.7806C26.9569 28.8734 27.0671 28.947 27.1883 28.9973C27.3096 29.0475 27.4396 29.0733 27.5708 29.0733C27.702 29.0733 27.832 29.0475 27.9532 28.9973C28.0745 28.947 28.1847 28.8734 28.2775 28.7806C28.3703 28.6878 28.4439 28.5777 28.4941 28.4564C28.5443 28.3352 28.5702 28.2052 28.5702 28.074C28.5702 27.9427 28.5443 27.8128 28.4941 27.6915C28.4439 27.5703 28.3703 27.4601 28.2775 27.3673L26.6868 25.7753C26.4989 25.5883 26.2446 25.4833 25.9795 25.4833C25.7143 25.4833 25.46 25.5883 25.2721 25.7753C25.0851 25.9632 24.9801 26.2175 24.9801 26.4826C24.9801 26.7477 25.0851 27.0021 25.2721 27.19ZM22.3281 27.5806V29.8313C22.3281 30.0965 22.4335 30.3509 22.621 30.5384C22.8086 30.7259 23.0629 30.8313 23.3281 30.8313C23.5933 30.8313 23.8477 30.7259 24.0352 30.5384C24.2228 30.3509 24.3281 30.0965 24.3281 29.8313V27.5806C24.3281 27.3154 24.2228 27.0611 24.0352 26.8735C23.8477 26.686 23.5933 26.5806 23.3281 26.5806C23.0629 26.5806 22.8086 26.686 22.621 26.8735C22.4335 27.0611 22.3281 27.3154 22.3281 27.5806ZM19.9695 25.7753L18.3788 27.3673C18.286 27.4601 18.2124 27.5703 18.1622 27.6915C18.1119 27.8128 18.0861 27.9427 18.0861 28.074C18.0861 28.2052 18.1119 28.3352 18.1622 28.4564C18.2124 28.5777 18.286 28.6878 18.3788 28.7806C18.4716 28.8734 18.5818 28.947 18.703 28.9973C18.8243 29.0475 18.9542 29.0733 19.0855 29.0733C19.2167 29.0733 19.3467 29.0475 19.4679 28.9973C19.5892 28.947 19.6993 28.8734 19.7921 28.7806L21.3841 27.19C21.5711 27.0021 21.6761 26.7477 21.6761 26.4826C21.6761 26.2175 21.5711 25.9632 21.3841 25.7753C21.1962 25.5883 20.9419 25.4833 20.6768 25.4833C20.4117 25.4833 20.1574 25.5883 19.9695 25.7753ZM19.5775 22.8313H17.3281C17.0629 22.8313 16.8086 22.9367 16.621 23.1242C16.4335 23.3117 16.3281 23.5661 16.3281 23.8313C16.3281 24.0965 16.4335 24.3509 16.621 24.5384C16.8086 24.7259 17.0629 24.8313 17.3281 24.8313H19.5775C19.8427 24.8313 20.097 24.7259 20.2846 24.5384C20.4721 24.3509 20.5775 24.0965 20.5775 23.8313C20.5775 23.5661 20.4721 23.3117 20.2846 23.1242C20.097 22.9367 19.8427 22.8313 19.5775 22.8313ZM21.3841 20.4726L19.7921 18.882C19.6993 18.7892 19.5892 18.7156 19.4679 18.6653C19.3467 18.6151 19.2167 18.5893 19.0855 18.5893C18.9542 18.5893 18.8243 18.6151 18.703 18.6653C18.5818 18.7156 18.4716 18.7892 18.3788 18.882C18.286 18.9748 18.2124 19.0849 18.1622 19.2062C18.1119 19.3274 18.0861 19.4574 18.0861 19.5886C18.0861 19.7199 18.1119 19.8498 18.1622 19.9711C18.2124 20.0923 18.286 20.2025 18.3788 20.2953L19.9695 21.8873C20.1574 22.0743 20.4117 22.1793 20.6768 22.1793C20.9419 22.1793 21.1962 22.0743 21.3841 21.8873C21.5711 21.6994 21.6761 21.4451 21.6761 21.18C21.6761 20.9149 21.5711 20.6605 21.3841 20.4726Z" fill="currentColor"/>
</svg>
