<svg width="32" height="33" viewBox="0 0 32 33" fill="currentColor" xmlns="http://www.w3.org/2000/svg">
<path d="M23.5 16C19.2635 15.9325 16.0265 20.2285 17.2525 24.275L13 26.729V16.335L22 11.14V14.0605C22.007 14.7165 22.9915 14.7175 23 14.0605V10.2755C22.9968 10.2464 22.993 10.2174 22.9885 10.1885C22.969 10.0405 22.871 9.92249 22.75 9.84249L12.75 4.06749C12.6722 4.02927 12.5867 4.0094 12.5 4.0094C12.4133 4.0094 12.3278 4.02927 12.25 4.06749L2.25 9.83999C2.1025 9.93999 2.008 10.0945 2 10.2745V21.8195C2 21.9073 2.02311 21.9935 2.06699 22.0695C2.11087 22.1455 2.17399 22.2086 2.25 22.2525L12.25 28.0275C12.409 28.1105 12.591 28.1145 12.75 28.0275L17.607 25.2245C18.64 27.45 20.89 29 23.5 29C32.12 28.644 32.124 16.358 23.5 16ZM7.5 7.96399L16.5 13.16L12.5 15.4695L3.5 10.2735L7.5 7.96399ZM12.5 5.07749L21.499 10.274L17.5 12.5825L8.5 7.38649L12.5 5.07749ZM3 11.1395L12 16.3355V26.73L3 21.531V11.14V11.1395ZM23.5 28C20.4675 28 18 25.5325 18 22.5C18.302 15.2035 28.699 15.2055 29 22.5C29 25.5325 26.5325 28 23.5 28Z" fill="currentColor"/>
<path d="M26.5 22H24V19.5C23.99 18.845 23.011 18.8415 23 19.5V22H20.5C20.3674 22 20.2402 22.0527 20.1464 22.1465C20.0527 22.2402 20 22.3674 20 22.5C20 22.6326 20.0527 22.7598 20.1464 22.8536C20.2402 22.9473 20.3674 23 20.5 23H23V25.5C23 25.6326 23.0527 25.7598 23.1464 25.8536C23.2402 25.9473 23.3674 26 23.5 26C23.6326 26 23.7598 25.9473 23.8536 25.8536C23.9473 25.7598 24 25.6326 24 25.5V23H26.5C27.155 22.99 27.1585 22.011 26.5 22Z" fill="currentColor"/>
</svg>
