<svg width="24" height="25" viewBox="0 0 24 25" fill="currentColor" xmlns="http://www.w3.org/2000/svg">
<g clip-path="url(#clip0_22705_17919)">
<path d="M13.2008 2.89994H16.4008C16.5069 2.89994 16.6086 2.8578 16.6836 2.78279C16.7586 2.70778 16.8008 2.60604 16.8008 2.49996C16.8008 2.39388 16.7586 2.29214 16.6836 2.21713C16.6086 2.14212 16.5069 2.09998 16.4008 2.09998H13.2008C13.0947 2.09998 12.9929 2.14212 12.9179 2.21713C12.8429 2.29214 12.8008 2.39388 12.8008 2.49996C12.8008 2.60604 12.8429 2.70778 12.9179 2.78279C12.9929 2.8578 13.0947 2.89994 13.2008 2.89994Z" fill="currentColor"/>
<path d="M2.00155 2.89994C2.22245 2.89994 2.40153 2.72087 2.40153 2.49996C2.40153 2.27905 2.22245 2.09998 2.00155 2.09998C1.78064 2.09998 1.60156 2.27905 1.60156 2.49996C1.60156 2.72087 1.78064 2.89994 2.00155 2.89994Z" fill="currentColor"/>
<path d="M3.5992 2.89994C3.82011 2.89994 3.99919 2.72087 3.99919 2.49996C3.99919 2.27905 3.82011 2.09998 3.5992 2.09998C3.3783 2.09998 3.19922 2.27905 3.19922 2.49996C3.19922 2.72087 3.3783 2.89994 3.5992 2.89994Z" fill="currentColor"/>
<path d="M5.20077 2.89994C5.42167 2.89994 5.60075 2.72087 5.60075 2.49996C5.60075 2.27905 5.42167 2.09998 5.20077 2.09998C4.97986 2.09998 4.80078 2.27905 4.80078 2.49996C4.80078 2.72087 4.97986 2.89994 5.20077 2.89994Z" fill="currentColor"/>
<path d="M15.6016 7.30001C15.6016 7.40609 15.6437 7.50783 15.7187 7.58284C15.7937 7.65785 15.8955 7.69999 16.0015 7.69999H19.2016C19.3076 7.69999 19.4094 7.65785 19.4844 7.58284C19.5594 7.50783 19.6015 7.40609 19.6015 7.30001C19.6015 7.19393 19.5594 7.09219 19.4844 7.01718C19.4094 6.94217 19.3076 6.90002 19.2016 6.90002H16.0015C15.8955 6.90002 15.7937 6.94217 15.7187 7.01718C15.6437 7.09219 15.6016 7.19393 15.6016 7.30001Z" fill="#363B54"/>
<path d="M4.79842 7.69999C5.01933 7.69999 5.19841 7.52091 5.19841 7.30001C5.19841 7.0791 5.01933 6.90002 4.79842 6.90002C4.57752 6.90002 4.39844 7.0791 4.39844 7.30001C4.39844 7.52091 4.57752 7.69999 4.79842 7.69999Z" fill="currentColor"/>
<path d="M6.39998 7.69999C6.62089 7.69999 6.79997 7.52091 6.79997 7.30001C6.79997 7.0791 6.62089 6.90002 6.39998 6.90002C6.17908 6.90002 6 7.0791 6 7.30001C6 7.52091 6.17908 7.69999 6.39998 7.69999Z" fill="currentColor"/>
<path d="M8.00155 7.69999C8.22245 7.69999 8.40153 7.52091 8.40153 7.30001C8.40153 7.0791 8.22245 6.90002 8.00155 6.90002C7.78064 6.90002 7.60156 7.0791 7.60156 7.30001C7.60156 7.52091 7.78064 7.69999 8.00155 7.69999Z" fill="currentColor"/>
<path d="M22.4 10.1H21.2V6.89998C21.2 6.01634 20.4837 5.3 19.6 5.3H18.4V2.09998C18.4 1.21634 17.6836 0.5 16.8 0.5H1.59998C0.716344 0.5 0 1.21634 0 2.09998V13.3C0 14.1837 0.716344 14.9 1.59998 14.9H2.79998V18.1C2.79998 18.9837 3.51633 19.7 4.39997 19.7H5.59997V22.9C5.59997 23.7837 6.31631 24.5 7.19995 24.5H22.4C23.2837 24.5 24 23.7837 24 22.9V11.7C24 10.8163 23.2837 10.1 22.4 10.1ZM23.2 11.7V13.3H6.39998V11.7C6.39998 11.2581 6.75816 10.9 7.2 10.9H22.4C22.8418 10.9 23.2 11.2582 23.2 11.7ZM20.4 6.89998V8.49997H3.6V6.89998C3.6 6.45814 3.95817 6.09997 4.40002 6.09997H19.6C20.0418 6.10002 20.4 6.45819 20.4 6.89998ZM1.59998 1.30002H16.8C17.2418 1.30002 17.6 1.65819 17.6 2.10003V3.70002H0.800016V2.09998C0.800016 1.65819 1.15819 1.30002 1.59998 1.30002ZM1.59998 14.1C1.15814 14.1 0.799969 13.7418 0.799969 13.3V4.49998H17.6V5.3H4.39997C3.51633 5.3 2.79998 6.01634 2.79998 6.89998V14.1H1.59998ZM4.40002 18.9C3.95817 18.9 3.6 18.5418 3.6 18.1V9.29998H20.4V10.1H7.2C6.31636 10.1 5.60002 10.8163 5.60002 11.7V18.9H4.40002ZM22.4 23.7H7.2C6.75816 23.7 6.39998 23.3418 6.39998 22.9V14.1H23.2V22.9C23.2 23.3418 22.8418 23.7 22.4 23.7Z" fill="currentColor"/>
<path d="M18.3984 12.1001C18.3984 12.2061 18.4406 12.3079 18.5156 12.3829C18.5906 12.4579 18.6923 12.5 18.7984 12.5H21.9984C22.1045 12.5 22.2063 12.4579 22.2813 12.3829C22.3563 12.3079 22.3984 12.2061 22.3984 12.1001C22.3984 11.994 22.3563 11.8922 22.2813 11.8172C22.2063 11.7422 22.1045 11.7001 21.9984 11.7001H18.7984C18.6923 11.7001 18.5906 11.7422 18.5156 11.8172C18.4406 11.8922 18.3984 11.994 18.3984 12.1001Z" fill="#363B54"/>
<path d="M7.5992 12.5C7.82011 12.5 7.99919 12.321 7.99919 12.1001C7.99919 11.8792 7.82011 11.7001 7.5992 11.7001C7.3783 11.7001 7.19922 11.8792 7.19922 12.1001C7.19922 12.321 7.3783 12.5 7.5992 12.5Z" fill="currentColor"/>
<path d="M9.20077 12.5C9.42167 12.5 9.60075 12.321 9.60075 12.1001C9.60075 11.8792 9.42167 11.7001 9.20077 11.7001C8.97986 11.7001 8.80078 11.8792 8.80078 12.1001C8.80078 12.321 8.97986 12.5 9.20077 12.5Z" fill="currentColor"/>
<path d="M10.7984 12.5C11.0193 12.5 11.1984 12.321 11.1984 12.1001C11.1984 11.8792 11.0193 11.7001 10.7984 11.7001C10.5775 11.7001 10.3984 11.8792 10.3984 12.1001C10.3984 12.321 10.5775 12.5 10.7984 12.5Z" fill="currentColor"/>
<path d="M8.80156 15.2999H8.00155C7.89546 15.2999 7.79373 15.3421 7.71872 15.4171C7.6437 15.4921 7.60156 15.5938 7.60156 15.6999C7.60156 15.806 7.6437 15.9077 7.71872 15.9827C7.79373 16.0578 7.89546 16.0999 8.00155 16.0999H8.80156C9.02248 16.0999 9.20155 15.9208 9.20155 15.6999C9.20155 15.479 9.02248 15.2999 8.80156 15.2999ZM10.4016 16.0999H17.2016C17.4225 16.0999 17.6016 15.9209 17.6016 15.7C17.6016 15.479 17.4225 15.3 17.2016 15.3H10.4016C10.2955 15.3 10.1938 15.3421 10.1188 15.4171C10.0438 15.4921 10.0016 15.5939 10.0016 15.7C10.0016 15.806 10.0438 15.9078 10.1188 15.9828C10.1938 16.0578 10.2955 16.0999 10.4016 16.0999ZM8.80156 16.9H8.00155C7.89546 16.9 7.79373 16.9421 7.71872 17.0171C7.6437 17.0921 7.60156 17.1939 7.60156 17.2999C7.60156 17.406 7.6437 17.5078 7.71872 17.5828C7.79373 17.6578 7.89546 17.6999 8.00155 17.6999H8.80156C9.02248 17.6999 9.20155 17.5209 9.20155 17.2999C9.20155 17.079 9.02248 16.9 8.80156 16.9ZM10.4016 17.6999H14.0016C14.2225 17.6999 14.4016 17.5209 14.4016 17.2999C14.4016 17.079 14.2225 16.9 14.0016 16.9H10.4016C10.1807 16.9 10.0016 17.079 10.0016 17.2999C10.0016 17.5209 10.1807 17.6999 10.4016 17.6999ZM8.80156 18.4999H8.00155C7.89546 18.4999 7.79373 18.5421 7.71872 18.6171C7.6437 18.6921 7.60156 18.7938 7.60156 18.8999C7.60156 19.006 7.6437 19.1077 7.71872 19.1828C7.79373 19.2578 7.89546 19.2999 8.00155 19.2999H8.80156C9.02248 19.2999 9.20155 19.1208 9.20155 18.8999C9.20155 18.679 9.02248 18.4999 8.80156 18.4999ZM10.4016 19.3H15.2016C15.4225 19.3 15.6016 19.1209 15.6016 18.9C15.6016 18.6791 15.4225 18.4999 15.2016 18.4999H10.4016C10.1807 18.4999 10.0016 18.679 10.0016 18.8999C10.0016 19.1208 10.1807 19.3 10.4016 19.3ZM8.80156 20.0999H8.00155C7.89546 20.0999 7.79373 20.1421 7.71872 20.2171C7.6437 20.2921 7.60156 20.3938 7.60156 20.4999C7.60156 20.606 7.6437 20.7077 7.71872 20.7827C7.79373 20.8578 7.89546 20.8999 8.00155 20.8999H8.80156C9.02248 20.8999 9.20155 20.7208 9.20155 20.4999C9.20155 20.279 9.02248 20.0999 8.80156 20.0999ZM10.4016 20.8999H17.2016C17.4225 20.8999 17.6016 20.7209 17.6016 20.5C17.6016 20.279 17.4225 20.1 17.2016 20.1H10.4016C10.1807 20.1 10.0016 20.279 10.0016 20.5C10.0016 20.7209 10.1807 20.8999 10.4016 20.8999ZM8.80156 21.7H8.00155C7.89546 21.7 7.79373 21.7421 7.71872 21.8171C7.6437 21.8921 7.60156 21.9939 7.60156 22.0999C7.60156 22.206 7.6437 22.3078 7.71872 22.3828C7.79373 22.4578 7.89546 22.4999 8.00155 22.4999H8.80156C9.02248 22.4999 9.20155 22.3209 9.20155 22.0999C9.20155 21.879 9.02248 21.7 8.80156 21.7ZM21.2016 21.7H10.4016C10.2955 21.7 10.1938 21.7421 10.1188 21.8171C10.0438 21.8921 10.0016 21.9939 10.0016 22.0999C10.0016 22.206 10.0438 22.3078 10.1188 22.3828C10.1938 22.4578 10.2955 22.4999 10.4016 22.4999H21.2016C21.4225 22.4999 21.6016 22.3209 21.6016 22.0999C21.6016 21.879 21.4225 21.7 21.2016 21.7ZM18.8016 16.0999H20.8016C20.9077 16.0999 21.0094 16.0578 21.0844 15.9828C21.1595 15.9078 21.2016 15.806 21.2016 15.7C21.2016 15.5939 21.1595 15.4921 21.0844 15.4171C21.0094 15.3421 20.9077 15.3 20.8016 15.3H18.8016C18.6955 15.3 18.5938 15.3421 18.5188 15.4171C18.4438 15.4921 18.4016 15.5939 18.4016 15.7C18.4016 15.806 18.4438 15.9078 18.5188 15.9828C18.5938 16.0578 18.6955 16.0999 18.8016 16.0999ZM21.6016 18.4999H16.8016C16.5807 18.4999 16.4016 18.679 16.4016 18.8999C16.4016 19.1208 16.5807 19.2999 16.8016 19.2999H21.6016C21.8225 19.2999 22.0016 19.1208 22.0016 18.8999C22.0016 18.679 21.8225 18.4999 21.6016 18.4999Z" fill="currentColor"/>
</g>
<defs>
<clipPath id="clip0_22705_17919">
<rect width="24" height="24" fill="currentColor" transform="translate(0 0.5)"/>
</clipPath>
</defs>
</svg>
