<svg width="24" height="24" viewBox="0 0 24 24" fill="currentColor" xmlns="http://www.w3.org/2000/svg">
<g clip-path="url(#clip0_22705_17988)">
<path fill-rule="evenodd" clip-rule="evenodd" d="M15.8594 14.9874C11.4728 14.9874 7.9297 11.4303 7.9297 7.05774C7.9297 11.4303 4.37258 14.9874 0 14.9874C4.37258 14.9874 7.9297 18.5305 7.9297 22.9031C7.9297 18.5305 11.4728 14.9874 15.8594 14.9874Z" fill="currentColor"/>
<path fill-rule="evenodd" clip-rule="evenodd" d="M23.9974 19.0788C21.5932 19.0788 19.653 17.1245 19.653 14.7343C19.653 17.1245 17.6987 19.0788 15.3085 19.0788C17.6987 19.0788 19.653 21.0191 19.653 23.4233C19.653 21.0191 21.5932 19.0788 23.9974 19.0788ZM21.4948 5.86264C18.5704 5.86264 16.2083 3.5006 16.2083 0.576172C16.2083 3.5006 13.8463 5.86264 10.9219 5.86264C13.8463 5.86264 16.2083 8.22468 16.2083 11.1491C16.2083 8.22468 18.5704 5.86264 21.4948 5.86264Z" fill="currentColor"/>
</g>
<defs>
<clipPath id="clip0_22705_17988">
<rect width="24" height="24" fill="currentColor"/>
</clipPath>
</defs>
</svg>
