<svg width="20" height="20" viewBox="0 0 20 20" fill="none" xmlns="http://www.w3.org/2000/svg">
<path d="M16.9062 10.3125V9.6875C17.0788 9.6875 17.2188 9.54759 17.2188 9.375V7.5C17.2188 7.32741 17.0788 7.1875 16.9062 7.1875H15.2188L15.1582 6.95275C15.0201 6.41583 14.8053 5.90159 14.5206 5.42588L14.3956 5.21681L15.5938 4.01659C15.7144 3.89575 15.7144 3.69994 15.5938 3.57909L14.2666 2.25C14.2076 2.19376 14.1293 2.16238 14.0478 2.16238C13.9663 2.16238 13.8879 2.19376 13.829 2.25L12.6287 3.45031L12.4197 3.32531C11.9433 3.04051 11.4284 2.8257 10.8909 2.6875L10.6562 2.62647V0.9375C10.6562 0.764906 10.5163 0.625 10.3438 0.625H8.46875C8.29616 0.625 8.15625 0.764906 8.15625 0.9375V2.625L7.9215 2.68566C7.38458 2.82377 6.87029 3.03833 6.39441 3.32275L6.18531 3.44788L4.98531 2.25C4.92628 2.19332 4.84762 2.16167 4.76578 2.16167C4.68395 2.16167 4.60528 2.19332 4.54625 2.25L3.21875 3.57716C3.18984 3.60598 3.16691 3.64023 3.15126 3.67794C3.13561 3.71564 3.12755 3.75607 3.12755 3.79689C3.12755 3.83772 3.13561 3.87814 3.15126 3.91584C3.16691 3.95355 3.18984 3.9878 3.21875 4.01662L4.41906 5.21678L4.29406 5.42591C4.00939 5.90163 3.79471 6.41586 3.65663 6.95278L3.59531 7.1875H1.90625C1.73366 7.1875 1.59375 7.32741 1.59375 7.5V9.375C1.59375 9.54759 1.73366 9.6875 1.90625 9.6875V10.3125C1.38856 10.3125 0.96875 9.89269 0.96875 9.375V7.5C0.96875 6.98231 1.38856 6.5625 1.90625 6.5625H3.11534C3.24423 6.13042 3.41855 5.71321 3.63538 5.31787L2.776 4.4585C2.60022 4.28309 2.50147 4.04506 2.50147 3.79688C2.50147 3.54869 2.60022 3.31066 2.776 3.13538L4.10413 1.80725C4.47412 1.45312 5.0575 1.45312 5.4275 1.80725L6.28662 2.66625C6.68199 2.44965 7.0992 2.27556 7.53125 2.14687V0.9375C7.53125 0.419813 7.95106 0 8.46875 0H10.3438C10.8614 0 11.2812 0.419813 11.2812 0.9375V2.14687C11.7133 2.27569 12.1305 2.44991 12.5259 2.66663L13.3853 1.80725C13.7554 1.45312 14.3386 1.45312 14.7087 1.80725L16.0366 3.135C16.1236 3.22181 16.1926 3.32493 16.2396 3.43843C16.2867 3.55194 16.3109 3.67362 16.3109 3.7965C16.3109 3.9194 16.2867 4.0411 16.2397 4.15463C16.1926 4.26816 16.1236 4.37129 16.0366 4.45813L15.1772 5.3175C15.3939 5.71304 15.5682 6.13035 15.6972 6.5625H16.9062C17.4239 6.5625 17.8438 6.98231 17.8438 7.5V9.375C17.8438 9.89269 17.4239 10.3125 16.9062 10.3125Z" fill="#363B54"/>
<path d="M13.7812 8.4375H13.1562C13.1562 6.36647 11.4773 4.6875 9.40625 4.6875C7.33522 4.6875 5.65625 6.36647 5.65625 8.4375H5.03125C5.03125 6.02125 6.99 4.0625 9.40625 4.0625C11.8224 4.0625 13.7812 6.02125 13.7812 8.4375Z" fill="#363B54"/>
<path d="M9.40625 10.9375C8.37072 10.9375 7.53125 10.0979 7.53125 9.0625C7.53125 8.02697 8.37072 7.1875 9.40625 7.1875C10.4419 7.1875 11.2812 8.02697 11.2812 9.0625C11.2802 10.0977 10.4414 10.9364 9.40625 10.9375ZM9.40625 7.8125C8.71594 7.8125 8.15625 8.37219 8.15625 9.0625C8.15625 9.75281 8.71594 10.3125 9.40625 10.3125C10.0966 10.3125 10.6562 9.75281 10.6562 9.0625C10.6562 8.37219 10.0966 7.8125 9.40625 7.8125ZM14.7188 12.1875C13.6832 12.1875 12.8438 11.3479 12.8438 10.3125C12.8438 9.27697 13.6832 8.4375 14.7188 8.4375C15.7543 8.4375 16.5938 9.27697 16.5938 10.3125C16.5927 11.3477 15.7539 12.1864 14.7188 12.1875ZM14.7188 9.0625C14.0284 9.0625 13.4688 9.62219 13.4688 10.3125C13.4688 11.0028 14.0284 11.5625 14.7188 11.5625C15.4091 11.5625 15.9688 11.0028 15.9688 10.3125C15.9688 9.62219 15.4091 9.0625 14.7188 9.0625ZM4.09375 12.1875C3.05822 12.1875 2.21875 11.3479 2.21875 10.3125C2.21875 9.27697 3.05822 8.4375 4.09375 8.4375C5.12937 8.4375 5.96875 9.27697 5.96875 10.3125C5.96766 11.3477 5.12891 12.1864 4.09375 12.1875ZM4.09375 9.0625C3.40344 9.0625 2.84375 9.62219 2.84375 10.3125C2.84375 11.0028 3.40344 11.5625 4.09375 11.5625C4.78406 11.5625 5.34375 11.0028 5.34375 10.3125C5.34375 9.62219 4.78406 9.0625 4.09375 9.0625Z" fill="#363B54"/>
<path d="M17.5518 12.9893C17.086 12.6691 16.5339 12.4985 15.9688 12.5H13.4688C13.3167 12.5014 13.165 12.5151 13.0153 12.5411C12.8152 12.2284 12.5551 11.9585 12.25 11.7471C12.2043 11.7125 12.1561 11.6812 12.1059 11.6535C11.6688 11.3888 11.1673 11.2492 10.6562 11.25H8.15625C7.6861 11.2484 7.2232 11.3659 6.81081 11.5917C6.39843 11.8175 6.05001 12.1442 5.79812 12.5411C5.64803 12.5151 5.49607 12.5014 5.34375 12.5H2.84375C2.27898 12.4985 1.72713 12.6689 1.26159 12.9887C0.882711 13.2465 0.572562 13.593 0.358132 13.998C0.143702 14.403 0.0314871 14.8542 0.03125 15.3125V16.5625C0.0323438 17.4158 0.528812 18.1907 1.30384 18.5481C1.58992 18.6829 1.90254 18.7519 2.21875 18.75H5.34375V18.125H2.53125V14.6875H1.90625V18.0936C1.78862 18.07 1.67432 18.0321 1.56594 17.9806C1.29484 17.8556 1.06515 17.6557 0.903967 17.4044C0.742783 17.1532 0.65683 16.861 0.65625 16.5625V15.3125C0.656628 14.9559 0.744109 14.6047 0.911089 14.2896C1.07807 13.9745 1.31949 13.7049 1.61437 13.5043C1.97617 13.256 2.40496 13.1237 2.84375 13.125H5.34375C5.39881 13.125 5.45187 13.1309 5.50562 13.1345C5.39988 13.4326 5.34515 13.7463 5.34375 14.0625V17.1875C5.34484 18.0501 6.04381 18.7489 6.90625 18.75H7.84375V13.75H7.21875V18.125H6.90625C6.38856 18.125 5.96875 17.7052 5.96875 17.1875V14.0625C5.96875 12.8543 6.94825 11.875 8.15625 11.875H10.6562C11.0583 11.8753 11.4525 11.9866 11.7953 12.1966C11.827 12.2139 11.8575 12.2334 11.8865 12.2549C12.1793 12.4554 12.4196 12.7233 12.5872 13.0361C12.7556 13.352 12.8437 13.7045 12.8438 14.0625V17.1875C12.8438 17.7052 12.4239 18.125 11.9062 18.125H11.5938V13.75H10.9688V18.75H11.9062C12.7688 18.7489 13.4677 18.0501 13.4688 17.1875V14.0625C13.4673 13.7463 13.4127 13.4326 13.3071 13.1345C13.361 13.1309 13.4141 13.125 13.4688 13.125H15.9688C16.4079 13.1238 16.837 13.2563 17.199 13.5049C17.4936 13.7055 17.7348 13.9751 17.9016 14.2901C18.0684 14.6051 18.1558 14.9561 18.1562 15.3125V16.5625C18.1557 16.862 18.0692 17.1551 17.907 17.4069C17.7448 17.6587 17.5138 17.8587 17.2413 17.983C17.1346 18.0335 17.0221 18.0707 16.9062 18.0937V14.6875H16.2812V18.125H13.4688V18.75H16.5938C16.908 18.752 17.2188 18.6839 17.5034 18.5505C18.281 18.1942 18.78 17.4179 18.7812 16.5625V15.3125C18.781 14.8544 18.6689 14.4033 18.4546 13.9984C18.2403 13.5935 17.9304 13.2471 17.5518 12.9893Z" fill="#363B54"/>
<path d="M8.15625 18.125H10.6562V18.75H8.15625V18.125Z" fill="#363B54"/>
</svg>
