<svg width="496" height="336" viewBox="0 0 496 336" fill="none" xmlns="http://www.w3.org/2000/svg">
<g clip-path="url(#clip0_23356_30825)">
<path d="M330.309 211.3C330.239 213.84 328.689 215.3 326.639 215.33C324.129 215.37 321.519 214.36 321.069 211.45C320.659 208.79 322.569 207.31 325.039 207.15C327.929 206.96 329.409 208.92 330.299 211.3H330.309Z" fill="#FEFEFE"/>
<path d="M288.79 200.78C289.06 201.19 289.33 201.59 289.61 202C289.1 201.82 288.59 201.64 288.08 201.46C288.32 201.23 288.56 201.01 288.8 200.78H288.79Z" fill="#FEFEFE"/>
<path d="M216.651 247.34C219.091 238.76 221.671 230.18 218.061 218.85C206.461 255.41 182.261 276.91 147.571 286.86C131.661 291.43 115.311 293.91 99.0606 289.69C88.2006 286.87 81.1606 290.06 74.5306 298.52C62.4506 313.92 50.1206 329.47 29.4406 333.99C24.3506 335.1 18.9606 336 13.8406 335.53C7.29063 334.93 1.44062 331.93 0.290624 324.38C-0.719376 317.75 2.61063 312.82 8.44063 310.4C30.4806 301.26 46.2706 285.77 56.5906 264.44C60.5806 256.19 67.9706 255.55 75.5506 256.8C92.5706 259.6 101.471 251.71 104.961 235.78C106.091 230.63 106.961 225.21 109.291 220.59C114.461 210.36 114.981 203.18 102.691 197C94.7206 192.99 92.9706 183.6 95.8006 174.55C98.4106 166.22 103.991 160.4 112.751 160.08C122.961 159.7 129.401 165.68 132.361 178.04C171.371 135.69 223.891 137.41 273.601 129.96C293.761 126.94 312.241 119.98 323.751 99.8503C258.071 104.56 202.781 82.6403 154.031 41.9403C150.081 38.6403 143.231 35.2503 144.721 30.2403C146.581 23.9803 154.401 25.6803 159.901 25.4603C210.851 23.4203 258.101 36.7903 302.861 60.2703C307.521 62.7103 312.201 65.1103 316.881 67.5203C317.971 67.8903 319.061 68.2803 320.141 68.6603C319.561 67.8003 318.981 66.9303 318.401 66.0703C294.701 41.2703 262.821 32.9503 231.691 23.2403C224.161 20.8903 215.941 20.2903 210.441 13.7303C207.921 10.7203 203.151 8.19027 205.791 3.21027C207.851 -0.679725 212.161 0.0402748 215.791 0.170275C263.511 1.83027 307.731 13.5803 343.661 46.9503C352.151 54.8403 360.241 58.0603 371.831 56.8203C405.071 53.2603 429.471 69.4703 449.631 93.9703C456.811 102.7 456.601 110.72 448.501 119.18C440.701 127.33 432.431 135.6 421.911 138.61C403.641 143.84 397.011 157.82 390.161 172.97C386.211 181.71 388.221 184.1 397.191 184.4C411.421 184.88 425.691 185.61 439.831 187.22C458.591 189.36 475.761 195.89 489.401 209.54C492.471 212.61 497.301 216 494.061 221.58C491.561 225.88 486.951 225.49 482.691 225.34C481.111 225.28 479.421 225.36 477.981 224.83C439.371 210.79 400.991 216.07 362.841 226.6C350.771 229.93 339.941 225.46 328.591 223.82C323.441 217.81 318.831 220.79 313.601 224.15C302.441 231.31 289.961 235.15 276.921 237.31C256.821 240.64 236.731 244.03 216.631 247.39L216.651 247.34ZM406.691 88.4103C404.791 83.3603 401.631 79.1903 395.491 79.5903C390.231 79.9303 386.181 83.0703 387.051 88.7403C388.001 94.9203 393.561 97.0803 398.891 96.9803C403.231 96.9003 406.551 93.8103 406.681 88.4103H406.691Z" fill="#F9675C"/>
<path d="M216.65 247.34C236.75 243.98 256.84 240.59 276.94 237.26C289.98 235.1 302.46 231.26 313.62 224.1C318.85 220.74 323.46 217.76 328.61 223.77C298.77 251.03 260.86 258.3 223.2 266.11C216.67 267.46 210.01 268.15 201.76 269.4C207.36 261.1 212 254.22 216.65 247.34Z" fill="#218081"/>
<path d="M400.031 228.67C421.941 224.8 443.931 218.66 461.081 239.58C465.491 244.95 471.531 251.21 467.541 257.38C462.501 265.17 455.101 258.71 449.601 255.67C433.171 246.58 417.251 236.56 400.031 228.67Z" fill="#218081"/>
</g>
<defs>
<clipPath id="clip0_23356_30825">
<rect width="496" height="336" fill="white"/>
</clipPath>
</defs>
</svg>
