<svg width="62" height="63" viewBox="0 0 62 63" fill="none" xmlns="http://www.w3.org/2000/svg">
<g filter="url(#filter0_d_22705_17906)">
<rect x="4" y="4.5" width="54" height="54" rx="27" fill="#E5FAFF"/>
<path fill-rule="evenodd" clip-rule="evenodd" d="M30.3346 42.5163H18.9346C18.8639 42.5163 18.7961 42.4882 18.7461 42.4382C18.6961 42.3882 18.668 42.3204 18.668 42.2496V40.315C18.668 39.2083 19.4586 38.2323 20.6773 37.403C22.8533 35.9177 26.3746 34.9817 30.3346 34.9817C30.5999 34.9817 30.8542 34.8763 31.0417 34.6888C31.2293 34.5012 31.3346 34.2469 31.3346 33.9817C31.3346 33.7164 31.2293 33.4621 31.0417 33.2745C30.8542 33.087 30.5999 32.9817 30.3346 32.9817C25.9053 32.9817 21.984 34.0896 19.5493 35.7496C17.692 37.0163 16.668 38.6257 16.668 40.315V42.2496C16.668 42.8508 16.9068 43.4273 17.3319 43.8524C17.7569 44.2775 18.3335 44.5163 18.9346 44.5163H30.3346C30.5999 44.5163 30.8542 44.411 31.0417 44.2234C31.2293 44.0359 31.3346 43.7815 31.3346 43.5163C31.3346 43.2511 31.2293 42.9967 31.0417 42.8092C30.8542 42.6217 30.5999 42.5163 30.3346 42.5163ZM30.3346 17.1656C26.2866 17.1656 23.0013 20.451 23.0013 24.499C23.0013 28.547 26.2866 31.8323 30.3346 31.8323C34.3826 31.8323 37.668 28.547 37.668 24.499C37.668 20.451 34.3826 17.1656 30.3346 17.1656ZM30.3346 19.1656C33.2786 19.1656 35.668 21.555 35.668 24.499C35.668 27.443 33.2786 29.8323 30.3346 29.8323C27.3906 29.8323 25.0013 27.443 25.0013 24.499C25.0013 21.555 27.3906 19.1656 30.3346 19.1656ZM38.3346 34.083C37.0987 34.1189 35.9254 34.635 35.0639 35.5219C34.2024 36.4088 33.7205 37.5965 33.7205 38.833C33.7205 40.0694 34.2024 41.2572 35.0639 42.1441C35.9254 43.0309 37.0987 43.5471 38.3346 43.583C40.956 43.583 43.0853 41.4536 43.0853 38.8323C43.0853 36.211 40.956 34.083 38.3346 34.083ZM38.3346 36.083C39.852 36.083 41.0853 37.315 41.0853 38.8323C41.0853 40.3496 39.852 41.583 38.3346 41.583C36.8173 41.583 35.584 40.3496 35.584 38.8323C35.584 37.315 36.8173 36.083 38.3346 36.083Z" fill="#363B54"/>
<path fill-rule="evenodd" clip-rule="evenodd" d="M39.3281 35.0806V32.8313C39.3281 32.5661 39.2228 32.3117 39.0352 32.1242C38.8477 31.9367 38.5933 31.8313 38.3281 31.8313C38.0629 31.8313 37.8086 31.9367 37.621 32.1242C37.4335 32.3117 37.3281 32.5661 37.3281 32.8313V35.082C37.3283 35.3472 37.4338 35.6015 37.6215 35.7889C37.8092 35.9763 38.0636 36.0815 38.3288 36.0813C38.594 36.0811 38.8483 35.9756 39.0357 35.7879C39.2231 35.6003 39.3283 35.3458 39.3281 35.0806ZM41.6868 36.8873L43.2775 35.2953C43.4649 35.1079 43.5702 34.8537 43.5702 34.5886C43.5702 34.3236 43.4649 34.0694 43.2775 33.882C43.09 33.6945 42.8358 33.5893 42.5708 33.5893C42.3057 33.5893 42.0515 33.6945 41.8641 33.882L40.2721 35.4726C40.0851 35.6605 39.9801 35.9149 39.9801 36.18C39.9801 36.4451 40.0851 36.6994 40.2721 36.8873C40.46 37.0743 40.7143 37.1793 40.9795 37.1793C41.2446 37.1793 41.4989 37.0743 41.6868 36.8873ZM42.0775 39.8313H44.3281C44.5933 39.8313 44.8477 39.7259 45.0352 39.5384C45.2228 39.3509 45.3281 39.0965 45.3281 38.8313C45.3281 38.5661 45.2228 38.3117 45.0352 38.1242C44.8477 37.9367 44.5933 37.8313 44.3281 37.8313H42.0775C41.8122 37.8313 41.5579 37.9367 41.3704 38.1242C41.1828 38.3117 41.0775 38.5661 41.0775 38.8313C41.0775 39.0965 41.1828 39.3509 41.3704 39.5384C41.5579 39.7259 41.8122 39.8313 42.0775 39.8313ZM40.2721 42.19L41.8641 43.7806C41.9569 43.8734 42.0671 43.947 42.1883 43.9973C42.3096 44.0475 42.4396 44.0733 42.5708 44.0733C42.702 44.0733 42.832 44.0475 42.9532 43.9973C43.0745 43.947 43.1847 43.8734 43.2775 43.7806C43.3703 43.6878 43.4439 43.5777 43.4941 43.4564C43.5443 43.3352 43.5702 43.2052 43.5702 43.074C43.5702 42.9427 43.5443 42.8128 43.4941 42.6915C43.4439 42.5703 43.3703 42.4601 43.2775 42.3673L41.6868 40.7753C41.4989 40.5883 41.2446 40.4833 40.9795 40.4833C40.7143 40.4833 40.46 40.5883 40.2721 40.7753C40.0851 40.9632 39.9801 41.2175 39.9801 41.4826C39.9801 41.7477 40.0851 42.0021 40.2721 42.19ZM37.3281 42.5806V44.8313C37.3281 45.0965 37.4335 45.3509 37.621 45.5384C37.8086 45.7259 38.0629 45.8313 38.3281 45.8313C38.5933 45.8313 38.8477 45.7259 39.0352 45.5384C39.2228 45.3509 39.3281 45.0965 39.3281 44.8313V42.5806C39.3281 42.3154 39.2228 42.0611 39.0352 41.8735C38.8477 41.686 38.5933 41.5806 38.3281 41.5806C38.0629 41.5806 37.8086 41.686 37.621 41.8735C37.4335 42.0611 37.3281 42.3154 37.3281 42.5806ZM34.9695 40.7753L33.3788 42.3673C33.286 42.4601 33.2124 42.5703 33.1622 42.6915C33.1119 42.8128 33.0861 42.9427 33.0861 43.074C33.0861 43.2052 33.1119 43.3352 33.1622 43.4564C33.2124 43.5777 33.286 43.6878 33.3788 43.7806C33.4716 43.8734 33.5818 43.947 33.703 43.9973C33.8243 44.0475 33.9542 44.0733 34.0855 44.0733C34.2167 44.0733 34.3467 44.0475 34.4679 43.9973C34.5892 43.947 34.6993 43.8734 34.7921 43.7806L36.3841 42.19C36.5711 42.0021 36.6761 41.7477 36.6761 41.4826C36.6761 41.2175 36.5711 40.9632 36.3841 40.7753C36.1962 40.5883 35.9419 40.4833 35.6768 40.4833C35.4117 40.4833 35.1574 40.5883 34.9695 40.7753ZM34.5775 37.8313H32.3281C32.0629 37.8313 31.8086 37.9367 31.621 38.1242C31.4335 38.3117 31.3281 38.5661 31.3281 38.8313C31.3281 39.0965 31.4335 39.3509 31.621 39.5384C31.8086 39.7259 32.0629 39.8313 32.3281 39.8313H34.5775C34.8427 39.8313 35.097 39.7259 35.2846 39.5384C35.4721 39.3509 35.5775 39.0965 35.5775 38.8313C35.5775 38.5661 35.4721 38.3117 35.2846 38.1242C35.097 37.9367 34.8427 37.8313 34.5775 37.8313ZM36.3841 35.4726L34.7921 33.882C34.6993 33.7892 34.5892 33.7156 34.4679 33.6653C34.3467 33.6151 34.2167 33.5893 34.0855 33.5893C33.9542 33.5893 33.8243 33.6151 33.703 33.6653C33.5818 33.7156 33.4716 33.7892 33.3788 33.882C33.286 33.9748 33.2124 34.0849 33.1622 34.2062C33.1119 34.3274 33.0861 34.4574 33.0861 34.5886C33.0861 34.7199 33.1119 34.8498 33.1622 34.9711C33.2124 35.0923 33.286 35.2025 33.3788 35.2953L34.9695 36.8873C35.1574 37.0743 35.4117 37.1793 35.6768 37.1793C35.9419 37.1793 36.1962 37.0743 36.3841 36.8873C36.5711 36.6994 36.6761 36.4451 36.6761 36.18C36.6761 35.9149 36.5711 35.6605 36.3841 35.4726Z" fill="#363B54"/>
</g>
<defs>
<filter id="filter0_d_22705_17906" x="0" y="0.5" width="62" height="62" filterUnits="userSpaceOnUse" color-interpolation-filters="sRGB">
<feFlood flood-opacity="0" result="BackgroundImageFix"/>
<feColorMatrix in="SourceAlpha" type="matrix" values="0 0 0 0 0 0 0 0 0 0 0 0 0 0 0 0 0 0 127 0" result="hardAlpha"/>
<feOffset/>
<feGaussianBlur stdDeviation="2"/>
<feComposite in2="hardAlpha" operator="out"/>
<feColorMatrix type="matrix" values="0 0 0 0 0 0 0 0 0 0 0 0 0 0 0 0 0 0 0.08 0"/>
<feBlend mode="normal" in2="BackgroundImageFix" result="effect1_dropShadow_22705_17906"/>
<feBlend mode="normal" in="SourceGraphic" in2="effect1_dropShadow_22705_17906" result="shape"/>
</filter>
</defs>
</svg>
