<svg width="62" height="63" viewBox="0 0 62 63" fill="none" xmlns="http://www.w3.org/2000/svg">
<g filter="url(#filter0_d_22705_17918)">
<rect x="4" y="4.5" width="54" height="54" rx="27" fill="#DAFFF2"/>
<g clip-path="url(#clip0_22705_17918)">
<path d="M32.2008 21.8999H35.4008C35.5069 21.8999 35.6086 21.8578 35.6836 21.7828C35.7586 21.7078 35.8008 21.606 35.8008 21.5C35.8008 21.3939 35.7586 21.2921 35.6836 21.2171C35.6086 21.1421 35.5069 21.1 35.4008 21.1H32.2008C32.0947 21.1 31.9929 21.1421 31.9179 21.2171C31.8429 21.2921 31.8008 21.3939 31.8008 21.5C31.8008 21.606 31.8429 21.7078 31.9179 21.7828C31.9929 21.8578 32.0947 21.8999 32.2008 21.8999Z" fill="#363B54"/>
<path d="M21.0015 21.8999C21.2225 21.8999 21.4015 21.7209 21.4015 21.5C21.4015 21.2791 21.2225 21.1 21.0015 21.1C20.7806 21.1 20.6016 21.2791 20.6016 21.5C20.6016 21.7209 20.7806 21.8999 21.0015 21.8999Z" fill="#363B54"/>
<path d="M22.5992 21.8999C22.8201 21.8999 22.9992 21.7209 22.9992 21.5C22.9992 21.2791 22.8201 21.1 22.5992 21.1C22.3783 21.1 22.1992 21.2791 22.1992 21.5C22.1992 21.7209 22.3783 21.8999 22.5992 21.8999Z" fill="#363B54"/>
<path d="M24.2008 21.8999C24.4217 21.8999 24.6008 21.7209 24.6008 21.5C24.6008 21.2791 24.4217 21.1 24.2008 21.1C23.9799 21.1 23.8008 21.2791 23.8008 21.5C23.8008 21.7209 23.9799 21.8999 24.2008 21.8999Z" fill="#363B54"/>
<path d="M34.6016 26.3C34.6016 26.4061 34.6437 26.5078 34.7187 26.5828C34.7937 26.6579 34.8955 26.7 35.0015 26.7H38.2016C38.3076 26.7 38.4094 26.6579 38.4844 26.5828C38.5594 26.5078 38.6015 26.4061 38.6015 26.3C38.6015 26.1939 38.5594 26.0922 38.4844 26.0172C38.4094 25.9422 38.3076 25.9 38.2016 25.9H35.0015C34.8955 25.9 34.7937 25.9422 34.7187 26.0172C34.6437 26.0922 34.6016 26.1939 34.6016 26.3Z" fill="#363B54"/>
<path d="M23.7984 26.7C24.0193 26.7 24.1984 26.5209 24.1984 26.3C24.1984 26.0791 24.0193 25.9 23.7984 25.9C23.5775 25.9 23.3984 26.0791 23.3984 26.3C23.3984 26.5209 23.5775 26.7 23.7984 26.7Z" fill="#363B54"/>
<path d="M25.4 26.7C25.6209 26.7 25.8 26.5209 25.8 26.3C25.8 26.0791 25.6209 25.9 25.4 25.9C25.1791 25.9 25 26.0791 25 26.3C25 26.5209 25.1791 26.7 25.4 26.7Z" fill="#363B54"/>
<path d="M27.0015 26.7C27.2225 26.7 27.4015 26.5209 27.4015 26.3C27.4015 26.0791 27.2225 25.9 27.0015 25.9C26.7806 25.9 26.6016 26.0791 26.6016 26.3C26.6016 26.5209 26.7806 26.7 27.0015 26.7Z" fill="#363B54"/>
<path d="M41.4 29.1H40.2V25.9C40.2 25.0163 39.4837 24.3 38.6 24.3H37.4V21.1C37.4 20.2163 36.6836 19.5 35.8 19.5H20.6C19.7163 19.5 19 20.2163 19 21.1V32.3C19 33.1837 19.7163 33.9 20.6 33.9H21.8V37.1C21.8 37.9837 22.5163 38.7 23.4 38.7H24.6V41.9C24.6 42.7837 25.3163 43.5 26.2 43.5H41.4C42.2837 43.5 43 42.7837 43 41.9V30.7C43 29.8163 42.2837 29.1 41.4 29.1ZM42.2 30.7V32.3H25.4V30.7C25.4 30.2581 25.7582 29.9 26.2 29.9H41.4C41.8418 29.9 42.2 30.2582 42.2 30.7ZM39.4 25.9V27.5H22.6V25.9C22.6 25.4581 22.9582 25.1 23.4 25.1H38.6C39.0418 25.1 39.4 25.4582 39.4 25.9ZM20.6 20.3H35.8C36.2418 20.3 36.6 20.6582 36.6 21.1V22.7H19.8V21.1C19.8 20.6582 20.1582 20.3 20.6 20.3ZM20.6 33.1C20.1581 33.1 19.8 32.7418 19.8 32.3V23.5H36.6V24.3H23.4C22.5163 24.3 21.8 25.0163 21.8 25.9V33.1H20.6ZM23.4 37.9C22.9582 37.9 22.6 37.5418 22.6 37.1V28.3H39.4V29.1H26.2C25.3164 29.1 24.6 29.8163 24.6 30.7V37.9H23.4ZM41.4 42.7H26.2C25.7582 42.7 25.4 42.3418 25.4 41.9V33.1H42.2V41.9C42.2 42.3418 41.8418 42.7 41.4 42.7Z" fill="#363B54"/>
<path d="M37.3984 31.1001C37.3984 31.2061 37.4406 31.3079 37.5156 31.3829C37.5906 31.4579 37.6923 31.5 37.7984 31.5H40.9984C41.1045 31.5 41.2063 31.4579 41.2813 31.3829C41.3563 31.3079 41.3984 31.2061 41.3984 31.1001C41.3984 30.994 41.3563 30.8922 41.2813 30.8172C41.2063 30.7422 41.1045 30.7001 40.9984 30.7001H37.7984C37.6923 30.7001 37.5906 30.7422 37.5156 30.8172C37.4406 30.8922 37.3984 30.994 37.3984 31.1001Z" fill="#363B54"/>
<path d="M26.5992 31.5C26.8201 31.5 26.9992 31.321 26.9992 31.1001C26.9992 30.8792 26.8201 30.7001 26.5992 30.7001C26.3783 30.7001 26.1992 30.8792 26.1992 31.1001C26.1992 31.321 26.3783 31.5 26.5992 31.5Z" fill="#363B54"/>
<path d="M28.2008 31.5C28.4217 31.5 28.6008 31.321 28.6008 31.1001C28.6008 30.8792 28.4217 30.7001 28.2008 30.7001C27.9799 30.7001 27.8008 30.8792 27.8008 31.1001C27.8008 31.321 27.9799 31.5 28.2008 31.5Z" fill="#363B54"/>
<path d="M29.7984 31.5C30.0193 31.5 30.1984 31.321 30.1984 31.1001C30.1984 30.8792 30.0193 30.7001 29.7984 30.7001C29.5775 30.7001 29.3984 30.8792 29.3984 31.1001C29.3984 31.321 29.5775 31.5 29.7984 31.5Z" fill="#363B54"/>
<path d="M27.8016 34.2999H27.0015C26.8955 34.2999 26.7937 34.3421 26.7187 34.4171C26.6437 34.4921 26.6016 34.5938 26.6016 34.6999C26.6016 34.806 26.6437 34.9077 26.7187 34.9827C26.7937 35.0578 26.8955 35.0999 27.0015 35.0999H27.8016C28.0225 35.0999 28.2015 34.9208 28.2015 34.6999C28.2015 34.479 28.0225 34.2999 27.8016 34.2999ZM29.4016 35.0999H36.2016C36.4225 35.0999 36.6016 34.9209 36.6016 34.7C36.6016 34.479 36.4225 34.3 36.2016 34.3H29.4016C29.2955 34.3 29.1938 34.3421 29.1188 34.4171C29.0438 34.4921 29.0016 34.5939 29.0016 34.7C29.0016 34.806 29.0438 34.9078 29.1188 34.9828C29.1938 35.0578 29.2955 35.0999 29.4016 35.0999ZM27.8016 35.9H27.0015C26.8955 35.9 26.7937 35.9421 26.7187 36.0171C26.6437 36.0921 26.6016 36.1939 26.6016 36.2999C26.6016 36.406 26.6437 36.5078 26.7187 36.5828C26.7937 36.6578 26.8955 36.6999 27.0015 36.6999H27.8016C28.0225 36.6999 28.2015 36.5209 28.2015 36.2999C28.2015 36.079 28.0225 35.9 27.8016 35.9ZM29.4016 36.6999H33.0016C33.2225 36.6999 33.4016 36.5209 33.4016 36.2999C33.4016 36.079 33.2225 35.9 33.0016 35.9H29.4016C29.1807 35.9 29.0016 36.079 29.0016 36.2999C29.0016 36.5209 29.1807 36.6999 29.4016 36.6999ZM27.8016 37.4999H27.0015C26.8955 37.4999 26.7937 37.5421 26.7187 37.6171C26.6437 37.6921 26.6016 37.7938 26.6016 37.8999C26.6016 38.006 26.6437 38.1077 26.7187 38.1828C26.7937 38.2578 26.8955 38.2999 27.0015 38.2999H27.8016C28.0225 38.2999 28.2015 38.1208 28.2015 37.8999C28.2015 37.679 28.0225 37.4999 27.8016 37.4999ZM29.4016 38.3H34.2016C34.4225 38.3 34.6016 38.1209 34.6016 37.9C34.6016 37.6791 34.4225 37.4999 34.2016 37.4999H29.4016C29.1807 37.4999 29.0016 37.679 29.0016 37.8999C29.0016 38.1208 29.1807 38.3 29.4016 38.3ZM27.8016 39.0999H27.0015C26.8955 39.0999 26.7937 39.1421 26.7187 39.2171C26.6437 39.2921 26.6016 39.3938 26.6016 39.4999C26.6016 39.606 26.6437 39.7077 26.7187 39.7827C26.7937 39.8578 26.8955 39.8999 27.0015 39.8999H27.8016C28.0225 39.8999 28.2015 39.7208 28.2015 39.4999C28.2015 39.279 28.0225 39.0999 27.8016 39.0999ZM29.4016 39.8999H36.2016C36.4225 39.8999 36.6016 39.7209 36.6016 39.5C36.6016 39.279 36.4225 39.1 36.2016 39.1H29.4016C29.1807 39.1 29.0016 39.279 29.0016 39.5C29.0016 39.7209 29.1807 39.8999 29.4016 39.8999ZM27.8016 40.7H27.0015C26.8955 40.7 26.7937 40.7421 26.7187 40.8171C26.6437 40.8921 26.6016 40.9939 26.6016 41.0999C26.6016 41.206 26.6437 41.3078 26.7187 41.3828C26.7937 41.4578 26.8955 41.4999 27.0015 41.4999H27.8016C28.0225 41.4999 28.2015 41.3209 28.2015 41.0999C28.2015 40.879 28.0225 40.7 27.8016 40.7ZM40.2016 40.7H29.4016C29.2955 40.7 29.1938 40.7421 29.1188 40.8171C29.0438 40.8921 29.0016 40.9939 29.0016 41.0999C29.0016 41.206 29.0438 41.3078 29.1188 41.3828C29.1938 41.4578 29.2955 41.4999 29.4016 41.4999H40.2016C40.4225 41.4999 40.6016 41.3209 40.6016 41.0999C40.6016 40.879 40.4225 40.7 40.2016 40.7ZM37.8016 35.0999H39.8016C39.9077 35.0999 40.0094 35.0578 40.0844 34.9828C40.1595 34.9078 40.2016 34.806 40.2016 34.7C40.2016 34.5939 40.1595 34.4921 40.0844 34.4171C40.0094 34.3421 39.9077 34.3 39.8016 34.3H37.8016C37.6955 34.3 37.5938 34.3421 37.5188 34.4171C37.4438 34.4921 37.4016 34.5939 37.4016 34.7C37.4016 34.806 37.4438 34.9078 37.5188 34.9828C37.5938 35.0578 37.6955 35.0999 37.8016 35.0999ZM40.6016 37.4999H35.8016C35.5807 37.4999 35.4016 37.679 35.4016 37.8999C35.4016 38.1208 35.5807 38.2999 35.8016 38.2999H40.6016C40.8225 38.2999 41.0016 38.1208 41.0016 37.8999C41.0016 37.679 40.8225 37.4999 40.6016 37.4999Z" fill="#363B54"/>
</g>
</g>
<defs>
<filter id="filter0_d_22705_17918" x="0" y="0.5" width="62" height="62" filterUnits="userSpaceOnUse" color-interpolation-filters="sRGB">
<feFlood flood-opacity="0" result="BackgroundImageFix"/>
<feColorMatrix in="SourceAlpha" type="matrix" values="0 0 0 0 0 0 0 0 0 0 0 0 0 0 0 0 0 0 127 0" result="hardAlpha"/>
<feOffset/>
<feGaussianBlur stdDeviation="2"/>
<feComposite in2="hardAlpha" operator="out"/>
<feColorMatrix type="matrix" values="0 0 0 0 0 0 0 0 0 0 0 0 0 0 0 0 0 0 0.08 0"/>
<feBlend mode="normal" in2="BackgroundImageFix" result="effect1_dropShadow_22705_17918"/>
<feBlend mode="normal" in="SourceGraphic" in2="effect1_dropShadow_22705_17918" result="shape"/>
</filter>
<clipPath id="clip0_22705_17918">
<rect width="24" height="24" fill="white" transform="translate(19 19.5)"/>
</clipPath>
</defs>
</svg>
