<svg width="62" height="49" viewBox="0 0 62 49" fill="none" xmlns="http://www.w3.org/2000/svg">
<g filter="url(#filter0_d_22705_17941)">
<rect x="4" y="4.5" width="54" height="54" rx="27" fill="#E6EAFF"/>
<path d="M38.5 31C34.2635 30.9325 31.0265 35.2285 32.2525 39.275L28 41.729V31.335L37 26.14V29.0605C37.007 29.7165 37.9915 29.7175 38 29.0605V25.2755C37.9968 25.2464 37.993 25.2174 37.9885 25.1885C37.969 25.0405 37.871 24.9225 37.75 24.8425L27.75 19.0675C27.6722 19.0293 27.5867 19.0094 27.5 19.0094C27.4133 19.0094 27.3278 19.0293 27.25 19.0675L17.25 24.84C17.1025 24.94 17.008 25.0945 17 25.2745V36.8195C17 36.9073 17.0231 36.9935 17.067 37.0695C17.1109 37.1455 17.174 37.2086 17.25 37.2525L27.25 43.0275C27.409 43.1105 27.591 43.1145 27.75 43.0275L32.607 40.2245C33.64 42.45 35.89 44 38.5 44C47.12 43.644 47.124 31.358 38.5 31ZM22.5 22.964L31.5 28.16L27.5 30.4695L18.5 25.2735L22.5 22.964ZM27.5 20.0775L36.499 25.274L32.5 27.5825L23.5 22.3865L27.5 20.0775ZM18 26.1395L27 31.3355V41.73L18 36.531V26.14V26.1395ZM38.5 43C35.4675 43 33 40.5325 33 37.5C33.302 30.2035 43.699 30.2055 44 37.5C44 40.5325 41.5325 43 38.5 43Z" fill="#363B54"/>
<path d="M41.5 37H39V34.5C38.99 33.845 38.011 33.8415 38 34.5V37H35.5C35.3674 37 35.2402 37.0527 35.1464 37.1465C35.0527 37.2402 35 37.3674 35 37.5C35 37.6326 35.0527 37.7598 35.1464 37.8536C35.2402 37.9473 35.3674 38 35.5 38H38V40.5C38 40.6326 38.0527 40.7598 38.1464 40.8536C38.2402 40.9473 38.3674 41 38.5 41C38.6326 41 38.7598 40.9473 38.8536 40.8536C38.9473 40.7598 39 40.6326 39 40.5V38H41.5C42.155 37.99 42.1585 37.011 41.5 37Z" fill="#363B54"/>
</g>
<defs>
<filter id="filter0_d_22705_17941" x="0" y="0.5" width="62" height="62" filterUnits="userSpaceOnUse" color-interpolation-filters="sRGB">
<feFlood flood-opacity="0" result="BackgroundImageFix"/>
<feColorMatrix in="SourceAlpha" type="matrix" values="0 0 0 0 0 0 0 0 0 0 0 0 0 0 0 0 0 0 127 0" result="hardAlpha"/>
<feOffset/>
<feGaussianBlur stdDeviation="2"/>
<feComposite in2="hardAlpha" operator="out"/>
<feColorMatrix type="matrix" values="0 0 0 0 0 0 0 0 0 0 0 0 0 0 0 0 0 0 0.08 0"/>
<feBlend mode="normal" in2="BackgroundImageFix" result="effect1_dropShadow_22705_17941"/>
<feBlend mode="normal" in="SourceGraphic" in2="effect1_dropShadow_22705_17941" result="shape"/>
</filter>
</defs>
</svg>
